<?xml version="1.0" encoding="utf-8"?>
<!-- Generator: Adobe Illustrator 25.2.0, SVG Export Plug-In . SVG Version: 6.00 Build 0)  -->
<svg version="1.1" id="Layer_1" xmlns="http://www.w3.org/2000/svg" xmlns:xlink="http://www.w3.org/1999/xlink" x="0px" y="0px"
	 viewBox="0 0 136 46" style="enable-background:new 0 0 136 46;" xml:space="preserve">
<style type="text/css">
	.st0{clip-path:url(#SVGID_1_);}
	.st1{fill:#9A1E32;stroke:#A12342;stroke-width:0.75;stroke-miterlimit:10;}
	.st2{fill:#01764B;}
	.st3{fill:#CBA95F;}
	.st4{fill:#9A1E32;}
	.st5{fill:#F5A909;}
	.st6{fill:#318F37;}
	.st7{fill:#FFFFFF;}
	.st8{fill:#1E1E1C;}
	.st9{fill:#BA271E;}
	.st10{fill:#278F3B;}
</style>
<g>
	<defs>
		<rect id="SVGID_3_" width="136" height="46"/>
	</defs>
	<clipPath id="SVGID_1_">
		<use xlink:href="#SVGID_3_"  style="overflow:visible;"/>
	</clipPath>
	<g class="st0">
		<path class="st1" d="M66,16.9l4.8,12h-1.3l-1.3-3.3h-5.8L61.3,29H60l4.8-12H66z M65.4,18l-2.6,6.7h5L65.4,18z"/>
		<path class="st1" d="M72.6,18.8c0-0.7,0.2-1.3,0.6-1.6c0.3-0.3,0.8-0.4,1.2-0.5h0.1c0.2,0,0.4,0,0.6,0.1c0.2,0,0.3,0.1,0.5,0.1
			v0.9c-0.1,0-0.2-0.1-0.4-0.1c-0.1,0-0.2,0-0.4,0c-0.3,0-0.6,0.1-0.8,0.3c-0.1,0.2-0.2,0.3-0.3,0.5c-0.1,0.2-0.1,0.4-0.1,0.6v1.4
			h1.9v0.9h-2V29h-1v-7.5h-1.7v-0.9h1.7L72.6,18.8z"/>
		<path class="st1" d="M84,18.2c-0.6-0.4-1.3-0.6-2-0.6c-1.4,0.1-2.3,0.6-3,1.6c-0.6,1.1-1,2.3-0.9,3.6c0,0.2,0,0.4,0,0.5
			c0,0.2,0,0.4,0.1,0.6c0.1,1,0.5,2,1.1,2.8c0.6,0.9,1.5,1.3,2.7,1.3c0.9,0,1.6-0.2,2-0.5c0.5-0.4,0.8-1,0.9-1.6h1.3
			c-0.2,0.9-0.6,1.7-1.3,2.3c-0.6,0.6-1.6,0.9-3,0.9c-1.8,0-3.1-0.6-3.9-1.9c-0.8-1.3-1.2-2.8-1.2-4.3s0.4-3,1.2-4.3
			c0.8-1.3,2.1-1.9,4-2h0.4l0.4,0c0.8,0.1,1.6,0.3,2.3,0.8c0.7,0.5,1.1,1.2,1.2,2.3h-1.3c0-0.3-0.1-0.6-0.3-0.8
			C84.5,18.6,84.3,18.4,84,18.2L84,18.2z"/>
		<path class="st1" d="M94.9,16.9v1h-5.6v4.3h5.3v1h-5.3V29h-1.2v-12L94.9,16.9z"/>
		<path class="st1" d="M104.5,17V18h-3.9v11h-1.2V18h-3.8V17L104.5,17z"/>
		<path class="st1" d="M109.8,16.9l4.8,12h-1.3l-1.3-3.3h-5.8L105,29h-1.3l4.8-12H109.8z M109.1,18l-2.6,6.7h5L109.1,18z"/>
		<path class="st1" d="M62.8,44.1c0.2,0.2,0.5,0.4,0.8,0.6c0.3,0.1,0.6,0.2,1,0.2c1.1,0,1.9-0.2,2.4-0.7c0.2-0.2,0.4-0.4,0.5-0.7
			c0.1-0.3,0.2-0.5,0.2-0.8c0-0.4-0.1-0.9-0.4-1.3c-0.3-0.4-0.6-0.7-1.1-0.9c-0.1-0.1-0.3-0.1-0.4-0.2l-0.4-0.1l-0.3-0.1L64.9,40
			c-0.9-0.3-1.8-0.7-2.6-1.2c-0.8-0.5-1.2-1.3-1.2-2.5c0-0.4,0.1-0.8,0.3-1.2c0.2-0.4,0.4-0.7,0.7-1c0.7-0.7,1.6-1,2.6-1
			c1,0,2,0.2,2.8,0.7c0.4,0.2,0.7,0.5,0.9,0.9s0.3,0.8,0.3,1.2h-1.2c0-0.3-0.1-0.5-0.2-0.7c-0.1-0.2-0.3-0.4-0.5-0.5
			c-0.6-0.4-1.4-0.6-2.1-0.6c-0.7,0-1.3,0.3-1.7,0.7c-0.2,0.2-0.4,0.4-0.5,0.6c-0.1,0.2-0.2,0.5-0.2,0.8c0,0.4,0.1,0.7,0.3,1
			c0.3,0.4,0.6,0.7,1,0.9c0.2,0.1,0.4,0.2,0.6,0.3c0.2,0.1,0.4,0.2,0.7,0.2l0.4,0.2l0.4,0.1c0.8,0.3,1.5,0.6,2.2,1.1
			c0.6,0.4,1,1.1,1,2.2c0,1.4-0.5,2.3-1.4,2.8c-0.9,0.5-2,0.7-3,0.7c-0.9,0-1.8-0.3-2.5-0.8c-0.7-0.6-1.1-1.4-1.2-2.7l1.2,0
			C62.1,43,62.4,43.6,62.8,44.1L62.8,44.1z"/>
		<path class="st1" d="M76.9,42.7H78c-0.3,1.1-0.7,1.9-1.3,2.3c-0.7,0.5-1.5,0.7-2.3,0.7c-1.3,0-2.3-0.4-2.9-1.2
			c-0.6-0.8-0.9-1.7-1-2.6c0-0.1,0-0.2,0-0.3c0-0.1,0-0.2,0-0.3c0-1.2,0.4-2.3,1.2-3.2c0.3-0.4,0.7-0.7,1.2-0.9
			c0.5-0.2,0.9-0.3,1.4-0.3c1.3,0,2.2,0.4,2.8,1.3c0.6,0.8,0.9,1.8,0.9,2.8v0.4c0,0,0,0.1,0,0.1v0.1h-6.3c0,0.2,0,0.4,0,0.5
			c0,0.2,0.1,0.4,0.1,0.6c0.1,0.5,0.4,1.1,0.8,1.5c0.2,0.2,0.4,0.4,0.7,0.5c0.3,0.1,0.6,0.2,0.9,0.2h0.2c0.5,0,1-0.2,1.4-0.4
			c0.3-0.2,0.5-0.5,0.7-0.8c0.1-0.2,0.1-0.3,0.2-0.5C76.8,43,76.9,42.8,76.9,42.7L76.9,42.7z M76.9,40.6
			C76.9,40.5,76.9,40.5,76.9,40.6v-0.2c0-0.3,0-0.6-0.1-0.9c-0.1-0.3-0.3-0.6-0.5-0.8c-0.4-0.4-0.8-0.7-1.3-0.8
			c-0.1,0-0.2,0-0.3-0.1c-0.1,0-0.2,0-0.3,0c-0.2,0-0.4,0-0.6,0c-0.2,0-0.4,0.1-0.6,0.2c-0.3,0.2-0.6,0.5-0.9,0.8
			c-0.3,0.5-0.6,1.1-0.6,1.7L76.9,40.6L76.9,40.6z"/>
		<path class="st1" d="M84.6,38.4c-0.5-0.4-1.1-0.6-1.7-0.5c-0.6,0-1.2,0.3-1.6,0.8c-0.4,0.5-0.6,1.1-0.8,1.7c0,0.2-0.1,0.3-0.1,0.5
			c0,0.2,0,0.3,0,0.5c0,0.2,0,0.3,0,0.4c0,0.1,0,0.3,0,0.4c0.1,0.7,0.3,1.3,0.6,1.9c0.4,0.6,1,0.9,1.9,0.9c0.5,0,1-0.2,1.4-0.6
			c0.2-0.2,0.4-0.4,0.5-0.7c0.1-0.3,0.2-0.6,0.2-0.8l1.2,0c0,0.4-0.1,0.8-0.2,1.2c-0.2,0.4-0.4,0.7-0.7,1c-0.6,0.5-1.5,0.8-2.3,0.8
			c-0.5,0-0.9-0.1-1.4-0.3c-0.4-0.2-0.8-0.4-1.2-0.8c-0.7-0.7-1.1-1.9-1.1-3.5c0-1.1,0.2-2,0.7-2.6c0.4-0.6,0.9-1,1.5-1.3
			c0.3-0.1,0.5-0.2,0.8-0.3c0.2-0.1,0.5-0.1,0.7-0.1h0.1h0h0.1c0.8,0,1.5,0.3,2.1,0.8c0.3,0.2,0.5,0.5,0.7,0.8
			c0.2,0.3,0.3,0.6,0.3,1v0.3h-1.2c0-0.3,0-0.5-0.1-0.8C84.9,38.8,84.8,38.6,84.6,38.4z"/>
		<path class="st1" d="M87.8,37.2h1c0,0.1,0.1,0.2,0.1,0.3c0,0.1,0,0.2,0,0.2c0,0.1,0,0.2,0,0.3v0.3c0.2-0.7,0.6-1.1,1-1.2
			c0.5-0.1,1-0.2,1.5-0.1h0.3v0.9h-0.2c-0.1,0-0.1,0-0.2,0c-0.6,0-1.2,0.2-1.7,0.7c-0.2,0.2-0.4,0.5-0.5,0.8
			c-0.1,0.3-0.2,0.6-0.2,0.9v5.3h-1v-7.3c0-0.1,0-0.2,0-0.4s0-0.2,0-0.3C87.9,37.5,87.9,37.3,87.8,37.2L87.8,37.2z"/>
		<path class="st1" d="M99,42.7h1.2c-0.3,1.1-0.7,1.9-1.3,2.3c-0.7,0.5-1.5,0.7-2.3,0.7c-1.3,0-2.3-0.4-2.9-1.2
			c-0.6-0.8-0.9-1.7-1-2.6c0-0.1,0-0.2,0-0.3c0-0.1,0-0.2,0-0.3c0-1.2,0.4-2.3,1.2-3.2c0.3-0.4,0.7-0.7,1.2-0.9
			c0.5-0.2,0.9-0.3,1.4-0.3c1.3,0,2.2,0.4,2.8,1.3c0.6,0.8,0.9,1.8,0.9,2.8v0.4c0,0,0,0.1,0,0.1v0.1h-6.3c0,0.2,0,0.4,0,0.5
			c0,0.2,0.1,0.4,0.1,0.6c0.1,0.5,0.4,1.1,0.8,1.5c0.2,0.2,0.4,0.4,0.7,0.5c0.3,0.1,0.6,0.2,0.9,0.2h0.2c0.5,0,1-0.2,1.4-0.4
			c0.3-0.2,0.5-0.5,0.7-0.8c0.1-0.2,0.1-0.3,0.2-0.5C99,43,99,42.9,99,42.7L99,42.7z M99,40.6C99,40.5,99,40.5,99,40.6l0-0.2
			c0-0.3,0-0.6-0.1-0.9c-0.1-0.3-0.3-0.6-0.5-0.8c-0.4-0.4-0.8-0.7-1.3-0.8c-0.1,0-0.2,0-0.3-0.1c-0.1,0-0.2,0-0.3,0
			c-0.2,0-0.4,0-0.6,0c-0.2,0-0.4,0.1-0.6,0.2c-0.3,0.2-0.6,0.5-0.9,0.8c-0.3,0.5-0.6,1.1-0.7,1.7L99,40.6L99,40.6z"/>
		<path class="st1" d="M101.1,37.2h1.7v-1.7l1-0.4v2.1h1.9v0.9h-1.9v5.5c0,0.2,0,0.4,0,0.6c0.1,0.2,0.1,0.4,0.3,0.5
			c0.2,0.2,0.5,0.3,0.8,0.3c0.2,0,0.3,0,0.5,0c0.2,0,0.3-0.1,0.5-0.1v0.9c-0.2,0.1-0.4,0.1-0.6,0.1c-0.2,0-0.4,0-0.6,0
			c-0.3,0-0.5,0-0.8-0.1c-0.2-0.1-0.5-0.2-0.7-0.4c-0.2-0.2-0.3-0.4-0.4-0.6c-0.1-0.2-0.1-0.5-0.1-0.7v-5.9h-1.7V37.2z"/>
		<path class="st1" d="M108.1,37.6c0.6-0.4,1.3-0.6,2-0.6c0,0,0.1,0,0.1,0h0.2c0.7,0,1.4,0.2,2,0.6c0.6,0.4,0.8,1.2,0.8,2.3
			c0,1.9,0,3.2,0,3.9c0,0.5,0,1.1,0.1,1.6c0,0,0,0.1,0,0.1c0,0,0,0.1,0,0.1h-1c0,0,0,0,0,0s0,0,0,0c-0.1-0.3-0.1-0.7-0.1-1
			c-0.2,0.3-0.4,0.5-0.6,0.7c-0.3,0.2-0.5,0.3-0.8,0.4c-0.2,0.1-0.4,0.1-0.6,0.1c-0.2,0-0.3,0-0.5,0.1c-1,0-1.7-0.3-2.2-0.8
			c-0.5-0.5-0.7-1.1-0.7-1.8c0.1-1.2,0.5-1.9,1.4-2.3c0.9-0.3,2.2-0.5,4-0.5c0-0.6-0.1-1.2-0.3-1.8c-0.2-0.5-0.7-0.8-1.5-0.8
			c-0.5,0-1.1,0.1-1.5,0.4c-0.2,0.1-0.3,0.3-0.4,0.5c-0.1,0.2-0.1,0.4-0.1,0.6h-1.2c0-0.3,0.1-0.7,0.2-1
			C107.5,38,107.8,37.7,108.1,37.6L108.1,37.6z M112.2,41.4c-0.1,0-0.1,0-0.2,0h-0.2c-0.9,0-1.8,0.1-2.7,0.3
			c-0.4,0.1-0.7,0.2-0.9,0.5c-0.2,0.3-0.3,0.7-0.3,1c0,0.2,0,0.5,0.1,0.7c0.1,0.2,0.2,0.4,0.4,0.6c0.4,0.3,0.8,0.4,1.3,0.4
			c0.1,0,0.1,0,0.2,0h0.1c0.2,0,0.5-0.1,0.7-0.2c0.2-0.1,0.4-0.2,0.6-0.3c0.3-0.2,0.5-0.6,0.7-0.9c0.2-0.5,0.3-1,0.3-1.5
			c0-0.1,0-0.2,0-0.3S112.2,41.5,112.2,41.4L112.2,41.4z"/>
		<path class="st1" d="M115.3,37.2h1c0,0.1,0.1,0.2,0.1,0.3c0,0.1,0,0.2,0,0.2c0,0.1,0,0.2,0,0.3v0.3c0.2-0.7,0.6-1.1,1-1.2
			c0.5-0.1,1-0.2,1.5-0.1h0.3v0.9H119c-0.1,0-0.1,0-0.2,0c-0.6,0-1.2,0.2-1.7,0.7c-0.2,0.2-0.4,0.5-0.5,0.8
			c-0.1,0.3-0.2,0.6-0.2,0.9v5.3h-1v-7.3c0-0.1,0-0.2,0-0.4c0-0.1,0-0.2,0-0.3C115.3,37.5,115.3,37.3,115.3,37.2L115.3,37.2z"/>
		<path class="st1" d="M121.8,33.5v1.3h-1.3v-1.3H121.8z M121.7,37.2v8.4h-1v-8.4H121.7z"/>
		<path class="st1" d="M124.8,37.6c0.6-0.4,1.3-0.6,2-0.6c0,0,0.1,0,0.1,0h0.2c0.7,0,1.4,0.2,2,0.6c0.6,0.4,0.8,1.2,0.8,2.3
			c0,1.9,0,3.2,0,3.9c0,0.5,0,1.1,0.1,1.6c0,0,0,0.1,0,0.1c0,0,0,0.1,0,0.1h-1c0,0,0,0,0,0c-0.1-0.3-0.1-0.7-0.1-1
			c-0.2,0.3-0.4,0.5-0.6,0.7c-0.3,0.2-0.5,0.3-0.8,0.4c-0.2,0.1-0.4,0.1-0.6,0.1c-0.2,0-0.3,0-0.5,0.1c-1,0-1.7-0.3-2.1-0.8
			c-0.5-0.5-0.7-1.1-0.7-1.8c0.1-1.2,0.5-1.9,1.4-2.3c0.9-0.3,2.2-0.5,4-0.5c0-0.6-0.1-1.2-0.3-1.8c-0.2-0.5-0.7-0.8-1.5-0.8
			c-0.5,0-1.1,0.1-1.5,0.4c-0.2,0.1-0.3,0.3-0.4,0.5c-0.1,0.2-0.1,0.4-0.1,0.6h-1.2c0-0.3,0-0.7,0.2-1
			C124.2,38,124.5,37.7,124.8,37.6z M128.9,41.4c-0.1,0-0.1,0-0.2,0h-0.2c-0.9,0-1.8,0.1-2.7,0.3c-0.4,0.1-0.7,0.2-0.9,0.5
			c-0.2,0.3-0.3,0.7-0.3,1c0,0.2,0,0.5,0.1,0.7c0.1,0.2,0.2,0.4,0.4,0.6c0.4,0.3,0.8,0.4,1.3,0.4c0.1,0,0.1,0,0.2,0h0.1
			c0.2,0,0.5-0.1,0.7-0.2c0.2-0.1,0.4-0.2,0.6-0.3c0.3-0.2,0.5-0.6,0.7-0.9c0.2-0.5,0.3-1,0.3-1.5c0-0.1,0-0.2,0-0.3
			S128.9,41.5,128.9,41.4L128.9,41.4z"/>
		<path class="st1" d="M131.1,37.2h1.7v-1.7l1-0.4v2.1h1.9v0.9h-1.9v5.5c0,0.2,0,0.4,0,0.6c0.1,0.2,0.1,0.4,0.3,0.5
			c0.2,0.2,0.5,0.3,0.8,0.3c0.2,0,0.3,0,0.5,0c0.2,0,0.3-0.1,0.5-0.1v0.9c-0.2,0.1-0.4,0.1-0.6,0.1c-0.2,0-0.4,0-0.6,0
			c-0.3,0-0.5,0-0.8-0.1c-0.2-0.1-0.5-0.2-0.7-0.4c-0.2-0.2-0.3-0.4-0.4-0.6c-0.1-0.2-0.1-0.5-0.1-0.7v-5.9h-1.7V37.2z"/>
		<path class="st2" d="M7.7,6.6c0.1,0,0.1,0,0.1-0.1c0,0,0.1-0.1,0.1-0.1c0-0.1-0.1-0.3-0.2-0.2L6.5,6.3v0.2
			C6.9,6.4,7.3,6.4,7.7,6.6z"/>
		<path class="st2" d="M7.2,7.3c0.1,0,0.1,0,0.1-0.1c0,0,0.1-0.1,0.1-0.1c0,0,0-0.1,0-0.1c0,0,0-0.1,0-0.1c0,0,0,0-0.1,0
			c0,0-0.1,0-0.1,0L6,7.1v0.2C6.4,7.2,6.8,7.2,7.2,7.3L7.2,7.3z"/>
		<path class="st2" d="M6.8,8C6.9,8,6.9,8,7,7.9C7,7.9,7,7.9,7,7.8c0-0.1-0.1-0.2-0.3-0.2L5.5,7.9L5.6,8C6,7.9,6.4,7.9,6.8,8L6.8,8z
			"/>
		<path class="st2" d="M6.3,8.8C6.3,8.8,6.4,8.8,6.3,8.8c0.1,0,0.1,0,0.2-0.1c0,0,0,0,0-0.1c0,0,0-0.1,0-0.1
			C6.4,8.4,6.4,8.4,6.2,8.4L5,8.7l0.1,0.1C5.5,8.8,5.9,8.8,6.3,8.8L6.3,8.8z"/>
		<path class="st2" d="M5.9,9.6C5.9,9.6,6,9.5,6,9.3c0-0.1-0.1-0.1-0.3-0.1L4.6,9.7l0.1,0.1C5,9.6,5.4,9.6,5.9,9.6L5.9,9.6z"/>
		<path class="st2" d="M5.3,10.5c0.1,0,0.1-0.1,0.1-0.2c0-0.1-0.1-0.2-0.3-0.2L4,10.6l0.1,0.1C4.5,10.6,4.9,10.5,5.3,10.5L5.3,10.5z
			"/>
		<path class="st2" d="M4.9,11.4c0.1,0,0.2-0.1,0.1-0.3c0-0.1-0.1-0.1-0.3-0.1l-1.1,0.4l0.1,0.2C4.1,11.5,4.5,11.4,4.9,11.4
			L4.9,11.4z"/>
		<path class="st2" d="M4.7,12.3c0.1-0.1,0.2-0.1,0.1-0.3c0-0.1-0.1-0.2-0.3-0.1l-1.1,0.4l0.1,0.1C3.8,12.3,4.2,12.2,4.7,12.3z"/>
		<path class="st2" d="M4.4,13.1c0,0,0.1-0.1,0.1-0.2c0-0.1,0-0.1,0-0.2c0-0.1-0.1-0.1-0.3-0.1l-1.1,0.6l0.1,0.1
			C3.5,13.1,3.9,13,4.4,13.1L4.4,13.1z"/>
		<path class="st2" d="M4,14c0.1,0,0.2-0.1,0.1-0.3c0-0.1-0.1-0.1-0.3-0.1l-1.1,0.6l0.1,0.1C3.2,14.2,3.6,14.1,4,14L4,14z"/>
		<path class="st2" d="M3.7,15c0.1,0,0.2-0.1,0.1-0.3c0,0-0.1-0.1-0.1-0.1c-0.1,0-0.1,0-0.2,0l-1.1,0.7l0.1,0.1
			C2.9,15.2,3.3,15.1,3.7,15z"/>
		<path class="st2" d="M8.4,5.8c0.1,0,0.1,0,0.1-0.1c0,0,0.1-0.1,0.1-0.1c0-0.1-0.1-0.2-0.3-0.2L7.1,5.6v0.1C7.5,5.7,8,5.7,8.4,5.8z
			"/>
		<path class="st2" d="M9,5.1c0.1,0,0.1,0,0.1-0.1c0,0,0.1-0.1,0.1-0.1C9.1,4.8,9,4.7,8.9,4.7L7.7,4.9V5C8.1,5,8.5,5,9,5.1z"/>
		<path class="st2" d="M9.6,4.5c0.1,0,0.2-0.1,0.2-0.3c0-0.1,0-0.1-0.1-0.1C9.7,4,9.6,4,9.6,4L8.4,4.2v0.1C8.8,4.3,9.2,4.3,9.6,4.5
			L9.6,4.5z"/>
		<path class="st2" d="M10.1,3.7c0.1-0.1,0.2-0.1,0.2-0.3c0-0.1-0.1-0.2-0.3-0.2L8.9,3.5v0.2C9.3,3.6,9.7,3.6,10.1,3.7z"/>
		<path class="st2" d="M8.5,2.7c0-0.1-0.1-0.2-0.3-0.1C8.1,2.5,8,2.7,8.1,2.8L8.5,4l0.1-0.1C8.5,3.5,8.5,3.1,8.5,2.7z"/>
		<path class="st2" d="M7.9,3.2C7.9,3.1,7.7,3,7.6,3C7.5,3,7.5,3.2,7.5,3.3l0.4,1.2H8C7.9,4,7.8,3.6,7.9,3.2L7.9,3.2z"/>
		<path class="st2" d="M7.2,3.8c0-0.1-0.1-0.2-0.3-0.1C6.8,3.7,6.7,3.8,6.8,4l0.6,1.4h0.2C7.3,4.8,7.2,4.3,7.2,3.8L7.2,3.8z"/>
		<path class="st2" d="M6.7,4.5c0-0.1-0.1-0.1-0.1-0.1c0,0-0.1-0.1-0.2-0.1C6.2,4.3,6.2,4.4,6.2,4.5L6.7,6l0.1-0.1
			C6.7,5.5,6.6,5,6.7,4.5L6.7,4.5z"/>
		<path class="st2" d="M6.1,5c0-0.1-0.1-0.1-0.3-0.1c0,0-0.1,0.1-0.1,0.1c0,0.1,0,0.1,0,0.2l0.6,1.4h0.2C6.2,6.1,6.1,5.6,6.1,5
			L6.1,5z"/>
		<path class="st2" d="M5.4,5.8c0,0-0.1-0.1-0.1-0.1c-0.1,0-0.1,0-0.2,0c0,0-0.1,0-0.1,0.1c0,0,0,0.1-0.1,0.1c0,0,0,0.1,0,0.1
			C5,6,5,6,5,6.1l0.6,1.4l0.1-0.1C5.6,6.9,5.4,6.4,5.4,5.8L5.4,5.8z"/>
		<path class="st2" d="M4.9,6.7c0-0.1-0.1-0.1-0.3-0.1C4.5,6.6,4.5,6.7,4.4,6.9l0.6,1.4l0.1-0.1C5,7.7,4.9,7.2,4.9,6.7z"/>
		<path class="st2" d="M4.4,7.4c0-0.1-0.1-0.1-0.3-0.1C4,7.4,3.9,7.5,4,7.7L4.7,9l0.1-0.1C4.6,8.4,4.4,7.9,4.4,7.4z"/>
		<path class="st2" d="M4,8.2c0-0.1-0.1-0.1-0.1-0.1c-0.1,0-0.1,0-0.2,0c0,0-0.1,0-0.1,0.1c0,0,0,0.1-0.1,0.1c0,0,0,0.1,0,0.1
			c0,0,0,0.1,0,0.1l0.7,1.3l0.2-0.1C4.2,9.2,4,8.7,4,8.2L4,8.2z"/>
		<path class="st2" d="M3.4,9C3.4,9,3.2,8.9,3.1,9C3,9,3,9.2,3.1,9.3l0.9,1.2l0.1-0.1C3.8,10,3.6,9.5,3.4,9L3.4,9z"/>
		<path class="st2" d="M3.1,9.9C3,9.8,2.9,9.7,2.8,9.8C2.6,9.9,2.6,10,2.6,10.1l0.9,1.3l0.1-0.1C3.4,10.9,3.2,10.4,3.1,9.9L3.1,9.9z
			"/>
		<path class="st2" d="M2.7,10.5c-0.1-0.1-0.2-0.1-0.3-0.1c-0.1,0.1-0.1,0.2-0.1,0.4L3.3,12l0.1-0.1C3.1,11.5,2.8,11.1,2.7,10.5
			L2.7,10.5z"/>
		<path class="st2" d="M2.4,11.3C2.3,11.2,2.3,11.2,2.4,11.3c-0.1-0.1-0.1-0.1-0.1-0.1c0,0-0.1,0-0.1,0c0,0-0.1,0-0.1,0
			c0,0,0,0-0.1,0.1c0,0,0,0,0,0.1c0,0,0,0.1,0,0.1c0,0,0,0.1,0,0.1l1,1.2l0.1-0.1C2.8,12.2,2.5,11.7,2.4,11.3L2.4,11.3z"/>
		<path class="st2" d="M2.1,12c0,0-0.1-0.1-0.1-0.1c-0.1,0-0.1,0-0.1,0.1c0,0-0.1,0-0.1,0c0,0,0,0,0,0.1c0,0,0,0.1,0,0.1
			c0,0,0,0.1,0,0.1l0.9,1.2l0.1-0.1C2.5,13,2.3,12.5,2.1,12L2.1,12z"/>
		<path class="st2" d="M1.8,13c-0.1-0.1-0.2-0.1-0.4-0.1c0,0.1-0.1,0.1-0.1,0.2c0,0.1,0,0.1,0.1,0.2l1,1.1l0.1-0.1
			C2.2,13.9,2,13.5,1.8,13L1.8,13z"/>
		<path class="st2" d="M1.5,13.9c0,0-0.1-0.1-0.1-0.1c-0.1,0-0.1,0-0.1,0.1c-0.1,0.1-0.1,0.2-0.1,0.3l1.1,1.2l0.1-0.1
			C2,14.8,1.7,14.4,1.5,13.9L1.5,13.9z"/>
		<path class="st2" d="M1.3,15C1.1,15,1,14.9,0.9,15c0,0-0.1,0.1-0.1,0.1c0,0.1,0,0.1,0.1,0.1L2,16.4l0.1-0.1
			C1.7,15.9,1.4,15.5,1.3,15L1.3,15z"/>
		<path class="st2" d="M1.1,16.3C1.1,16.2,1.1,16.2,1.1,16.3C1,16.2,1,16.2,1,16.2s-0.1,0-0.1,0c0,0-0.1,0-0.1,0.1
			c0,0-0.1,0.1-0.1,0.1c0,0.1,0,0.1,0.1,0.1l1.1,1.1L2,17.5C1.6,17.1,1.3,16.7,1.1,16.3z"/>
		<path class="st2" d="M0.9,17.6c-0.1,0-0.1-0.1-0.2-0.1c-0.1,0-0.1,0-0.2,0.1c0,0-0.1,0.1-0.1,0.1s0,0.1,0.1,0.1L1.6,19l0.1-0.1
			C1.4,18.6,1.1,18.1,0.9,17.6L0.9,17.6z"/>
		<path class="st2" d="M0.8,19c-0.1-0.1-0.2-0.1-0.3,0c-0.1,0.1-0.1,0.2,0,0.3l1.1,1l0.1-0.1C1.3,19.9,1,19.5,0.8,19L0.8,19z"/>
		<path class="st2" d="M0.8,20.4c-0.1-0.1-0.3-0.1-0.4-0.1c0,0.1-0.1,0.1-0.1,0.2c0,0.1,0,0.1,0.1,0.2l1.1,0.9l0.1-0.1
			C1.3,21.2,1,20.8,0.8,20.4L0.8,20.4z"/>
		<path class="st2" d="M0.7,21.6c-0.1,0-0.1-0.1-0.2-0.1c-0.1,0-0.1,0-0.2,0.1c-0.1,0.1-0.1,0.3,0.1,0.4l1.3,0.8l0.1-0.1
			C1.4,22.4,1,22,0.7,21.6z"/>
		<path class="st2" d="M0.8,22.9c-0.1,0-0.1-0.1-0.2,0c-0.1,0-0.1,0.1-0.2,0.1c0,0.1-0.1,0.1,0,0.2c0,0.1,0.1,0.1,0.1,0.2L1.9,24
			l0.1-0.1C1.4,23.6,1,23.4,0.8,22.9z"/>
		<path class="st2" d="M0.9,24.2c-0.1,0-0.1-0.1-0.2,0c-0.1,0-0.1,0.1-0.2,0.1c0,0.1-0.1,0.1,0,0.2c0,0.1,0.1,0.1,0.1,0.2L2,25.3
			l0.1-0.1C1.6,24.9,1.2,24.7,0.9,24.2z"/>
		<path class="st2" d="M1.1,25.5c-0.1,0-0.1,0-0.2,0c-0.1,0-0.1,0-0.2,0.1c0,0.1,0,0.3,0.1,0.3l1.4,0.5l0.1-0.1
			C1.9,26.1,1.4,25.8,1.1,25.5z"/>
		<path class="st2" d="M1.2,26.5c-0.1-0.1-0.3,0-0.3,0.1c-0.1,0.1,0,0.2,0.1,0.3l1.4,0.5l0.1-0.1C2,27.1,1.6,26.9,1.2,26.5L1.2,26.5
			z"/>
		<path class="st2" d="M1.4,27.5c-0.1-0.1-0.2,0-0.3,0.1c-0.1,0.1,0,0.2,0.1,0.3l1.4,0.5l0.1-0.1C2.2,28.1,1.8,27.8,1.4,27.5
			L1.4,27.5z"/>
		<path class="st2" d="M1.6,28.3c-0.1,0-0.1,0-0.2,0c-0.1,0-0.1,0-0.2,0.1c0,0.1,0,0.3,0.1,0.4L3,29.6l0.1-0.1
			C2.6,29.1,2,28.7,1.6,28.3z"/>
		<path class="st2" d="M3.5,16.1c0.1-0.1,0.1-0.2,0.1-0.4c0,0-0.1-0.1-0.2-0.1c-0.1,0-0.1,0-0.2,0L2,16.5l0.1,0.1
			C2.5,16.3,3,16.2,3.5,16.1L3.5,16.1z"/>
		<path class="st2" d="M3.3,17.2c0.1-0.1,0.1-0.2,0.1-0.3c0,0,0-0.1,0-0.1c0,0,0,0-0.1,0c0,0-0.1,0-0.1,0c0,0-0.1,0-0.1,0l-1.2,0.9
			l0.1,0.1C2.3,17.6,2.8,17.3,3.3,17.2z"/>
		<path class="st2" d="M3.2,18.4c0,0,0.1-0.1,0.1-0.1c0-0.1,0-0.1,0-0.2c0,0-0.1-0.1-0.1-0.1c-0.1,0-0.1,0-0.2,0L1.8,19l0.1,0.1
			C2.3,18.8,2.7,18.6,3.2,18.4L3.2,18.4z"/>
		<path class="st2" d="M3.1,19.7c0.1-0.1,0.1-0.2,0.1-0.4c-0.1,0-0.1-0.1-0.2-0.1c-0.1,0-0.1,0-0.2,0.1l-1.1,1l0.1,0.1
			C2.2,20.1,2.6,19.8,3.1,19.7z"/>
		<path class="st2" d="M3,20.9C3,20.9,3.1,20.9,3,20.9c0.1-0.1,0.1-0.1,0.1-0.1c0,0,0-0.1,0-0.1c0,0,0-0.1,0-0.1c0,0,0,0-0.1-0.1
			c0,0,0,0-0.1,0c0,0-0.1,0-0.1,0c0,0-0.1,0-0.1,0l-1.1,1.1l0.1,0.1C2.2,21.4,2.6,21.1,3,20.9L3,20.9z"/>
		<path class="st2" d="M3.1,22c0.1-0.1,0.1-0.2,0-0.4c0,0-0.1-0.1-0.1-0.1c-0.1,0-0.1,0-0.1,0.1l-1,1.2l0.1,0.1
			C2.2,22.5,2.6,22.2,3.1,22L3.1,22z"/>
		<path class="st2" d="M3.1,23c0-0.1,0.1-0.1,0.1-0.2c0-0.1,0-0.1-0.1-0.2c0,0-0.1-0.1-0.1-0.1c-0.1,0-0.1,0-0.1,0.1l-1,1.2l0.1,0.1
			C2.3,23.5,2.7,23.1,3.1,23z"/>
		<path class="st2" d="M3.2,24.1c0,0,0.1-0.1,0.1-0.1s0-0.1-0.1-0.1c-0.1-0.1-0.2-0.1-0.4,0L2,25.1l0.1,0.1
			C2.4,24.8,2.8,24.4,3.2,24.1L3.2,24.1z"/>
		<path class="st2" d="M3.4,25.2c0-0.1,0.1-0.1,0.1-0.2s0-0.1-0.1-0.2c-0.1-0.1-0.3-0.1-0.4,0.1l-0.8,1.3l0.1,0.1
			C2.7,25.8,3,25.4,3.4,25.2L3.4,25.2z"/>
		<path class="st2" d="M4,27.5c0.1-0.1,0.1-0.3-0.1-0.4c0,0,0,0-0.1,0c0,0-0.1,0-0.1,0c0,0-0.1,0-0.1,0c0,0,0,0,0,0.1l-0.8,1.3
			L3,28.5C3.2,28.1,3.6,27.7,4,27.5z"/>
		<path class="st2" d="M4.5,28.5C4.5,28.5,4.5,28.5,4.5,28.5c0-0.1,0-0.2,0-0.2c0,0,0-0.1,0-0.1c0,0,0-0.1-0.1-0.1c0,0-0.1,0-0.1,0
			c0,0-0.1,0-0.1,0c0,0-0.1,0-0.1,0c0,0-0.1,0-0.1,0.1l-0.7,1.5l0.1,0.1C3.8,29.3,4,28.8,4.5,28.5z"/>
		<path class="st2" d="M3.7,26.2c0-0.1,0-0.1,0-0.2c0-0.1,0-0.1-0.1-0.2c-0.1-0.1-0.3,0-0.3,0.1l-0.8,1.5l0.1,0.1
			C3,27,3.3,26.5,3.7,26.2L3.7,26.2z"/>
		<path class="st2" d="M9.4,2.7c-4.3,4.3-7,9.4-7.8,15c-0.8,5.6,0.4,11.4,3.5,16.5c0.1,0.1,0.2,0.1,0.4,0.1c0,0,0.1,0,0.1,0
			c0,0,0,0,0-0.1c0,0,0-0.1,0-0.1c0,0,0-0.1,0-0.1c-3-5.1-4.2-10.6-3.4-16.2C3,12.2,5.7,7,9.7,3.1c0.1-0.1,0.1-0.2,0-0.4
			c0,0-0.1-0.1-0.1-0.1C9.5,2.7,9.5,2.7,9.4,2.7z"/>
		<path class="st2" d="M43.1,6.6c-0.1,0-0.1,0-0.1-0.1c0,0-0.1-0.1-0.1-0.1c0-0.1,0.1-0.3,0.2-0.2l1.2,0.1v0.2
			C43.9,6.4,43.5,6.4,43.1,6.6z"/>
		<path class="st2" d="M43.6,7.3c-0.1,0-0.1,0-0.1-0.1c0,0-0.1-0.1-0.1-0.1c0,0,0-0.1,0-0.1c0,0,0-0.1,0-0.1c0,0,0,0,0.1,0
			c0,0,0.1,0,0.1,0l1.2,0.2v0.2C44.4,7.2,44,7.2,43.6,7.3L43.6,7.3z"/>
		<path class="st2" d="M44,8c-0.1,0-0.1,0-0.1-0.1c0,0-0.1-0.1-0.1-0.1c0-0.1,0.1-0.2,0.3-0.2l1.2,0.3L45.2,8
			C44.8,7.9,44.4,7.9,44,8z"/>
		<path class="st2" d="M44.5,8.8C44.5,8.8,44.5,8.8,44.5,8.8c-0.1,0-0.1,0-0.2-0.1c0,0,0,0,0-0.1c0,0,0-0.1,0-0.1
			c0.1-0.1,0.1-0.2,0.3-0.2l1.2,0.4l-0.1,0.1C45.3,8.8,44.9,8.8,44.5,8.8L44.5,8.8z"/>
		<path class="st2" d="M44.9,9.6C44.9,9.6,44.9,9.6,44.9,9.6c-0.1-0.1-0.1-0.1-0.1-0.1c0,0,0-0.1,0-0.1c0,0,0-0.1,0-0.1
			c0-0.1,0.1-0.1,0.3-0.1l1.1,0.5l-0.1,0.1C45.8,9.6,45.4,9.6,44.9,9.6L44.9,9.6z"/>
		<path class="st2" d="M45.5,10.5c-0.1,0-0.2-0.1-0.1-0.2c0-0.1,0.1-0.2,0.3-0.2l1.1,0.5l-0.1,0.1C46.4,10.6,45.9,10.5,45.5,10.5
			L45.5,10.5z"/>
		<path class="st2" d="M45.9,11.4c-0.1,0-0.2-0.1-0.1-0.3c0-0.1,0.1-0.1,0.3-0.1l1.1,0.4l-0.1,0.2C46.7,11.5,46.3,11.4,45.9,11.4
			L45.9,11.4z"/>
		<path class="st2" d="M46.2,12.3C46,12.2,45.9,12.1,46,12c0-0.1,0.1-0.2,0.3-0.1l1.1,0.4l-0.1,0.1C47,12.3,46.6,12.2,46.2,12.3z"/>
		<path class="st2" d="M46.4,13.1c0,0-0.1-0.1-0.1-0.2c0-0.1,0-0.1,0-0.2c0-0.1,0.1-0.1,0.3-0.1l1.1,0.6l-0.1,0.1
			C47.3,13.1,46.9,13,46.4,13.1z"/>
		<path class="st2" d="M46.7,14c-0.1,0-0.1-0.1-0.1-0.3c0-0.1,0.1-0.1,0.3-0.1l1.1,0.6l-0.1,0.1C47.6,14.2,47.2,14.1,46.7,14
			L46.7,14z"/>
		<path class="st2" d="M47.1,15.1c0,0-0.1,0-0.1,0C47,15,47,15,47,15c0,0,0-0.1,0-0.1c0,0,0-0.1,0-0.1c0,0,0.1-0.1,0.1-0.1
			c0,0,0.1,0,0.2,0l1.1,0.6l-0.1,0.1C47.9,15.2,47.5,15.2,47.1,15.1L47.1,15.1z"/>
		<path class="st2" d="M42.4,5.8c-0.1,0-0.1,0-0.1-0.1c0,0-0.1-0.1-0.1-0.1c0-0.1,0.1-0.2,0.3-0.2l1.2,0.2v0.1
			C43.3,5.7,42.9,5.7,42.4,5.8L42.4,5.8z"/>
		<path class="st2" d="M41.8,5.1c-0.1,0-0.1,0-0.1-0.1c0,0-0.1-0.1-0.1-0.1c0-0.1,0.1-0.2,0.3-0.2l1.2,0.2V5C42.7,5,42.3,5,41.8,5.1
			L41.8,5.1z"/>
		<path class="st2" d="M41.2,4.5c-0.1,0-0.3-0.1-0.2-0.3c0-0.1,0-0.1,0.1-0.1c0,0,0.1-0.1,0.1-0.1l1.2,0.2v0.1
			C42,4.3,41.6,4.3,41.2,4.5L41.2,4.5z"/>
		<path class="st2" d="M40.7,3.7c-0.1-0.1-0.2-0.1-0.2-0.3c0-0.1,0.1-0.2,0.3-0.2l1.1,0.4v0.2C41.5,3.6,41.1,3.6,40.7,3.7z"/>
		<path class="st2" d="M41.9,2.8c0-0.1,0.1-0.2,0.2-0.2c0.1,0,0.2,0.1,0.2,0.2l-0.1,1.2L42,4C42.1,3.6,42,3.2,41.9,2.8L41.9,2.8z"/>
		<path class="st2" d="M42.9,3.2c0-0.1,0.1-0.1,0.3-0.1c0.1,0,0.1,0.1,0.1,0.3l-0.4,1.2h-0.1C42.9,4,43,3.6,42.9,3.2L42.9,3.2z"/>
		<path class="st2" d="M43.6,3.8c0-0.1,0.1-0.2,0.3-0.1C44,3.7,44,3.8,44,4l-0.6,1.4h-0.1C43.5,4.8,43.6,4.3,43.6,3.8z"/>
		<path class="st2" d="M44.2,4.5c0.1-0.1,0.1-0.2,0.3-0.2c0.1,0.1,0.2,0.1,0.2,0.3L44.1,6l-0.1-0.1C44.1,5.5,44.2,5,44.2,4.5
			L44.2,4.5z"/>
		<path class="st2" d="M44.7,5c0-0.1,0.1-0.1,0.3-0.1c0,0,0.1,0.1,0.1,0.1c0,0.1,0,0.1,0,0.2l-0.6,1.4h-0.1
			C44.6,6.1,44.7,5.6,44.7,5L44.7,5z"/>
		<path class="st2" d="M45.4,5.8c0,0,0.1-0.1,0.1-0.1c0,0,0.1,0,0.2,0c0,0,0.1,0,0.1,0.1s0,0.1,0.1,0.1c0,0,0,0.1,0,0.1
			c0,0,0,0.1,0,0.1c-0.1,0.1-0.1,0.1-0.2,0.1l-0.4,1.2L45,7.4l0.4-1.2C45.4,6,45.3,6,45.4,5.8z"/>
		<path class="st2" d="M45.9,6.7c0-0.1,0.1-0.1,0.3-0.1c0.1,0.1,0.1,0.2,0.1,0.3l-0.6,1.4l-0.2-0.1C45.8,7.7,45.9,7.2,45.9,6.7
			L45.9,6.7z"/>
		<path class="st2" d="M46.4,7.4c0-0.1,0.1-0.1,0.3-0.1c0.1,0,0.1,0.1,0.1,0.3L46.1,9l-0.1-0.1C46.2,8.4,46.4,7.9,46.4,7.4L46.4,7.4
			z"/>
		<path class="st2" d="M46.9,8.4c0-0.1,0.1-0.1,0.1-0.1c0.1,0,0.1,0,0.2,0c0,0,0.1,0,0.1,0.1c0,0,0,0.1,0.1,0.1c0,0,0,0.1,0,0.1
			c0,0,0,0.1,0,0.1l-0.7,1.3l-0.2-0.1C46.7,9.4,46.9,8.9,46.9,8.4L46.9,8.4z"/>
		<path class="st2" d="M47.4,9C47.4,9,47.6,8.9,47.7,9c0.1,0.1,0.1,0.2,0.1,0.4l-0.9,1.2l-0.1-0.1C47,10,47.3,9.5,47.4,9L47.4,9z"/>
		<path class="st2" d="M47.7,9.9c0.1-0.1,0.2-0.1,0.3-0.1c0,0,0.1,0.1,0.1,0.1c0,0.1,0,0.1,0,0.2l-0.9,1.3l-0.1-0.1
			C47.4,10.9,47.6,10.4,47.7,9.9L47.7,9.9z"/>
		<path class="st2" d="M48.1,10.5c0.1-0.1,0.2-0.1,0.3-0.1c0.1,0.1,0.1,0.2,0.1,0.4L47.5,12l-0.1-0.1C47.7,11.5,48,11.1,48.1,10.5
			L48.1,10.5z"/>
		<path class="st2" d="M48.4,11.3C48.5,11.2,48.5,11.2,48.4,11.3c0.1-0.1,0.1-0.1,0.1-0.1c0,0,0.1,0,0.1,0c0,0,0.1,0,0.1,0
			c0,0,0.1,0,0.1,0c0,0,0,0,0,0.1c0,0,0,0.1,0,0.1c0,0,0,0.1,0,0.1l-1,1.2l-0.1-0.1C48,12.2,48.3,11.7,48.4,11.3L48.4,11.3z"/>
		<path class="st2" d="M48.7,12c0,0,0.1-0.1,0.1-0.1c0.1,0,0.1,0,0.1,0.1c0,0,0.1,0,0.1,0c0,0,0,0,0,0.1c0,0,0,0.1,0,0.1
			c0,0,0,0.1,0,0.1l-0.9,1.2l-0.1-0.1C48.3,13,48.5,12.5,48.7,12L48.7,12z"/>
		<path class="st2" d="M49,13c0.1-0.1,0.2-0.1,0.4-0.1c0,0.1,0.1,0.1,0.1,0.2c0,0.1,0,0.1-0.1,0.2l-1,1.1l-0.1-0.1
			C48.6,13.9,48.8,13.5,49,13L49,13z"/>
		<path class="st2" d="M49.3,13.9c0,0,0.1-0.1,0.1-0.1c0.1,0,0.1,0,0.1,0.1c0.1,0.1,0.1,0.2,0.1,0.3l-1.1,1.2l-0.1-0.1
			C48.8,14.8,49.1,14.4,49.3,13.9L49.3,13.9z"/>
		<path class="st2" d="M49.5,15C49.5,15,49.6,15,49.5,15c0.1-0.1,0.1-0.1,0.2-0.1c0,0,0.1,0,0.1,0c0,0,0.1,0,0.1,0.1
			c0,0,0.1,0.1,0.1,0.1s0,0.1-0.1,0.1l-1.1,1.1l-0.1-0.1C49.1,15.9,49.4,15.5,49.5,15L49.5,15z"/>
		<path class="st2" d="M49.7,16.3C49.7,16.2,49.7,16.2,49.7,16.3c0.1-0.1,0.1-0.1,0.2-0.1c0,0,0.1,0,0.1,0c0,0,0.1,0,0.1,0.1
			c0,0,0.1,0.1,0.1,0.1c0,0.1,0,0.1-0.1,0.1L49,17.6l-0.1-0.1C49.2,17.1,49.5,16.7,49.7,16.3L49.7,16.3z"/>
		<path class="st2" d="M49.9,17.6c0.1,0,0.1-0.1,0.2-0.1s0.1,0,0.2,0.1c0,0,0.1,0.1,0.1,0.1s0,0.1-0.1,0.1L49.2,19L49,18.9
			C49.4,18.6,49.7,18.1,49.9,17.6L49.9,17.6z"/>
		<path class="st2" d="M50,19c0.1-0.1,0.2-0.1,0.3,0c0.1,0.1,0.1,0.2,0,0.3l-1.1,1l-0.1-0.1C49.5,19.9,49.8,19.5,50,19L50,19z"/>
		<path class="st2" d="M50,20.4c0.1-0.1,0.3-0.1,0.4-0.1c0,0.1,0.1,0.1,0.1,0.2c0,0.1,0,0.1-0.1,0.2l-1.1,0.9l-0.1-0.1
			C49.5,21.2,49.8,20.8,50,20.4z"/>
		<path class="st2" d="M50.1,21.6c0.1,0,0.1-0.1,0.2-0.1c0.1,0,0.1,0,0.2,0.1c0,0.1,0,0.1,0,0.2c0,0.1,0,0.1-0.1,0.2l-1.3,0.8
			L49,22.6C49.4,22.4,49.8,22,50.1,21.6L50.1,21.6z"/>
		<path class="st2" d="M50,22.9C50.1,22.9,50.1,22.9,50,22.9c0.1,0,0.2,0,0.2,0c0,0,0.1,0,0.1,0c0,0,0.1,0,0.1,0.1c0,0,0,0.1,0,0.1
			c0,0,0,0.1,0,0.1c0,0,0,0.1,0,0.1c0,0,0,0.1-0.1,0.1L49,24l-0.1-0.1C49.4,23.6,49.8,23.4,50,22.9z"/>
		<path class="st2" d="M49.9,24.2c0.1,0,0.1,0,0.2,0c0.1,0,0.1,0,0.2,0.1c0,0.1,0,0.3-0.1,0.4l-1.4,0.6l-0.1-0.1
			C49.2,24.9,49.6,24.7,49.9,24.2z"/>
		<path class="st2" d="M49.7,25.5c0.1,0,0.1,0,0.2,0c0.1,0,0.1,0,0.2,0.1c0,0.1,0,0.3-0.1,0.3l-1.4,0.5l-0.1-0.1
			C48.9,26.1,49.4,25.8,49.7,25.5L49.7,25.5z"/>
		<path class="st2" d="M49.6,26.5c0.1-0.1,0.3,0,0.3,0.1c0.1,0.1,0,0.2-0.1,0.3l-1.4,0.5l-0.1-0.1C48.8,27.1,49.2,26.9,49.6,26.5
			L49.6,26.5z"/>
		<path class="st2" d="M49.4,27.5c0.1-0.1,0.2,0,0.3,0.1c0.1,0.1,0,0.2-0.1,0.3l-1.4,0.5l-0.1-0.1C48.6,28.1,49,27.8,49.4,27.5
			L49.4,27.5z"/>
		<path class="st2" d="M49.2,28.3c0.1-0.1,0.3,0,0.3,0.1c0,0.1,0.1,0.1,0.1,0.2c0,0.1,0,0.1-0.1,0.2l-1.6,0.9l-0.1-0.1
			C48.2,29.1,48.8,28.7,49.2,28.3z"/>
		<path class="st2" d="M47.3,16.1c-0.1-0.1-0.1-0.2-0.1-0.4c0,0,0.1-0.1,0.2-0.1c0.1,0,0.1,0,0.2,0l1.3,0.8l-0.1,0.1
			C48.3,16.3,47.8,16.2,47.3,16.1L47.3,16.1z"/>
		<path class="st2" d="M47.5,17.2c-0.1-0.1-0.1-0.2-0.1-0.3c0,0,0-0.1,0-0.1c0,0,0,0,0.1,0c0,0,0.1,0,0.1,0c0,0,0.1,0,0.1,0l1.2,0.9
			l-0.1,0.1C48.5,17.6,48,17.3,47.5,17.2L47.5,17.2z"/>
		<path class="st2" d="M47.6,18.4c0,0-0.1-0.1-0.1-0.1c0-0.1,0-0.1,0-0.2c0,0,0.1-0.1,0.1-0.1c0.1,0,0.1,0,0.2,0L49,19L49,19.1
			C48.5,18.8,48.1,18.6,47.6,18.4L47.6,18.4z"/>
		<path class="st2" d="M47.7,19.7c-0.1-0.1-0.1-0.2-0.1-0.4c0.1,0,0.1-0.1,0.2-0.1c0.1,0,0.1,0,0.2,0.1c0,0,0,0.1,0.1,0.1
			s0,0.1,0,0.1l1,0.8L49,20.5L48,19.7c0,0,0,0,0,0c0,0,0,0-0.1,0C47.8,19.7,47.8,19.7,47.7,19.7C47.8,19.7,47.7,19.7,47.7,19.7
			L47.7,19.7z"/>
		<path class="st2" d="M47.7,20.9c0,0-0.1-0.1-0.1-0.1c0-0.1,0-0.1,0.1-0.1c0,0,0-0.1,0-0.1c0,0,0,0,0.1,0c0,0,0.1,0,0.1,0
			c0,0,0.1,0,0.1,0l1.1,1.1L49,21.8C48.6,21.4,48.2,21.1,47.7,20.9L47.7,20.9z"/>
		<path class="st2" d="M47.7,22c-0.1-0.1-0.1-0.2,0-0.4c0,0,0.1-0.1,0.1-0.1c0.1,0,0.1,0,0.1,0.1l1,1.2l-0.1,0.1
			C48.6,22.5,48.2,22.2,47.7,22z"/>
		<path class="st2" d="M47.7,23c0-0.1-0.1-0.1-0.1-0.2c0-0.1,0-0.1,0.1-0.2c0,0,0.1-0.1,0.1-0.1c0.1,0,0.1,0,0.1,0.1l1,1.2l-0.1,0.1
			C48.5,23.5,48.2,23.1,47.7,23L47.7,23z"/>
		<path class="st2" d="M47.6,24.1c0,0-0.1-0.1-0.1-0.1s0-0.1,0.1-0.1c0.1-0.1,0.2-0.1,0.3,0l0.9,1.2l-0.1,0.1
			C48.4,24.8,48,24.4,47.6,24.1L47.6,24.1z"/>
		<path class="st2" d="M47.4,25.2c0-0.1-0.1-0.1-0.1-0.2s0-0.1,0.1-0.2c0.1-0.1,0.3-0.1,0.4,0.1l0.8,1.3l-0.1,0.1
			C48.1,25.8,47.8,25.4,47.4,25.2L47.4,25.2z"/>
		<path class="st2" d="M46.8,27.5c-0.1-0.1-0.1-0.3,0.1-0.4c0,0,0,0,0.1,0c0,0,0.1,0,0.1,0c0,0,0.1,0,0.1,0c0,0,0,0,0,0.1l0.8,1.3
			l-0.1,0.1C47.5,28.1,47.2,27.8,46.8,27.5L46.8,27.5z"/>
		<path class="st2" d="M46.3,28.5c0-0.1-0.1-0.1,0-0.2c0-0.1,0.1-0.1,0.1-0.2c0.1,0,0.1-0.1,0.2,0c0.1,0,0.1,0.1,0.2,0.1l0.7,1.5
			l-0.1,0.1C47,29.3,46.8,28.8,46.3,28.5L46.3,28.5z"/>
		<path class="st2" d="M47.1,26.2C47,26,47,25.9,47.2,25.8c0.1-0.1,0.2,0,0.3,0.1l0.8,1.5l-0.1,0.1C47.8,27,47.5,26.5,47.1,26.2
			L47.1,26.2z"/>
		<path class="st2" d="M41.4,2.7c4.3,4.3,7,9.4,7.8,15c0.8,5.6-0.4,11.4-3.5,16.5c0,0,0,0.1-0.1,0.1c0,0-0.1,0-0.1,0
			c0,0-0.1,0-0.1,0c0,0-0.1,0-0.1,0c0,0-0.1,0-0.1,0c0,0,0,0,0-0.1c0,0,0-0.1,0-0.1c0,0,0-0.1,0-0.1c3-5.1,4.2-10.6,3.4-16.2
			C47.8,12.2,45.1,7,41.1,3.1c-0.1-0.1-0.1-0.2,0-0.4c0,0,0.1-0.1,0.1-0.1S41.3,2.7,41.4,2.7L41.4,2.7z"/>
		<path class="st3" d="M16.5,39.8h1.3c-4.3-1.8-7.9-5-10.1-9.2c-2.2-4.2-3-9-2.1-13.6s3.4-8.8,7-11.8c3.6-3,8.1-4.6,12.8-4.6l0,0
			c5.3,0,10.5,2.2,14.2,6c3.8,3.8,5.9,9,5.9,14.4l0,0c0,4-1.2,8-3.4,11.4c-2.2,3.4-5.4,6-9.1,7.5h1.3c2.1-1,4-2.4,5.7-4.1
			c1.9-1.9,3.5-4.2,4.5-6.8c1-2.5,1.6-5.3,1.6-8l0,0c0-5.5-2.2-10.9-6.1-14.8C36.2,2.2,30.9,0,25.4,0l0,0c-4.7,0-9.2,1.6-12.9,4.6
			c-3.7,3-6.2,7.1-7.3,11.7c-1,4.6-0.5,9.5,1.6,13.7C8.8,34.3,12.3,37.7,16.5,39.8L16.5,39.8z"/>
		<path class="st3" d="M46.2,31.6l-1-3c-1.8,4.8-5.2,8.7-9.6,11.2v4.9h-0.5v0.9c3.8-1.5,7.2-3.9,9.9-7c2.7-3.1,4.7-6.8,5.7-10.8
			L46.2,31.6z"/>
		<path class="st3" d="M15.1,44.7v-5h0.1c-4.4-2.4-8-6.2-9.7-11l-0.9,2.8L0,27.8c1,4,3,7.7,5.7,10.8c2.7,3.1,6.1,5.5,9.9,7v-0.9
			H15.1z"/>
		<path class="st3" d="M35.8,44.8H15.1v-5.1h20.7V44.8z M15.3,44.6h20.3v-4.8H15.2L15.3,44.6z"/>
		<path class="st4" d="M25.4,44.1c-0.4,0-0.7-0.1-1-0.3c-0.3-0.2-0.5-0.5-0.7-0.8c-0.1-0.3-0.2-0.7-0.1-1c0.1-0.4,0.2-0.7,0.5-0.9
			s0.6-0.4,0.9-0.5c0.3-0.1,0.7,0,1,0.1c0.3,0.1,0.6,0.4,0.8,0.7c0.2,0.3,0.3,0.6,0.3,1c0,0.5-0.2,0.9-0.5,1.3
			C26.3,43.9,25.9,44.1,25.4,44.1z M25.4,40.7c-0.3,0-0.6,0.1-0.9,0.3c-0.3,0.2-0.4,0.4-0.6,0.7c-0.1,0.3-0.1,0.6-0.1,0.9
			c0.1,0.3,0.2,0.6,0.4,0.8c0.2,0.2,0.5,0.4,0.8,0.4c0.3,0.1,0.6,0,0.9-0.1c0.3-0.1,0.5-0.3,0.7-0.6c0.2-0.3,0.3-0.6,0.3-0.9
			c0-0.4-0.2-0.8-0.5-1.1C26.2,40.9,25.8,40.7,25.4,40.7L25.4,40.7z"/>
		<path class="st4" d="M30.6,44.1c-0.4,0-0.7-0.1-1-0.3c-0.3-0.2-0.5-0.5-0.7-0.8c-0.1-0.3-0.2-0.7-0.1-1c0.1-0.4,0.2-0.7,0.5-0.9
			s0.6-0.4,0.9-0.5c0.3-0.1,0.7,0,1,0.1c0.3,0.1,0.6,0.4,0.8,0.7c0.2,0.3,0.3,0.6,0.3,1c0,0.5-0.2,0.9-0.5,1.3
			C31.5,43.9,31.1,44.1,30.6,44.1L30.6,44.1z M30.6,40.7c-0.3,0-0.6,0.1-0.9,0.3c-0.3,0.2-0.5,0.4-0.6,0.7c-0.1,0.3-0.1,0.6-0.1,0.9
			c0.1,0.3,0.2,0.6,0.4,0.8c0.2,0.2,0.5,0.4,0.8,0.4c0.3,0.1,0.6,0,0.9-0.1c0.3-0.1,0.5-0.3,0.7-0.6c0.2-0.3,0.3-0.6,0.3-0.9
			c0-0.4-0.2-0.8-0.5-1.1C31.4,40.9,31,40.7,30.6,40.7L30.6,40.7z"/>
		<path class="st4" d="M28,44.1c-0.4,0-0.7-0.1-1-0.3c-0.3-0.2-0.5-0.5-0.7-0.8c-0.1-0.3-0.2-0.7-0.1-1c0.1-0.4,0.2-0.7,0.5-0.9
			s0.6-0.4,0.9-0.5c0.3-0.1,0.7,0,1,0.1c0.3,0.1,0.6,0.4,0.8,0.7c0.2,0.3,0.3,0.6,0.3,1c0,0.5-0.2,0.9-0.5,1.3
			C28.9,43.9,28.5,44.1,28,44.1L28,44.1z M28,40.7c-0.3,0-0.6,0.1-0.9,0.3c-0.3,0.2-0.5,0.4-0.6,0.7c-0.1,0.3-0.1,0.6-0.1,0.9
			c0.1,0.3,0.2,0.6,0.4,0.8c0.2,0.2,0.5,0.4,0.8,0.4c0.3,0.1,0.6,0,0.9-0.1s0.5-0.3,0.7-0.6c0.2-0.3,0.3-0.6,0.3-0.9
			c0-0.4-0.2-0.8-0.5-1.1C28.8,40.9,28.4,40.7,28,40.7L28,40.7z"/>
		<path class="st4" d="M22.8,44.1c-0.4,0-0.7-0.1-1-0.3c-0.3-0.2-0.5-0.5-0.7-0.8c-0.1-0.3-0.2-0.7-0.1-1c0.1-0.4,0.2-0.7,0.5-0.9
			s0.6-0.4,0.9-0.5c0.3-0.1,0.7,0,1,0.1c0.3,0.1,0.6,0.4,0.8,0.7c0.2,0.3,0.3,0.6,0.3,1c0,0.5-0.2,0.9-0.5,1.3
			C23.7,43.9,23.3,44.1,22.8,44.1L22.8,44.1z M22.8,40.7c-0.3,0-0.6,0.1-0.9,0.3c-0.3,0.2-0.5,0.4-0.6,0.7c-0.1,0.3-0.1,0.6-0.1,0.9
			c0.1,0.3,0.2,0.6,0.4,0.8c0.2,0.2,0.5,0.4,0.8,0.4c0.3,0.1,0.6,0,0.9-0.1s0.5-0.3,0.7-0.6c0.2-0.3,0.3-0.6,0.3-0.9
			c0-0.4-0.2-0.8-0.5-1.1C23.6,40.9,23.2,40.7,22.8,40.7L22.8,40.7z"/>
		<path class="st4" d="M20.2,44.1c-0.4,0-0.7-0.1-1-0.3c-0.3-0.2-0.5-0.5-0.7-0.8c-0.1-0.3-0.2-0.7-0.1-1c0.1-0.4,0.2-0.7,0.5-0.9
			s0.6-0.4,0.9-0.5c0.3-0.1,0.7,0,1,0.1c0.3,0.1,0.6,0.4,0.8,0.7c0.2,0.3,0.3,0.6,0.3,1c0,0.5-0.2,0.9-0.5,1.3
			C21.1,43.9,20.7,44.1,20.2,44.1L20.2,44.1z M20.2,40.7c-0.3,0-0.6,0.1-0.9,0.3c-0.3,0.2-0.4,0.4-0.6,0.7c-0.1,0.3-0.1,0.6-0.1,0.9
			c0.1,0.3,0.2,0.6,0.4,0.8c0.2,0.2,0.5,0.4,0.8,0.4c0.3,0.1,0.6,0,0.9-0.1s0.5-0.3,0.7-0.6c0.2-0.3,0.3-0.6,0.3-0.9
			c0-0.4-0.2-0.8-0.5-1.1C21,40.9,20.6,40.7,20.2,40.7L20.2,40.7z"/>
		<path class="st4" d="M17.6,44.1c-0.4,0-0.7-0.1-1-0.3c-0.3-0.2-0.5-0.5-0.7-0.8c-0.1-0.3-0.2-0.7-0.1-1c0.1-0.4,0.2-0.7,0.5-0.9
			s0.6-0.4,0.9-0.5c0.3-0.1,0.7,0,1,0.1c0.3,0.1,0.6,0.4,0.8,0.7c0.2,0.3,0.3,0.6,0.3,1c0,0.5-0.2,0.9-0.5,1.3
			C18.5,43.9,18.1,44.1,17.6,44.1L17.6,44.1z M17.6,40.7c-0.3,0-0.6,0.1-0.9,0.3c-0.3,0.2-0.5,0.4-0.6,0.7c-0.1,0.3-0.1,0.6-0.1,0.9
			c0.1,0.3,0.2,0.6,0.4,0.8c0.2,0.2,0.5,0.4,0.8,0.4c0.3,0.1,0.6,0,0.9-0.1c0.3-0.1,0.5-0.3,0.7-0.6c0.2-0.3,0.3-0.6,0.3-0.9
			c0-0.4-0.2-0.8-0.5-1.1C18.4,40.9,18,40.7,17.6,40.7L17.6,40.7z"/>
		<path class="st4" d="M33.2,44.1c-0.4,0-0.7-0.1-1-0.3c-0.3-0.2-0.5-0.5-0.7-0.8c-0.1-0.3-0.2-0.7-0.1-1c0.1-0.4,0.2-0.7,0.5-0.9
			s0.6-0.4,0.9-0.5c0.3-0.1,0.7,0,1,0.1c0.3,0.1,0.6,0.4,0.8,0.7c0.2,0.3,0.3,0.6,0.3,1c0,0.5-0.2,0.9-0.5,1.3
			C34.2,43.9,33.7,44.1,33.2,44.1z M33.2,40.7c-0.3,0-0.6,0.1-0.9,0.3c-0.3,0.2-0.4,0.4-0.6,0.7c-0.1,0.3-0.1,0.6-0.1,0.9
			s0.2,0.6,0.4,0.8c0.2,0.2,0.5,0.4,0.8,0.4c0.3,0.1,0.6,0,0.9-0.1s0.5-0.3,0.7-0.6c0.2-0.3,0.3-0.6,0.3-0.9c0-0.4-0.2-0.8-0.5-1.1
			C34,40.9,33.6,40.7,33.2,40.7L33.2,40.7z"/>
		<path class="st4" d="M35.3,27.6c0-0.2,0-0.4,0-0.5L35.3,27.6L35.3,27.6z"/>
		<path class="st5" d="M36.7,32.3c-0.1,0.2,0.3,0.7,0.7,0.8c0.2,0,0.3,0,0.5-0.1c0.2-0.1,0.3-0.2,0.4-0.3c0.3-0.4,0.5-0.9,0.6-1.4
			h-2.1C36.7,31.6,36.8,31.9,36.7,32.3z"/>
		<path class="st6" d="M39.9,28.7c-0.1-0.5-0.1-1-0.4-1.4c-0.1-0.2-0.3-0.2-0.3-0.1c-0.1,0.4-0.5,0.5-0.6,0.9
			c-0.1,0.2-0.2,0.5-0.5,0.6c-0.2,0.2-0.4,0.3-0.7,0.3c-0.4,0.1-0.8,0.6-0.6,0.9C37,30,37,30.1,37,30.2c0,0.1,0,0.3-0.1,0.4
			c0,0.1-0.1,0.1-0.1,0.2H39c0.2-0.7,0.3-1.5,0.9-2.1C39.9,28.8,39.9,28.8,39.9,28.7C39.9,28.7,39.9,28.7,39.9,28.7z"/>
		<path class="st5" d="M32.2,28c-0.1,0-0.3,0-0.4-0.1c-0.1-0.1-0.2-0.1-0.3-0.3c-0.1-0.1-0.1-0.3-0.1-0.4s0-0.3,0.1-0.4l0.1-0.2
			c0.1-0.2,0.2-0.4,0.2-0.6c0.1-0.2,0.1-0.5,0.1-0.7c-0.1-0.2-0.2-0.4-0.4-0.6c-0.3-0.2-0.6-0.3-1-0.4c-0.4,0-0.7,0-1.1,0.2
			c-0.2,0.1-0.4,0.2-0.5,0.4c-0.1,0.2-0.2,0.4-0.2,0.6c0,0.4,0.1,0.9,0.4,1.3c0.1,0.1,0.1,0.3,0.1,0.4c0,0.1,0,0.3-0.1,0.4
			c-0.1,0.1-0.2,0.2-0.3,0.3C28.6,28,28.5,28,28.4,28h-2.9h-1.7c-0.2,0.3,0,0.7-0.1,1.1c0,0.2,0.2,0.6-0.3,0.6c0,0,0,0.1,0,0.2
			c0,0.2,0.1,0.4,0.2,0.5c0.7,0.9,1,1.9,1.1,3c0,0.5,0.2,1,0.6,1.3c0.3,0.5,0.6,1,0.7,1.5c0,0,0,0.1,0,0.1c0,0,0,0.1-0.1,0.1
			c-0.2,0.2,0,0.3,0,0.5c0.3,0.5,0.7,0.6,1.3,0.3c0.2-0.1,0.5-0.2,0.8-0.2c0.3,0,0.6,0,0.9-0.1c0.3-0.1,0.6-0.2,0.8-0.4
			c0.8-0.6,1.4-1.3,1.9-2.1c0.2-0.2,0.4-0.6,0.2-0.9c-0.1-0.1,0-0.2,0.1-0.2c0.2-0.1,0.3-0.2,0.5-0.3c0.5-0.2,0.6-0.4,0.6-0.9
			c0-0.3-0.1-0.6-0.2-0.8c-0.1-0.1-0.1-0.3,0-0.4c0-0.1,0.1-0.2,0.2-0.3c0.5-0.4,1-0.8,1.6-1.1c0.7-0.4,0.7-0.9,0.7-1.5h-0.5
			C34,28,33,28,32.2,28z"/>
		<path class="st7" d="M23.4,23.5c0-0.1,0-0.3,0.1-0.4c0.1-0.1,0.2-0.2,0.3-0.3c0.1-0.1,0.3-0.1,0.4-0.1c0.1,0,0.3,0,0.4,0.1
			l0.7,0.2l0.3,0.1c0.2,0,0.4,0,0.6,0c0.3-0.1,0.6-0.2,0.8-0.5c0.2-0.3,0.3-0.6,0.2-0.9c0-0.4-0.1-1.3-1.1-1.4h0
			c-0.2,0-0.3-0.1-0.4,0l-0.1,0l-0.9,0.3c-0.2,0.1-0.3,0.1-0.5,0.1h0h0c-0.2,0-0.4-0.1-0.6-0.3c-0.1-0.2-0.2-0.4-0.2-0.6
			c0-1.1,0-2.3,0-3.5c0-0.1,0-0.1,0-0.2v-0.1H23h-2.3h-1.8c-0.2,0.1-0.2,0.2-0.1,0.4c0.1,0.1,0.1,0.2,0.1,0.3
			c0.1,0.2,0.2,0.4,0.2,0.6l0.1,0.4v0c0,0.1,0,0.2,0,0.4V18l0,0.1c0,0,0,0.1-0.1,0.1c-0.1,0.3-0.2,0.5-0.4,0.7
			c-0.4,0.3-1,0.5-1.5,0.6c-0.6,0-1.1-0.2-1.6-0.5c-0.2-0.2-0.4-0.5-0.5-0.8c-0.2-0.6,0.1-1.2,0.3-1.7l0-0.1
			c0.1-0.3,0.1-0.4,0.1-0.5c0,0-0.1-0.1-0.5-0.1h-2.3h-1.3c0.1,0.3,0.1,0.5,0.1,0.8c0,0.2,0.1,0.2,0.2,0.3c0.5,0.4,1,0.8,1.2,1.3
			c0.1,0.3,0.3,0.6,0.5,0.8c0.4,0.3,0.8,0.6,1.2,0.9c0.1,0.1,0.3,0.2,0.5,0.2c0.2,0,0.4,0,0.6-0.1c0.2-0.1,0.5-0.2,0.7-0.2
			c0.3,0,0.5,0,0.8,0.1c0.1,0,0.3,0.1,0.4,0.1c0.1,0,0.3-0.1,0.4-0.1c0.5-0.3,1.1-0.4,1.6-0.5c0.6,0,0.8,0.1,1,0.6
			c0,0.1,0,0.1,0.1,0.1c0,0,0.1,0.1,0.1,0.1c0,0,0.1,0,0.2,0c0.1,0,0.1,0,0.2,0c0.1,0,0.3,0,0.4-0.1c0.5-0.1,1,0.3,0.9,0.7
			c0,0.4-0.1,0.8-0.2,1.2c-0.1,0.1-0.1,0.3-0.1,0.4c0,0.2,0.1,0.3,0.2,0.4c0.2,0.2,0.3,0.5,0.5,0.7c0.2,0.2,0.3,0.3,0.4,0.5
			c0-0.1,0-0.3,0-0.4C23.4,23.7,23.4,23.6,23.4,23.5z"/>
		<path class="st8" d="M23.4,24.4l-0.1-0.1c-0.1-0.1-0.1-0.2-0.2-0.2c-0.1-0.1-0.2-0.2-0.2-0.3c-0.1-0.2-0.3-0.4-0.4-0.6l-0.1-0.1
			c-0.1-0.1-0.2-0.3-0.2-0.4c0-0.2,0-0.3,0.1-0.5c0.2-0.4,0.2-0.8,0.2-1.2c0-0.1,0-0.2,0-0.3c0-0.1-0.1-0.2-0.2-0.2
			c-0.1-0.1-0.2-0.1-0.3-0.2c-0.1,0-0.2,0-0.3,0h-0.1c-0.1,0-0.2,0-0.3,0c-0.1,0-0.1,0-0.2,0c-0.1,0-0.1,0-0.2-0.1
			c-0.1,0-0.1-0.1-0.1-0.1c0,0-0.1-0.1-0.1-0.2c-0.2-0.5-0.4-0.6-1-0.6c-0.5,0.1-1,0.2-1.4,0.4l-0.2,0.1c-0.1,0.1-0.3,0.1-0.4,0.1
			c-0.1,0-0.3,0-0.4-0.1c-0.5-0.2-1-0.1-1.4,0.1c-0.2,0.1-0.4,0.1-0.6,0.1c-0.2,0-0.4-0.1-0.6-0.2L14,19.6l-0.6-0.4
			c-0.3-0.2-0.5-0.5-0.6-0.8c-0.2-0.6-0.7-0.9-1.1-1.3l-0.1,0c-0.1-0.1-0.2-0.2-0.2-0.3c0-0.2,0-0.5,0-0.7l0-0.2h1.4H15
			c0.4,0,0.5,0.1,0.5,0.1c0,0.1,0.1,0.2-0.1,0.5l0,0.1c-0.2,0.5-0.5,1-0.3,1.6c0.1,0.3,0.3,0.5,0.5,0.7c0.4,0.3,1,0.5,1.5,0.5
			c0.5,0,1.1-0.2,1.5-0.5c0.2-0.2,0.3-0.4,0.4-0.7c0-0.1,0-0.1,0.1-0.1v0v0c0-0.1,0-0.3,0-0.4v0L19,17.2c0-0.2-0.1-0.4-0.2-0.6
			c-0.1-0.1-0.1-0.2-0.1-0.3c-0.1-0.2-0.1-0.4,0.1-0.5h1.8H23h0.4V16c0,0.1,0,0.1,0,0.2c0,1.3,0,2.4,0,3.5c0,0.1,0,0.2,0,0.3
			c0,0.1,0.1,0.2,0.1,0.3c0.1,0.1,0.1,0.2,0.2,0.2c0.1,0.1,0.2,0.1,0.3,0.1h0h0c0.2,0,0.3-0.1,0.5-0.1l0,0l0.9-0.3l0.1,0
			c0.1-0.1,0.3-0.1,0.4,0h0.1c1.1,0.1,1.2,1,1.2,1.4c0,0.3-0.1,0.6-0.3,0.9c-0.2,0.3-0.5,0.4-0.8,0.5c-0.2,0-0.4,0-0.6,0L25.3,23
			l-0.7-0.2c-0.1-0.1-0.3-0.1-0.4-0.1c-0.1,0-0.3,0-0.4,0.1c-0.1,0.1-0.2,0.2-0.3,0.3c-0.1,0.1-0.1,0.3-0.1,0.4c0,0.1,0,0.2,0,0.3
			c0,0.1,0,0.3,0,0.4L23.4,24.4z"/>
		<path class="st3" d="M15,15.4c0.2,0,0.3,0,0.5,0c0.2,0.1,0.3,0.1,0.4,0.3C16,15.9,16,16,16,16.2c0,0.2-0.1,0.3-0.1,0.4l0,0.1
			c-0.2,0.5-0.4,0.9-0.3,1.4c0.1,0.2,0.2,0.4,0.4,0.6c0.4,0.2,0.8,0.4,1.2,0.4c0.4,0,0.9-0.2,1.2-0.4c0.1-0.1,0.2-0.3,0.3-0.5
			c0,0,0-0.1,0-0.1c0-0.1,0-0.3,0-0.4l-0.1-0.3c0-0.2-0.1-0.3-0.2-0.5c-0.1-0.1-0.1-0.2-0.2-0.3c-0.1-0.1-0.1-0.2-0.1-0.3
			c0-0.1,0-0.2,0.1-0.3c0-0.1,0.1-0.2,0.2-0.2c0.1-0.1,0.2-0.1,0.3-0.1h0h1.9H23h0.3c0,0,0,0,0,0c0-0.5,0-1.2,0.1-1.8
			c0-0.8,0.1-1.5,0.1-2.2c0-0.4-0.1-0.5-0.1-0.5c0,0-0.1,0-0.5,0.1c-0.2,0.1-0.4,0.2-0.6,0.2l-0.3,0.1c-0.3,0.1-0.5,0.1-0.8,0
			c-0.4-0.1-0.7-0.2-1-0.5c-0.3-0.3-0.4-0.7-0.4-1c-0.1-0.5,0-1.1,0.4-1.5c0.2-0.2,0.5-0.4,0.8-0.5c0.3-0.1,0.6-0.1,0.9-0.1
			c0.4,0.1,0.8,0.2,1.1,0.4c0.1,0,0.1,0,0.2,0.1c0.1,0,0.1,0,0.2,0c0.1-0.1,0.2-0.1,0.3-0.3c-0.3-0.1-0.5-0.3-0.8-0.4
			c0,0-0.1-0.1,0-0.1c0.1,0,0.1-0.1,0.2-0.2c0-0.1,0.1-0.2,0.1-0.2c0-0.1,0-0.2,0-0.3c0-0.1-0.1-0.2-0.1-0.2c0,0,0-0.1,0.1-0.1
			c0,0,0.1-0.1,0-0.1c-0.2-0.1-0.4-0.3-0.7-0.1C22.1,6,21.9,6,21.8,6c-0.6-0.1-1.2,0.1-1.8,0.1c-0.6,0-1.1,0.2-1.6,0.5
			c-0.3,0.2-0.6,0.3-0.9,0.4c-0.3,0.1-0.7,0-1-0.1c-0.2-0.1-0.3,0-0.4,0.1c-0.1,0.2-0.3,0.4-0.5,0.4c-0.3,0.1-0.6,0.3-0.7,0.5
			c-0.2,0.3-0.2,0.6-0.2,0.9c0,0.1,0,0.1,0,0.2c0,0,0,0.1-0.1,0.1c-0.2,0.3-0.5,0.5-0.8,0.7c-0.3,0.1-0.6,0.4-0.9,0.7
			c-0.4,0.5-0.6,1-1,1.5c-0.3,0.4-0.7,0.8-0.2,1.3c0,0,0,0,0,0.1c0.1,0.7,0,1.5-0.3,2.1h1.2L15,15.4z"/>
		<path class="st9" d="M23.4,8.5c-0.1,0-0.3,0.1-0.4,0.1c-0.1,0-0.3,0-0.4-0.1c-0.3-0.1-0.7-0.2-1-0.3c-0.2,0-0.4,0-0.7,0.1
			c-0.2,0.1-0.4,0.2-0.5,0.4c-0.3,0.4-0.3,0.8-0.3,1.2c0,0.2,0.1,0.4,0.2,0.5c0.1,0.2,0.2,0.3,0.4,0.4c0.1,0.1,0.3,0.2,0.5,0.2
			c0.2,0,0.4,0,0.5,0c0.1,0,0.2-0.1,0.3-0.1c0.2-0.1,0.4-0.1,0.6-0.2c0.1-0.1,0.3-0.1,0.5-0.1c0.2,0,0.3,0,0.5,0.1
			c0.3,0.2,0.3,0.5,0.3,0.9c0,0.7,0,1.4-0.1,2.2c0,0.6-0.1,1.2-0.1,1.8c0,0,0,0.1,0,0.1l0,0c0.1,0,0.1,0,0.2,0c0.6,0,1.3,0,1.9-0.1
			c0.8,0,1.5-0.1,2.3-0.1h0.3c0.3-0.1,0.3-0.2,0.2-0.4c-0.1-0.2-0.1-0.4-0.2-0.7c0-0.1-0.1-0.3-0.1-0.4c-0.1-0.3-0.1-0.5-0.1-0.8
			c0-0.3,0.1-0.5,0.3-0.8c0.2-0.2,0.4-0.4,0.7-0.5c0.3-0.1,0.5-0.2,0.8-0.2c0.3-0.1,0.7,0,1,0.1c0.3,0.1,0.6,0.3,0.9,0.5
			c0.2,0.2,0.3,0.5,0.4,0.8c0.1,0.3,0,0.6-0.1,0.9c-0.1,0.2-0.2,0.4-0.2,0.6c0,0.1-0.1,0.1-0.1,0.2c0,0.1,0,0.1,0,0.2
			c0,0.1,0,0.1,0,0.2c0,0,0.1,0.1,0.1,0.1c0,0,0.1,0,0.2,0c0.7,0,1.8,0,2.7,0c-0.1-0.1-0.2-0.2-0.2-0.4c-0.1-0.3-0.2-0.6-0.5-0.8
			C34,14,34,13.9,33.9,13.8c-0.1-0.1-0.1-0.3-0.1-0.4c0-0.2,0-0.4-0.1-0.6c-0.1-0.2-0.2-0.4-0.4-0.5c-0.1,0-0.1-0.1-0.2-0.2
			c0-0.1-0.1-0.1-0.1-0.2c-0.1-0.2-0.1-0.4-0.3-0.6l-0.9-1.5c0-0.1-0.1-0.3-0.2-0.4c0.1,0.1,0.1,0.3,0.2,0.3c0,0,0.1,0.1,0.1,0.1
			c0,0,0.2,0.2,0.3,0.2c0.1,0,0.1-0.2,0.1-0.3c0-0.1,0.1-0.3,0-0.5c0-0.2-0.1-0.3-0.1-0.4c0-0.1-0.1-0.2-0.3-0.2
			c-0.3,0-0.6,0-0.8-0.1c-0.1,0-0.3-0.1-0.4,0c-0.1,0-0.3,0.1-0.4,0.1c-0.2,0.1-0.4,0.1-0.6,0.1c-0.8-0.1-1.6-0.4-2.3-0.7
			c-0.1-0.1-0.3-0.1-0.5-0.1c-0.2,0-0.3,0.1-0.4,0.1c-0.2,0.1-0.2,0.3-0.2,0.6c0,0.1,0,0.1,0,0.2c0,0.1-0.1,0.1-0.1,0.1
			c-0.1,0-0.1,0.1-0.2,0.1c-0.1,0-0.2,0-0.2-0.1c-0.3-0.2-0.6-0.3-0.9-0.4c-0.1,0-0.1,0-0.2-0.1s-0.1-0.1-0.1-0.1
			C24.8,8.1,24.6,8,24.5,8c-0.1-0.1-0.3-0.1-0.4-0.1C23.9,8.1,23.7,8.3,23.4,8.5L23.4,8.5z"/>
		<path class="st10" d="M28.4,27.6c0.1,0,0.1,0,0.2,0c0.1,0,0.1-0.1,0.2-0.1c0-0.1,0-0.1,0-0.2s0-0.1,0-0.2
			c-0.2-0.4-0.4-0.9-0.4-1.5c0-0.3,0.1-0.6,0.2-0.8c0.2-0.2,0.4-0.4,0.6-0.5c0.4-0.2,0.9-0.3,1.3-0.2c0.5,0,0.9,0.2,1.3,0.5
			c0.2,0.2,0.4,0.5,0.5,0.8c0.1,0.3,0.1,0.6-0.1,0.9c-0.1,0.2-0.2,0.5-0.3,0.7l-0.1,0.2c0,0.1-0.1,0.1-0.1,0.2c0,0.1,0,0.1,0,0.2
			c0,0,0.1,0.1,0.2,0.1c0.1,0,0.1,0,0.2,0c0.8,0,1.8,0,2.6,0h0.5V27c0-0.2-0.1-0.4-0.3-0.5c-0.1-0.1-0.1-0.2-0.1-0.4
			c-0.1-0.4,0.1-0.9-0.2-1.2c0,0,0-0.1,0-0.2c0.1-0.4,0.3-0.7,0.5-1.1l0-0.1c0,0,0.1-0.1,0.1-0.1c0.7-0.9,1.5-1.7,2.3-2.4
			c1.2-0.8,1.5-2.2,2-3.4c0-0.1,0.1-0.2,0.1-0.4c0-0.2-0.1-0.4-0.3-0.2c-0.7,0.3-1.5,0.4-2.2,0.6c-0.1,0-0.2,0-0.2,0
			c-0.1,0-0.1-0.1-0.2-0.1c-0.1-0.2-0.6-0.3-0.3-0.7c0,0,0-0.1-0.1-0.2c-0.3-0.3-0.6-0.7-1-0.9h-0.3c-0.9,0-2.2,0-3,0
			c-0.1,0-0.3,0-0.4-0.1c-0.1-0.1-0.2-0.1-0.3-0.2c-0.1-0.1-0.1-0.2-0.1-0.4c0-0.1,0-0.3,0.1-0.4l0.1-0.2c0.1-0.2,0.2-0.4,0.2-0.5
			c0.1-0.2,0.1-0.4,0.1-0.7c0-0.2-0.1-0.4-0.3-0.6c-0.2-0.2-0.4-0.3-0.7-0.4c-0.3-0.1-0.5-0.1-0.8-0.1c-0.2,0-0.4,0.1-0.6,0.2
			c-0.2,0.1-0.4,0.2-0.5,0.4c-0.1,0.2-0.2,0.4-0.2,0.6c0,0.2,0,0.4,0.1,0.6c0,0.1,0.1,0.2,0.1,0.4c0.1,0.2,0.1,0.5,0.2,0.6
			c0.2,0.5,0,0.8-0.5,1h0h-0.4c-0.8,0-1.6,0-2.3,0.1c-0.6,0-1.2,0.1-1.9,0.1h-0.1v0.2c0,1.3,0,2.4,0,3.5c0,0.4,0.1,0.5,0.4,0.5
			c0.1,0,0.2,0,0.3-0.1l0.1,0l0.9-0.3c0.2-0.1,0.5-0.1,0.7-0.1c1,0.1,1.6,0.8,1.6,1.8c0,0.4-0.1,0.8-0.4,1.1c-0.2,0.3-0.6,0.6-1,0.6
			c-0.3,0.1-0.6,0.1-0.8,0h0l-0.3-0.1l-0.7-0.2c-0.1,0-0.1,0-0.2,0c-0.1,0-0.1,0-0.2,0c-0.1,0-0.1,0.1-0.1,0.2c0,0.1,0,0.1,0,0.2
			c0,0.1,0,0.2,0,0.3c0,0.4,0,0.8-0.1,1.2h0c0.1,0.2,0.2,0.4,0.2,0.6c0.1,0.1,0.2,0.2,0.1,0.4c-0.2,0.2-0.1,0.5,0.1,0.7
			c0.2,0.4,0.4,0.6,0.1,0.9C25.5,27.6,27,27.6,28.4,27.6z"/>
		<path class="st4" d="M43.3,44.3H43v-0.1h0.6v0.1h-0.2V45h-0.1V44.3z"/>
		<path class="st4" d="M44.4,44.6c0-0.1,0-0.2,0-0.3C44.3,44.4,44.3,44.5,44.4,44.6l-0.2,0.3H44l-0.1-0.4c0-0.1-0.1-0.2-0.1-0.3
			c0,0.1,0,0.2,0,0.3l0,0.3h-0.1l0.1-0.8h0.1l0.1,0.4c0,0.1,0.1,0.2,0.1,0.3l0,0c0-0.1,0-0.2,0.1-0.3l0.1-0.4h0.1l0.1,0.8h-0.1V44.6
			z"/>
		<path class="st4" d="M43.8,45.7c-0.2,0-0.4-0.1-0.6-0.2c-0.2-0.1-0.3-0.3-0.4-0.5c-0.1-0.2-0.1-0.4-0.1-0.6s0.1-0.4,0.3-0.6
			c0.2-0.2,0.4-0.3,0.6-0.3c0.2,0,0.4,0,0.6,0.1c0.2,0.1,0.4,0.2,0.5,0.4c0.1,0.2,0.2,0.4,0.2,0.6c0,0.1,0,0.3-0.1,0.4
			c-0.1,0.1-0.1,0.3-0.2,0.4c-0.1,0.1-0.2,0.2-0.4,0.2C44.1,45.7,43.9,45.7,43.8,45.7L43.8,45.7z M43.8,43.6c-0.2,0-0.4,0.1-0.6,0.2
			c-0.2,0.1-0.3,0.3-0.4,0.5c-0.1,0.2-0.1,0.4-0.1,0.6c0,0.2,0.1,0.4,0.3,0.5c0.1,0.1,0.3,0.2,0.5,0.3c0.2,0,0.4,0,0.6-0.1
			c0.2-0.1,0.3-0.2,0.5-0.4c0.1-0.2,0.2-0.4,0.2-0.6c0-0.3-0.1-0.5-0.3-0.7C44.3,43.7,44.1,43.6,43.8,43.6L43.8,43.6z"/>
	</g>
</g>
</svg>
