<svg xmlns="http://www.w3.org/2000/svg" viewBox="0 0 65.09 69.58"><defs><style>.cls-1{fill:#3b1c69;}</style></defs><g id="Layer_2" data-name="Layer 2"><g id="Vector_lockup" data-name="Vector lockup"><path class="cls-1" d="M29.12,20.84l-25.49,1V20.69c0-.57.42-1,1.09-1s22.71-1.81,22.71-1.81S29.14,1.6,29.21,1a1,1,0,0,1,1-1h1.09l-.95,19.57A1.38,1.38,0,0,1,29.12,20.84ZM20.52,3.19h-.75a1,1,0,0,0-1,.86l-.9,4.28s-6.3.74-6.93.91-1,.51-1,1V11l10.1-.45Zm5.41-1.6H24.81c-.62,0-.93.48-1,1s-1.35,10.26-1.35,10.26S8.71,14.18,7.91,14.27s-1.1.54-1.1,1.05V16.4l18.27-.88Z"/><path class="cls-1" d="M61.46,35.59v1.12a1,1,0,0,1-1.09,1L37.74,39.54s-1.81,28.43-1.86,29a1,1,0,0,1-1,1H33.75l1-31.75A1.32,1.32,0,0,1,36,36.57ZM44.57,60h.75a1,1,0,0,0,1-.86l1-10.09s4.64-.74,5.26-.91,1-.51,1-1v-.75l-8.43.46Zm-5.41,6.37h1.09a1.05,1.05,0,0,0,1-1c.05-.54,1.43-20.83,1.43-20.83l13.6-1.38c.8-.09,1.16-.44,1.16-1.06V41l-17.39.89Z"/><path class="cls-1" d="M47.92,10.54H34.27l.06-1.17a1.1,1.1,0,0,1,1.12-1.08l13.18.9v.63A.72.72,0,0,1,47.92,10.54ZM52.86,15v-.63l-17.67-.89a1.09,1.09,0,0,0-1.12,1.07L34,15.76H52.15A.71.71,0,0,0,52.86,15Zm4.23,5.23v-.63l-22.16-.9a1.1,1.1,0,0,0-1.12,1.08L33.75,21H56.38A.71.71,0,0,0,57.09,20.27Z"/><path class="cls-1" d="M21.92,41.64h9.16L31,42.81a1.06,1.06,0,0,1-1.11,1.07L21.21,43v-.63A.71.71,0,0,1,21.92,41.64Zm-5-4.5v.62l13.19.9a1.08,1.08,0,0,0,1.12-1.08l.06-1.16H17.69A.72.72,0,0,0,17,37.14Z"/><path class="cls-1" d="M3.61,30.36H1.89l-.23.84a.72.72,0,0,1-.69.52H0l1.76-5.54a.71.71,0,0,1,.68-.5H3.62l2,6H4ZM2.16,29.17H3.34l-.58-2Zm8.71-3.49-.16,1.26H8.39v1.28h2.13l-.15,1.23h-2V31a.72.72,0,0,1-.72.72H6.8V26.4a.72.72,0,0,1,.72-.72Zm5.87,2a2.94,2.94,0,0,1,0,.62,1.54,1.54,0,0,1-.19.47,1.38,1.38,0,0,1-.32.36,2.44,2.44,0,0,1-.45.27L17,31.72H15.31l-1.05-2.09h-.53V31a.72.72,0,0,1-.72.72H12.2v-6h2.63a2.42,2.42,0,0,1,.9.15,1.58,1.58,0,0,1,.59.4,1.48,1.48,0,0,1,.32.59,2.37,2.37,0,0,1,.1.72Zm-3,.67h.81a.69.69,0,0,0,.51-.17.65.65,0,0,0,.18-.5v-.13c0-.44-.23-.65-.69-.65h-.81Zm8.74-2.71-.15,1.23h-2.5v1.15h2.4l-.15,1.23H19.82v1.2h2.65l-.07.6a.72.72,0,0,1-.72.63H18.26V26.4a.72.72,0,0,1,.72-.72Zm5.13,2.88,1.77-2.88H28.15a.87.87,0,0,0-.76.45l-3.67,5.59h1.35a.71.71,0,0,0,.62-.35l.95-1.6,1.13,1.95h1.8Zm-1.38-2-.49-.91h-1.8L25.32,28Zm5.6,5.13H31V26.4a.72.72,0,0,1,.72-.72h.86V31A.72.72,0,0,1,31.82,31.72Zm6.51-6L37,28.74l-1.37-3.06h-.83a.69.69,0,0,0-.74.69v5.35h1.48V28.29l.94,2.11h.43a1.09,1.09,0,0,0,1-.8l.53-1.31v3.43H39c.53,0,.93-.2.93-.79V25.68Zm3.1,6V26.4a.72.72,0,0,1,.72-.72H44a3.1,3.1,0,0,1,.86.11,1.73,1.73,0,0,1,.6.33,1.46,1.46,0,0,1,.35.5,1.87,1.87,0,0,1,.11.64v.12a1.39,1.39,0,0,1-.16.68,1.28,1.28,0,0,1-.48.5,1.3,1.3,0,0,1,.56.53,1.44,1.44,0,0,1,.22.8V30a1.57,1.57,0,0,1-.53,1.25,2.51,2.51,0,0,1-1.69.46ZM42.88,28h.92a.65.65,0,0,0,.43-.13.48.48,0,0,0,.16-.4v-.1a.51.51,0,0,0-.17-.42.79.79,0,0,0-.45-.12h-.89Zm0,2.54h.95a.77.77,0,0,0,.49-.14.51.51,0,0,0,.19-.45v-.11a.61.61,0,0,0-.18-.5.76.76,0,0,0-.53-.16h-.92Zm7.61-.19H48.77l-.23.84a.72.72,0,0,1-.69.52h-1l1.76-5.54a.72.72,0,0,1,.69-.5h1.18l2,6H50.87ZM49,29.17h1.19l-.59-2ZM55,25.68,57,29.07V25.68h1.45v6H57.14l-2.07-3.39V31a.72.72,0,0,1-.72.72h-.72V26.4a.72.72,0,0,1,.72-.72Zm10.13,6L62.7,28.51,65,25.68H63.19L61.46,28V25.68h-.78a.72.72,0,0,0-.72.72v5.32h1.5V30.06l.29-.36,1.46,2Z"/></g></g></svg>