<?xml version="1.0" encoding="utf-8"?>
<!-- Generator: Adobe Illustrator 25.2.0, SVG Export Plug-In . SVG Version: 6.00 Build 0)  -->
<svg version="1.1" id="Layer_1" xmlns="http://www.w3.org/2000/svg" xmlns:xlink="http://www.w3.org/1999/xlink" x="0px" y="0px"
	 viewBox="0 0 126 43.3" style="enable-background:new 0 0 126 43.3;" xml:space="preserve">
<style type="text/css">
	.st0{clip-path:url(#SVGID_1_);}
	.st1{fill:#02764A;}
	.st2{fill:#CAAC5D;}
	.st3{fill:#9D1832;}
</style>
<g>
	<defs>
		<rect id="SVGID_3_" width="126" height="43.3"/>
	</defs>
	<clipPath id="SVGID_1_">
		<use xlink:href="#SVGID_3_"  style="overflow:visible;"/>
	</clipPath>
	<g class="st0">
		<path class="st1" d="M84.8,6.2c0.1,0,0.1,0,0.1-0.1C85,6.1,85,6.1,85,6c0-0.1-0.1-0.3-0.2-0.2l-1.2,0.1v0.2
			C84.1,6,84.5,6.2,84.8,6.2z"/>
		<path class="st1" d="M84.4,6.9c0.1,0,0.1,0,0.1-0.1c0,0,0.1-0.1,0.1-0.1c0,0,0-0.1,0-0.1c0,0,0-0.1,0-0.1c0,0,0,0-0.1,0
			c0,0-0.1,0-0.1,0l-1.2,0.2v0.2C83.7,6.7,84,6.8,84.4,6.9z"/>
		<path class="st1" d="M84,7.6c0.1,0,0.1,0,0.1-0.1c0,0,0.1-0.1,0.1-0.1c0-0.1-0.1-0.2-0.3-0.2l-1.2,0.3l0.1,0.1
			C83.3,7.4,83.6,7.5,84,7.6z"/>
		<path class="st1" d="M83.5,8.4c0.1,0,0.2-0.1,0.2-0.2c0-0.1-0.1-0.1-0.1-0.2c0,0-0.1-0.1-0.2-0.1l-1.2,0.3l0.1,0.1
			C82.7,8.3,83.1,8.3,83.5,8.4"/>
		<path class="st1" d="M83.1,9.1c0.1,0,0.1-0.1,0.1-0.3c0-0.1-0.1-0.1-0.3-0.1l-1.1,0.5l0.1,0.1C82.3,9.1,82.7,9.1,83.1,9.1"/>
		<path class="st1" d="M82.5,10c0.1,0,0.1-0.1,0.1-0.2c0-0.1-0.1-0.2-0.3-0.2l-1.1,0.5l0.1,0.1C81.7,10,82.1,10,82.5,10"/>
		<path class="st1" d="M82.2,10.8C82.2,10.8,82.2,10.8,82.2,10.8c0.1,0,0.1-0.1,0.2-0.1c0,0,0-0.1,0-0.1c0,0,0-0.1,0-0.1
			c0-0.1-0.1-0.1-0.3-0.1l-1.1,0.4L81,11C81.4,10.9,81.8,10.8,82.2,10.8"/>
		<path class="st1" d="M81.9,11.6c0.1-0.1,0.2-0.1,0.1-0.3c0,0,0-0.1,0-0.1c0,0,0,0-0.1-0.1c0,0-0.1,0-0.1,0c0,0-0.1,0-0.1,0
			l-1.1,0.4l0.1,0.1C81.1,11.6,81.5,11.6,81.9,11.6z"/>
		<path class="st1" d="M81.6,12.4c0,0,0.1-0.1,0.1-0.2c0-0.1,0-0.1,0-0.2c0-0.1-0.1-0.1-0.3-0.1l-1,0.5l0.1,0.1
			C80.8,12.4,81.2,12.4,81.6,12.4z"/>
		<path class="st1" d="M81.3,13.3c0.1,0,0.2-0.1,0.1-0.3c0-0.1-0.1-0.1-0.3-0.1l-1,0.5l0.1,0.1C80.5,13.5,80.9,13.3,81.3,13.3z"/>
		<path class="st1" d="M81,14.2C81,14.2,81.1,14.2,81,14.2c0.1,0,0.1-0.1,0.2-0.1s0-0.1,0-0.1c0,0,0-0.1,0-0.1c0,0-0.1-0.1-0.1-0.1
			s-0.1,0-0.2,0l-1,0.6l0.1,0.1C80.3,14.4,80.6,14.3,81,14.2"/>
		<path class="st1" d="M85.5,5.5c0.1,0,0.1,0,0.1-0.1c0,0,0.1-0.1,0.1-0.1c0-0.1-0.1-0.2-0.3-0.2l-1.2,0.2v0.1
			C84.7,5.3,85.1,5.5,85.5,5.5z"/>
		<path class="st1" d="M86,4.9c0.1,0,0.1,0,0.1-0.1c0,0,0.1-0.1,0.1-0.1c0-0.1-0.1-0.1-0.1-0.2c0,0-0.1-0.1-0.2-0.1l-1.2,0.2v0.1
			C85.2,4.7,85.6,4.7,86,4.9"/>
		<path class="st1" d="M86.6,4.2c0.1,0,0.2-0.1,0.2-0.3c0-0.1,0-0.1-0.1-0.1c0,0-0.1-0.1-0.1-0.1L85.5,4v0.1
			C85.9,4,86.3,4.2,86.6,4.2"/>
		<path class="st1" d="M87.1,3.5c0.1,0,0.1-0.1,0.2-0.1c0,0,0.1-0.1,0.1-0.2C87.3,3.1,87.2,3,87,3l-1.1,0.3v0.2
			C86.4,3.3,86.7,3.4,87.1,3.5"/>
		<path class="st1" d="M85.6,2.5C85.6,2.5,85.6,2.5,85.6,2.5c0-0.1-0.1-0.1-0.1-0.1s-0.1,0-0.1,0c0,0-0.1,0-0.1,0
			c-0.1,0-0.2,0.1-0.1,0.3l0.4,1.1l0.1-0.1C85.6,3.3,85.6,2.9,85.6,2.5"/>
		<path class="st1" d="M85,3c0-0.1-0.1-0.1-0.3-0.1c-0.1,0-0.1,0.1-0.1,0.3L85,4.2h0.1C85,3.9,84.9,3.4,85,3"/>
		<path class="st1" d="M84.4,3.6C84.4,3.6,84.4,3.6,84.4,3.6c0-0.1-0.1-0.1-0.1-0.1c0,0-0.1,0-0.1,0c0,0-0.1,0-0.1,0
			c-0.1,0-0.2,0.1-0.1,0.3l0.5,1.3h0.1C84.5,4.6,84.4,4.1,84.4,3.6"/>
		<path class="st1" d="M83.8,4.2c0-0.1-0.1-0.1-0.1-0.1c0,0-0.1-0.1-0.2-0.1c-0.1,0-0.1,0.1-0.2,0.1c0,0-0.1,0.1-0.1,0.2l0.5,1.4
			L84,5.6C83.7,5.1,83.8,4.7,83.8,4.2z"/>
		<path class="st1" d="M83.3,4.8c0-0.1-0.1-0.1-0.3-0.1c0,0-0.1,0.1-0.1,0.1c0,0,0,0.1,0,0.2l0.6,1.3h0.1
			C83.4,5.7,83.2,5.3,83.3,4.8"/>
		<path class="st1" d="M82.6,5.5c0,0-0.1-0.1-0.1-0.1c0,0-0.1,0-0.1,0c0,0-0.1,0-0.1,0.1c0,0,0,0.1-0.1,0.1c0,0,0,0.1,0,0.1
			c0,0,0,0.1,0,0.1l0.6,1.3L83,7C82.8,6.5,82.6,6,82.6,5.5z"/>
		<path class="st1" d="M82.1,6.4c0-0.1-0.1-0.1-0.3-0.1c-0.1,0.1-0.1,0.2-0.1,0.3l0.6,1.3l0.1-0.1C82.2,7.3,82.1,6.8,82.1,6.4"/>
		<path class="st1" d="M81.6,7.1c0-0.1-0.1-0.1-0.3-0.1c-0.1,0-0.1,0.1-0.1,0.3L82,8.5l0.1-0.1C81.9,8,81.7,7.5,81.6,7.1"/>
		<path class="st1" d="M81.3,7.8c0,0-0.1-0.1-0.1-0.1c0,0-0.1,0-0.2,0c0,0-0.1,0-0.1,0.1c0,0,0,0.1-0.1,0.1c0,0,0,0.1,0,0.1
			c0,0,0,0.1,0,0.1l0.7,1.2l0.2-0.1C81.5,8.7,81.2,8.3,81.3,7.8z"/>
		<path class="st1" d="M80.7,8.5c-0.1-0.1-0.2-0.1-0.3-0.1c-0.1,0.1-0.1,0.2-0.1,0.3l0.8,1.2l0.1-0.1C81.1,9.5,80.9,9,80.7,8.5"/>
		<path class="st1" d="M80.4,9.4c-0.1-0.1-0.2-0.1-0.3-0.1C80,9.4,79.9,9.5,80,9.6l0.8,1.2l0.1-0.1C80.7,10.4,80.5,9.9,80.4,9.4"/>
		<path class="st1" d="M80.1,10c-0.1-0.1-0.2-0.1-0.3-0.1c-0.1,0.1-0.1,0.2-0.1,0.3l0.9,1.1l0.1-0.1C80.4,10.9,80.2,10.5,80.1,10z"
			/>
		<path class="st1" d="M79.7,10.7C79.7,10.6,79.7,10.6,79.7,10.7c-0.1-0.1-0.1-0.1-0.1-0.1c0,0-0.1,0-0.1,0c0,0-0.1,0-0.1,0
			s0,0-0.1,0.1c0,0,0,0,0,0.1c0,0,0,0.1,0,0.1c0,0,0,0.1,0,0.1l1,1.1l0.1-0.1C80.1,11.6,79.9,11.1,79.7,10.7z"/>
		<path class="st1" d="M79.5,11.4c0,0-0.1,0-0.1,0c-0.1,0-0.1,0-0.1,0c0,0-0.1,0-0.1,0c0,0,0,0,0,0.1c0,0,0,0.1,0,0.1s0,0.1,0,0.1
			l0.9,1.1l0.1-0.1C79.9,12.3,79.6,11.8,79.5,11.4"/>
		<path class="st1" d="M79.2,12.3c-0.1-0.1-0.2-0.1-0.3-0.1c0,0.1,0,0.1,0,0.2c0,0.1,0,0.1,0,0.2l1,1l0.1-0.1
			C79.5,13.1,79.4,12.7,79.2,12.3"/>
		<path class="st1" d="M78.9,13.1c0,0-0.1,0-0.1,0c-0.1,0-0.1,0-0.1,0c-0.1,0.1-0.1,0.2-0.1,0.3l1,1.1l0.1-0.1
			C79.4,14,79.1,13.6,78.9,13.1"/>
		<path class="st1" d="M78.7,14.2c-0.1-0.1-0.3-0.1-0.3,0c0,0,0,0.1,0,0.1s0,0.1,0,0.1l1,1l0.1-0.1C79.1,15,78.8,14.7,78.7,14.2z"/>
		<path class="st1" d="M78.6,15.4C78.5,15.4,78.5,15.4,78.6,15.4c-0.1-0.1-0.1-0.1-0.2-0.1c0,0-0.1,0-0.1,0c0,0-0.1,0-0.1,0.1
			c0,0,0,0.1,0,0.1c0,0,0,0.1,0,0.1l1,1l0.1-0.1C79,16.2,78.7,15.8,78.6,15.4"/>
		<path class="st1" d="M78.3,16.7c-0.1,0-0.1,0-0.2,0c-0.1,0-0.1,0-0.2,0c0,0,0,0.1,0,0.1s0,0.1,0,0.1l1,1l0.1-0.1
			C78.8,17.5,78.4,17.2,78.3,16.7z"/>
		<path class="st1" d="M78.2,18c-0.1-0.1-0.2-0.1-0.3,0c-0.1,0.1-0.1,0.2,0,0.3l1,1l0.1-0.1C78.7,18.9,78.4,18.5,78.2,18"/>
		<path class="st1" d="M78.2,19.3c-0.1-0.1-0.3-0.1-0.3-0.1c0,0.1,0,0.1,0,0.2s0,0.1,0,0.2l1.1,0.9l0.1-0.1
			C78.7,20.1,78.4,19.7,78.2,19.3"/>
		<path class="st1" d="M78.1,20.5c-0.1-0.1-0.3-0.1-0.3,0c-0.1,0.1-0.1,0.3,0.1,0.3l1.2,0.8l0.1-0.1C78.8,21.2,78.4,20.8,78.1,20.5"
			/>
		<path class="st1" d="M78.2,21.7c-0.1,0-0.1,0-0.2,0c-0.1,0-0.1,0-0.2,0.1c0,0.1,0,0.1,0,0.2s0,0.1,0.1,0.2l1.3,0.6l0.1-0.1
			C78.8,22.3,78.4,22.1,78.2,21.7z"/>
		<path class="st1" d="M78.3,22.9C78.3,22.9,78.3,22.9,78.3,22.9c-0.1,0-0.2,0-0.2,0c0,0-0.1,0-0.1,0c0,0,0,0-0.1,0.1
			c0,0,0,0.1,0,0.1c0,0,0,0.1,0,0.1c0,0,0,0.1,0,0.1s0,0,0.1,0.1l1.3,0.6l0.1-0.1C79,23.6,78.6,23.4,78.3,22.9"/>
		<path class="st1" d="M78.5,24.2c-0.1,0-0.1,0-0.2,0s-0.1,0-0.2,0.1c0,0.1,0,0.3,0.1,0.3l1.4,0.5l0.1-0.1
			C79.2,24.7,78.8,24.5,78.5,24.2z"/>
		<path class="st1" d="M78.6,25.1c-0.1-0.1-0.3,0-0.3,0.1c-0.1,0.1,0,0.2,0.1,0.3l1.4,0.5l0.1-0.1C79.4,25.7,79,25.4,78.6,25.1"/>
		<path class="st1" d="M78.8,26c-0.1-0.1-0.2,0-0.3,0.1c-0.1,0.1,0,0.2,0.1,0.3l1.4,0.5l0.1-0.1C79.6,26.6,79.2,26.3,78.8,26"/>
		<path class="st1" d="M79,26.8c-0.1,0-0.1,0-0.2,0c-0.1,0-0.1,0-0.2,0.1c0,0.1,0,0.3,0.1,0.3l1.6,0.8l0.1-0.1
			C79.9,27.5,79.4,27.2,79,26.8z"/>
		<path class="st1" d="M80.8,15.3c0.1-0.1,0.1-0.2,0.1-0.3c0,0-0.1-0.1-0.2-0.1c-0.1,0-0.1,0-0.2,0l-1.2,0.8l0.1,0.1
			C79.9,15.4,80.4,15.4,80.8,15.3z"/>
		<path class="st1" d="M80.6,16.3c0.1-0.1,0.1-0.2,0.1-0.3c0,0,0-0.1,0-0.1c0,0,0,0-0.1,0c0,0-0.1,0-0.1,0s-0.1,0-0.1,0l-1.2,0.9
			l0.1,0.1C79.7,16.6,80.1,16.4,80.6,16.3"/>
		<path class="st1" d="M80.5,17.5c0,0,0.1-0.1,0.1-0.1c0-0.1,0-0.1,0-0.1c0,0-0.1-0.1-0.1-0.1c-0.1,0-0.1,0-0.1,0L79.2,18l0.1,0.1
			C79.7,17.8,80.1,17.5,80.5,17.5z"/>
		<path class="st1" d="M80.4,18.6c0.1-0.1,0.1-0.2,0.1-0.3c-0.1,0-0.1,0-0.2,0c-0.1,0-0.1,0-0.2,0l-1,1l0.1,0.1
			C79.5,19,80,18.8,80.4,18.6z"/>
		<path class="st1" d="M80.3,19.8c0,0,0.1-0.1,0.1-0.1c0-0.1,0-0.1,0-0.1c0,0-0.1-0.1-0.1-0.1c-0.1,0-0.1,0-0.1,0l-1.1,1l0.1,0.1
			C79.5,20.3,79.9,20,80.3,19.8"/>
		<path class="st1" d="M80.4,20.8c0.1-0.1,0.1-0.2,0-0.3c0,0-0.1,0-0.1,0c-0.1,0-0.1,0-0.1,0l-1,1.1l0.1,0.1
			C79.6,21.3,80,21,80.4,20.8z"/>
		<path class="st1" d="M80.5,21.8c0-0.1,0-0.1,0-0.2c0-0.1,0-0.1,0-0.2c0,0-0.1,0-0.1,0c-0.1,0-0.1,0-0.1,0l-1,1.1l0.1,0.1
			C79.7,22.2,80,21.9,80.5,21.8"/>
		<path class="st1" d="M80.5,22.9c0,0,0-0.1,0-0.1c0,0,0-0.1,0-0.1c-0.1-0.1-0.2-0.1-0.3,0l-0.8,1.2l0.1,0.1
			C79.8,23.4,80.1,23.1,80.5,22.9"/>
		<path class="st1" d="M80.7,23.8c0.1-0.1,0.1-0.3,0-0.3c-0.1-0.1-0.3-0.1-0.3,0.1l-0.8,1.2l0.1,0.1C80,24.4,80.4,24.1,80.7,23.8"/>
		<path class="st1" d="M81.3,26c0.1-0.1,0.1-0.3-0.1-0.3c0,0,0,0-0.1,0c0,0-0.1,0-0.1,0c0,0-0.1,0-0.1,0c0,0,0,0,0,0.1L80.2,27
			l0.1,0.1C80.6,26.6,80.9,26.2,81.3,26"/>
		<path class="st1" d="M81.8,27C81.8,27,81.8,27,81.8,27c0-0.1,0-0.1,0-0.2c0,0,0-0.1,0-0.1c0,0,0,0-0.1-0.1c0,0-0.1,0-0.1,0
			c0,0-0.1,0-0.1,0c0,0-0.1,0-0.1,0c0,0-0.1,0-0.1,0.1l-0.7,1.4l0.1,0.1C81.1,27.7,81.3,27.3,81.8,27z"/>
		<path class="st1" d="M81,24.8c0-0.1,0-0.1,0-0.2c0-0.1,0-0.1-0.1-0.2c-0.1-0.1-0.3,0-0.3,0.1l-0.8,1.4l0.1,0.1
			C80.3,25.5,80.6,25.1,81,24.8"/>
		<path class="st1" d="M86.5,2.6c-4.1,4-6.7,8.9-7.5,14.2c-0.8,5.3,0.4,10.7,3.4,15.6c0.1,0.1,0.2,0.1,0.3,0.1c0,0,0,0,0.1,0
			s0,0,0-0.1c0,0,0-0.1,0-0.1c0,0,0-0.1,0-0.1c-2.9-4.8-4-10.1-3.3-15.3c0.8-5.3,3.4-10.2,7.2-13.9c0.1-0.1,0.1-0.2,0-0.3
			c0,0-0.1-0.1-0.1-0.1S86.5,2.6,86.5,2.6"/>
		<path class="st1" d="M118.6,6.2c-0.1,0-0.1,0-0.1-0.1c0,0-0.1-0.1-0.1-0.1c0-0.1,0.1-0.3,0.2-0.2l1.2,0.1v0.2
			C119.3,6,119,6.2,118.6,6.2z"/>
		<path class="st1" d="M119.1,6.9c-0.1,0-0.1,0-0.1-0.1c0,0-0.1-0.1-0.1-0.1c0,0,0-0.1,0-0.1c0,0,0-0.1,0-0.1c0,0,0,0,0.1,0
			c0,0,0.1,0,0.1,0l1.2,0.2v0.2C119.8,6.7,119.5,6.8,119.1,6.9z"/>
		<path class="st1" d="M119.5,7.6c-0.1,0-0.1,0-0.1-0.1c0,0-0.1-0.1-0.1-0.1c0-0.1,0.1-0.2,0.3-0.2l1.2,0.3l-0.1,0.1
			C120.2,7.4,119.9,7.5,119.5,7.6z"/>
		<path class="st1" d="M120,8.4c-0.1,0-0.2-0.1-0.2-0.2c0-0.1,0.1-0.1,0.1-0.2c0,0,0.1-0.1,0.2-0.1l1.2,0.3l-0.1,0.1
			C120.8,8.3,120.4,8.3,120,8.4"/>
		<path class="st1" d="M120.4,9.1C120.4,9.1,120.4,9.1,120.4,9.1C120.3,9,120.3,9,120.3,9c0,0,0-0.1,0-0.1c0,0,0-0.1,0-0.1
			c0-0.1,0.1-0.1,0.3-0.1l1.1,0.5l-0.1,0.1C121.2,9.1,120.8,9.1,120.4,9.1"/>
		<path class="st1" d="M121,10c-0.1,0-0.2-0.1-0.1-0.2c0-0.1,0.1-0.2,0.3-0.2l1.1,0.5l-0.1,0.1C121.8,10,121.4,10,121,10z"/>
		<path class="st1" d="M121.3,10.8C121.3,10.8,121.2,10.8,121.3,10.8c-0.1,0-0.1-0.1-0.2-0.1c0,0,0-0.1,0-0.1c0,0,0-0.1,0-0.1
			c0-0.1,0.1-0.1,0.3-0.1l1.1,0.4l-0.1,0.2C122.1,10.9,121.7,10.8,121.3,10.8"/>
		<path class="st1" d="M121.6,11.6c-0.1-0.1-0.2-0.1-0.1-0.3c0,0,0-0.1,0-0.1c0,0,0,0,0.1-0.1c0,0,0.1,0,0.1,0c0,0,0.1,0,0.1,0
			l1.1,0.4l-0.1,0.1C122.4,11.6,122,11.6,121.6,11.6"/>
		<path class="st1" d="M121.8,12.4c0,0-0.1-0.1-0.1-0.2c0-0.1,0-0.1,0-0.2c0-0.1,0.1-0.1,0.3-0.1l1,0.5l-0.1,0.1
			C122.7,12.4,122.2,12.3,121.8,12.4"/>
		<path class="st1" d="M122.1,13.3c-0.1,0-0.1-0.1-0.1-0.3c0-0.1,0.1-0.1,0.3-0.1l1,0.5l-0.1,0.1C122.9,13.4,122.5,13.3,122.1,13.3"
			/>
		<path class="st1" d="M122.5,14.3c-0.1,0-0.3-0.2-0.2-0.4c0,0,0.1-0.1,0.1-0.1s0.1,0,0.2,0l1,0.6l-0.1,0.1
			C123.2,14.4,122.8,14.4,122.5,14.3z"/>
		<path class="st1" d="M118,5.5c-0.1,0-0.1,0-0.1-0.1c0,0-0.1-0.1-0.1-0.1c0-0.1,0.1-0.2,0.3-0.2l1.2,0.2v0.1
			C118.8,5.3,118.4,5.5,118,5.5z"/>
		<path class="st1" d="M117.5,4.9c-0.1,0-0.1,0-0.1-0.1c0,0-0.1-0.1-0.1-0.1c0-0.1,0.1-0.2,0.3-0.2l1.2,0.2v0.1
			C118.2,4.7,117.8,4.8,117.5,4.9z"/>
		<path class="st1" d="M116.8,4.2c-0.1,0-0.3-0.1-0.2-0.3c0-0.1,0-0.1,0.1-0.1c0,0,0.1-0.1,0.1-0.1L118,4v0.1
			C117.6,4,117.2,4.2,116.8,4.2"/>
		<path class="st1" d="M116.4,3.5c-0.1,0-0.1-0.1-0.2-0.1c0,0-0.1-0.1-0.1-0.2c0-0.1,0.1-0.2,0.3-0.2l1.1,0.3v0.2
			C117.1,3.3,116.7,3.4,116.4,3.5"/>
		<path class="st1" d="M117.5,2.7c0-0.1,0.1-0.2,0.2-0.2c0.1,0,0.2,0.1,0.2,0.2l-0.1,1.2l-0.1,0C117.7,3.4,117.6,3,117.5,2.7"/>
		<path class="st1" d="M118.5,3c0-0.1,0.1-0.1,0.3-0.1c0.1,0,0.1,0.1,0.1,0.3l-0.4,1.1h-0.1C118.5,3.9,118.5,3.4,118.5,3"/>
		<path class="st1" d="M119.1,3.6C119.1,3.6,119.1,3.6,119.1,3.6c0-0.1,0.1-0.1,0.1-0.1c0,0,0.1,0,0.1,0c0,0,0.1,0,0.1,0
			c0.1,0,0.1,0.1,0.1,0.3L119,5.1h-0.1C119.1,4.6,119.1,4.1,119.1,3.6z"/>
		<path class="st1" d="M119.7,4.2c0-0.1,0-0.1,0.1-0.2c0.1,0,0.1-0.1,0.2,0c0.1,0,0.1,0,0.2,0.1c0,0.1,0.1,0.1,0.1,0.2l-0.5,1.4
			l-0.1-0.1C119.7,5.1,119.7,4.7,119.7,4.2"/>
		<path class="st1" d="M120.2,4.8c0-0.1,0.1-0.1,0.3-0.1c0,0,0.1,0.1,0.1,0.1c0,0,0,0.1,0,0.2L120,6.2h-0.1
			C120.1,5.8,120.2,5.3,120.2,4.8"/>
		<path class="st1" d="M120.8,5.5c0,0,0.1-0.1,0.1-0.1s0.1,0,0.2,0c0,0,0.1,0,0.1,0.1c0,0,0,0.1,0.1,0.1c0,0,0,0.1,0,0.1
			c0,0,0,0.1,0,0.1c-0.1,0.1-0.1,0.1-0.2,0.1L120.6,7L120.5,7l0.4-1.2c0,0-0.1-0.1-0.1-0.1C120.8,5.6,120.8,5.6,120.8,5.5"/>
		<path class="st1" d="M121.4,6.4c0-0.1,0.1-0.1,0.3-0.1c0.1,0.1,0.1,0.2,0.1,0.3l-0.6,1.3L121,7.8C121.2,7.3,121.4,6.9,121.4,6.4z"
			/>
		<path class="st1" d="M121.8,7.1c0-0.1,0.1-0.1,0.3-0.1c0.1,0,0.1,0.1,0.1,0.3l-0.7,1.2l-0.1-0.1C121.6,8,121.8,7.5,121.8,7.1"/>
		<path class="st1" d="M122.3,7.9c0,0,0.1-0.1,0.1-0.1c0,0,0.1,0,0.2,0c0,0,0.1,0,0.1,0.1c0,0,0,0.1,0.1,0.1c0,0,0,0.1,0,0.1
			c0,0,0,0.1,0,0.1l-0.7,1.2l-0.2-0.1C122.1,8.8,122.3,8.4,122.3,7.9"/>
		<path class="st1" d="M122.7,8.5c0.1-0.1,0.2-0.1,0.3-0.1c0.1,0.1,0.1,0.2,0.1,0.3l-0.8,1.2l-0.1-0.1C122.4,9.5,122.6,9,122.7,8.5"
			/>
		<path class="st1" d="M123.1,9.4c0.1-0.1,0.2-0.1,0.3-0.1c0,0,0.1,0.1,0.1,0.1c0,0,0,0.1,0,0.2l-0.8,1.2l-0.1-0.1
			C122.8,10.3,123,9.9,123.1,9.4"/>
		<path class="st1" d="M123.4,10c0.1-0.1,0.2-0.1,0.3-0.1c0.1,0.1,0.1,0.2,0.1,0.3l-0.9,1.1l-0.1-0.1
			C123.1,10.9,123.3,10.5,123.4,10"/>
		<path class="st1" d="M123.8,10.7C123.8,10.6,123.8,10.6,123.8,10.7c0.1-0.1,0.1-0.1,0.1-0.1s0.1,0,0.1,0c0,0,0.1,0,0.1,0
			c0,0,0,0,0.1,0c0,0,0,0,0,0.1c0,0,0,0.1,0,0.1c0,0,0,0.1,0,0.1l-1,1.1l-0.1-0.1C123.3,11.6,123.6,11.1,123.8,10.7"/>
		<path class="st1" d="M124,11.4c0,0,0.1,0,0.1,0c0.1,0,0.1,0,0.1,0c0,0,0.1,0,0.1,0c0,0,0,0,0,0.1c0,0,0,0.1,0,0.1c0,0,0,0.1,0,0.1
			l-0.9,1.1l-0.1-0.1C123.6,12.2,123.9,11.8,124,11.4"/>
		<path class="st1" d="M124.3,12.3c0.1-0.1,0.2-0.1,0.3-0.1c0,0.1,0,0.1,0,0.2c0,0.1,0,0.1,0,0.2l-1,1l-0.1-0.1
			C123.9,13.2,124.1,12.8,124.3,12.3"/>
		<path class="st1" d="M124.6,13.1c0,0,0.1,0,0.1,0c0.1,0,0.1,0,0.1,0c0.1,0.1,0.1,0.2,0.1,0.3l-1,1.1l-0.1-0.1
			C124.1,14,124.4,13.6,124.6,13.1"/>
		<path class="st1" d="M124.8,14.2C124.8,14.2,124.8,14.2,124.8,14.2c0.1-0.1,0.1-0.1,0.2-0.1c0,0,0.1,0,0.1,0c0,0,0.1,0,0.1,0.1
			c0,0,0,0.1,0,0.1c0,0,0,0.1,0,0.1l-1,1l-0.1-0.1C124.4,15,124.7,14.7,124.8,14.2z"/>
		<path class="st1" d="M124.9,15.4C124.9,15.4,125,15.4,124.9,15.4c0.1-0.1,0.1-0.1,0.2-0.1c0,0,0.1,0,0.1,0c0,0,0.1,0,0.1,0.1
			c0,0,0,0.1,0,0.1c0,0,0,0.1,0,0.1l-1,1l-0.1-0.1C124.5,16.2,124.7,15.8,124.9,15.4"/>
		<path class="st1" d="M125.1,16.7c0.1,0,0.1,0,0.2,0c0.1,0,0.1,0,0.2,0c0,0,0,0.1,0,0.1s0,0.1,0,0.1l-1,1l-0.1-0.1
			C124.7,17.5,125,17.2,125.1,16.7z"/>
		<path class="st1" d="M125.3,18c0.1-0.1,0.2-0.1,0.3,0c0.1,0.1,0.1,0.2,0,0.3l-1,1l-0.1-0.1C124.7,18.9,125,18.5,125.3,18"/>
		<path class="st1" d="M125.3,19.3c0.1-0.1,0.3-0.1,0.3-0.1c0,0.1,0,0.1,0,0.2s0,0.1,0,0.2l-1.1,0.9l-0.1-0.1
			C124.7,20.1,125,19.7,125.3,19.3"/>
		<path class="st1" d="M125.3,20.5c0.1-0.1,0.3-0.1,0.3,0c0,0.1,0,0.1,0,0.2s0,0.1-0.1,0.2l-1.2,0.8l-0.1-0.1
			C124.7,21.2,125,20.8,125.3,20.5"/>
		<path class="st1" d="M125.3,21.7C125.3,21.7,125.3,21.7,125.3,21.7c0.1,0,0.1,0,0.2,0c0,0,0.1,0,0.1,0c0,0,0,0,0.1,0.1
			c0,0,0,0.1,0,0.1c0,0,0,0.1,0,0.1c0,0,0,0.1,0,0.1s0,0-0.1,0.1l-1.3,0.6l-0.1-0.1C124.7,22.3,125,22.1,125.3,21.7"/>
		<path class="st1" d="M125.1,22.9c0.1,0,0.1,0,0.2,0c0.1,0,0.1,0,0.2,0.1c0,0.1,0,0.3-0.1,0.3l-1.3,0.6l-0.1-0.1
			C124.5,23.6,124.9,23.4,125.1,22.9z"/>
		<path class="st1" d="M125,24.2c0.1,0,0.1,0,0.2,0s0.1,0,0.2,0.1c0,0.1,0,0.3-0.1,0.3l-1.4,0.5l-0.1-0.1
			C124.2,24.7,124.6,24.5,125,24.2z"/>
		<path class="st1" d="M124.8,25.1c0.1-0.1,0.3,0,0.3,0.1c0.1,0.1,0,0.2-0.1,0.3l-1.4,0.5l-0.1-0.1
			C124.1,25.7,124.5,25.4,124.8,25.1z"/>
		<path class="st1" d="M124.7,26c0.1-0.1,0.2,0,0.3,0.1c0.1,0.1,0,0.2-0.1,0.3l-1.4,0.5l-0.1-0.1C123.9,26.6,124.3,26.3,124.7,26"/>
		<path class="st1" d="M124.4,26.8c0.1-0.1,0.3,0,0.3,0.1c0.1,0.1,0.1,0.3,0,0.3l-1.6,0.8l-0.1-0.1
			C123.5,27.5,124.1,27.2,124.4,26.8"/>
		<path class="st1" d="M122.7,15.3c-0.1-0.1-0.1-0.2-0.1-0.3c0,0,0.1-0.1,0.2-0.1c0.1,0,0.1,0,0.2,0l1.2,0.8l-0.1,0.1
			C123.6,15.4,123.1,15.4,122.7,15.3z"/>
		<path class="st1" d="M122.9,16.3c-0.1-0.1-0.1-0.2-0.1-0.3c0,0,0-0.1,0-0.1c0,0,0,0,0.1,0c0,0,0.1,0,0.1,0c0,0,0.1,0,0.1,0
			l1.2,0.9l-0.1,0.1C123.8,16.6,123.3,16.4,122.9,16.3"/>
		<path class="st1" d="M122.9,17.5c0,0-0.1-0.1-0.1-0.1c0-0.1,0-0.1,0-0.1c0,0,0.1-0.1,0.1-0.1c0.1,0,0.1,0,0.1,0l1.2,0.9l-0.1,0.1
			C123.8,17.8,123.4,17.6,122.9,17.5"/>
		<path class="st1" d="M123.1,18.6c-0.1-0.1-0.1-0.2-0.1-0.3c0.1,0,0.1,0,0.2,0c0.1,0,0.1,0,0.2,0c0,0,0,0.1,0.1,0.1
			c0,0,0,0.1,0,0.1l1,0.8l-0.1,0.1l-1-0.8C123.2,18.7,123.1,18.7,123.1,18.6"/>
		<path class="st1" d="M123.1,19.8c0,0,0-0.1,0-0.1c0,0,0-0.1,0-0.1c0,0,0-0.1,0-0.1c0,0,0,0,0.1,0s0.1,0,0.1,0c0,0,0.1,0,0.1,0
			l1.1,1l-0.1,0.1C124,20.3,123.5,20,123.1,19.8"/>
		<path class="st1" d="M123.1,20.8c-0.1-0.1-0.1-0.2,0-0.3c0,0,0.1,0,0.1,0c0.1,0,0.1,0,0.1,0l1,1.1l-0.1,0.1
			C123.9,21.3,123.4,21,123.1,20.8"/>
		<path class="st1" d="M123,21.8c0-0.1,0-0.1,0-0.2c0-0.1,0-0.1,0-0.2c0,0,0.1,0,0.1,0c0,0,0.1,0,0.1,0l1,1.1l-0.1,0.1
			C123.8,22.2,123.5,21.9,123,21.8"/>
		<path class="st1" d="M122.9,22.9c0,0,0-0.1,0-0.1c0,0,0-0.1,0-0.1c0.1-0.1,0.2-0.1,0.3,0l0.9,1.2l-0.1,0.1
			C123.7,23.4,123.3,23.1,122.9,22.9"/>
		<path class="st1" d="M122.7,23.8c-0.1-0.1-0.1-0.3,0-0.3c0.1-0.1,0.3-0.1,0.3,0.1l0.8,1.2l-0.1,0.1
			C123.5,24.4,123.1,24.1,122.7,23.8z"/>
		<path class="st1" d="M122.2,26c-0.1-0.1-0.1-0.3,0.1-0.3c0,0,0,0,0.1,0c0,0,0.1,0,0.1,0c0,0,0.1,0,0.1,0c0,0,0,0,0,0.1l0.8,1.2
			l-0.1,0.1C122.9,26.6,122.5,26.3,122.2,26"/>
		<path class="st1" d="M121.7,27c0-0.1-0.1-0.1,0-0.2c0-0.1,0-0.1,0.1-0.2c0.1,0,0.1-0.1,0.2,0c0.1,0,0.1,0,0.2,0.1l0.7,1.4
			l-0.1,0.1C122.4,27.7,122.2,27.3,121.7,27"/>
		<path class="st1" d="M122.4,24.8c-0.1-0.1-0.1-0.3,0.1-0.3c0.1-0.1,0.2,0,0.3,0.1l0.8,1.4l-0.1,0.1
			C123.2,25.5,122.8,25.1,122.4,24.8"/>
		<path class="st1" d="M117,2.6c4.1,4,6.7,8.9,7.5,14.2c0.8,5.3-0.4,10.7-3.4,15.6c0,0.1-0.1,0.1-0.2,0.1c-0.1,0-0.1,0-0.2,0
			c0,0-0.1,0-0.1,0c0,0,0,0,0-0.1c0,0,0-0.1,0-0.1s0-0.1,0-0.1c2.9-4.8,4-10.1,3.3-15.3c-0.8-5.3-3.4-10.2-7.2-13.9
			c-0.1-0.1-0.1-0.2,0-0.3c0,0,0.1,0,0.1,0C116.9,2.6,117,2.6,117,2.6"/>
		<path class="st1" d="M101.6,3c-4.6,0-8.9,1.8-12.2,5c-1.6,1.6-2.9,3.4-3.7,5.5c-0.9,2.1-1.3,4.3-1.3,6.5c0,9.3,7.7,16.9,17.2,17
			c9.5,0,17.2-7.6,17.2-17v0C118.8,10.6,111.1,3,101.6,3L101.6,3z M101.6,37.5C91.9,37.5,84,29.6,84,20c0-2.3,0.4-4.6,1.3-6.7
			c0.9-2.1,2.2-4,3.8-5.7c3.3-3.3,7.8-5.1,12.5-5.1l0,0c9.7,0,17.7,7.8,17.7,17.5v0C119.3,29.6,111.4,37.5,101.6,37.5"/>
		<path class="st2" d="M93.2,37.6h1.3c-2.9-1.2-5.6-3.1-7.6-5.5c-2-2.4-3.4-5.4-4.1-8.5c-0.6-3.1-0.5-6.3,0.4-9.4
			c0.9-3,2.6-5.8,4.8-8.1C89.9,4.4,92,3,94.3,2c2.3-1,4.8-1.5,7.4-1.5l0,0c5.1,0,10,2,13.6,5.6c3.6,3.6,5.6,8.5,5.6,13.6v0
			c0,3.8-1.2,7.6-3.3,10.7c-2.1,3.2-5.2,5.6-8.7,7.1h1.3c3.4-1.6,6.2-4.2,8.2-7.3c2-3.2,3-6.8,3-10.5v0c0-5.2-2.1-10.3-5.8-14
			c-3.7-3.7-8.7-5.8-14-5.8l0,0c-4.5,0-8.8,1.5-12.3,4.3c-3.5,2.8-5.9,6.7-6.9,11.1s-0.5,9,1.5,13C85.9,32.5,89.2,35.7,93.2,37.6z"
			/>
		<path class="st2" d="M121.6,29.9l-0.9-2.8c-1.7,4.5-5,8.3-9.2,10.6v4.7H111v0.8c3.6-1.4,6.9-3.7,9.5-6.6c2.6-2.9,4.5-6.4,5.5-10.2
			L121.6,29.9z"/>
		<path class="st2" d="M91.9,42.3v-4.7h0c-4.2-2.2-7.6-5.9-9.3-10.4l-0.9,2.6l-4.4-3.6c1,3.8,2.9,7.3,5.5,10.2
			c2.6,2.9,5.9,5.2,9.5,6.6v-0.8L91.9,42.3L91.9,42.3z"/>
		<path class="st2" d="M92,42.3h19.4v-4.5H92V42.3z M111.6,42.4H91.8v-4.9h19.8V42.4z"/>
		<path class="st3" d="M101.7,38.5c-0.3,0-0.6,0.1-0.8,0.2c-0.2,0.2-0.4,0.4-0.5,0.7c-0.1,0.3-0.1,0.6-0.1,0.8
			c0.1,0.3,0.2,0.5,0.4,0.8c0.2,0.2,0.5,0.3,0.8,0.4c0.3,0.1,0.6,0,0.9-0.1c0.3-0.1,0.5-0.3,0.7-0.5c0.2-0.2,0.2-0.5,0.2-0.8
			c0-0.4-0.2-0.8-0.4-1C102.5,38.7,102.1,38.5,101.7,38.5L101.7,38.5z M101.7,41.7c-0.3,0-0.7-0.1-0.9-0.3s-0.5-0.5-0.6-0.8
			c-0.1-0.3-0.2-0.7-0.1-1c0.1-0.3,0.2-0.6,0.5-0.9c0.2-0.2,0.5-0.4,0.9-0.5c0.3-0.1,0.7,0,1,0.1c0.3,0.1,0.6,0.3,0.8,0.6
			c0.2,0.3,0.3,0.6,0.3,0.9c0,0.5-0.2,0.9-0.5,1.2C102.6,41.5,102.2,41.7,101.7,41.7z"/>
		<path class="st3" d="M106.7,38.5c-0.3,0-0.6,0.1-0.8,0.2c-0.2,0.2-0.4,0.4-0.5,0.7c-0.1,0.3-0.1,0.6-0.1,0.8
			c0.1,0.3,0.2,0.5,0.4,0.8c0.2,0.2,0.5,0.3,0.8,0.4c0.3,0.1,0.6,0,0.8-0.1c0.3-0.1,0.5-0.3,0.7-0.5c0.2-0.2,0.2-0.5,0.2-0.8
			c0-0.4-0.2-0.8-0.4-1C107.5,38.7,107.1,38.5,106.7,38.5z M106.7,41.7c-0.3,0-0.7-0.1-0.9-0.3c-0.3-0.2-0.5-0.5-0.6-0.8
			c-0.1-0.3-0.2-0.7-0.1-1c0.1-0.3,0.2-0.6,0.5-0.9c0.2-0.2,0.5-0.4,0.9-0.5c0.3-0.1,0.7,0,1,0.1c0.3,0.1,0.6,0.3,0.8,0.6
			c0.2,0.3,0.3,0.6,0.3,0.9c0,0.5-0.2,0.9-0.5,1.2C107.6,41.5,107.2,41.7,106.7,41.7"/>
		<path class="st3" d="M104.2,38.5c-0.3,0-0.6,0.1-0.8,0.2c-0.2,0.2-0.4,0.4-0.5,0.7c-0.1,0.3-0.1,0.6-0.1,0.8
			c0.1,0.3,0.2,0.5,0.4,0.8c0.2,0.2,0.5,0.3,0.8,0.4c0.3,0.1,0.6,0,0.8-0.1c0.3-0.1,0.5-0.3,0.7-0.5c0.2-0.2,0.2-0.5,0.2-0.8
			c0-0.4-0.2-0.8-0.4-1S104.6,38.5,104.2,38.5L104.2,38.5z M104.2,41.7c-0.3,0-0.7-0.1-0.9-0.3s-0.5-0.5-0.6-0.8
			c-0.1-0.3-0.2-0.7-0.1-1c0.1-0.3,0.2-0.6,0.5-0.9c0.2-0.2,0.5-0.4,0.9-0.5c0.3-0.1,0.7,0,1,0.1c0.3,0.1,0.6,0.3,0.8,0.6
			c0.2,0.3,0.3,0.6,0.3,0.9c0,0.2,0,0.4-0.1,0.7c-0.1,0.2-0.2,0.4-0.4,0.6c-0.2,0.2-0.3,0.3-0.6,0.4
			C104.7,41.7,104.4,41.7,104.2,41.7z"/>
		<path class="st3" d="M99.2,38.5c-0.3,0-0.6,0.1-0.8,0.2c-0.2,0.2-0.4,0.4-0.5,0.7c-0.1,0.3-0.1,0.6-0.1,0.8
			c0.1,0.3,0.2,0.5,0.4,0.8c0.2,0.2,0.5,0.3,0.8,0.4c0.3,0.1,0.6,0,0.8-0.1c0.3-0.1,0.5-0.3,0.7-0.5c0.2-0.2,0.2-0.5,0.2-0.8
			c0-0.4-0.2-0.8-0.4-1S99.6,38.5,99.2,38.5L99.2,38.5z M99.2,41.7c-0.3,0-0.7-0.1-0.9-0.3c-0.3-0.2-0.5-0.5-0.6-0.8
			c-0.1-0.3-0.2-0.7-0.1-1c0.1-0.3,0.2-0.6,0.5-0.9c0.2-0.2,0.5-0.4,0.9-0.5c0.3-0.1,0.7,0,1,0.1c0.3,0.1,0.6,0.3,0.8,0.6
			c0.2,0.3,0.3,0.6,0.3,0.9c0,0.2,0,0.4-0.1,0.7c-0.1,0.2-0.2,0.4-0.4,0.6c-0.2,0.2-0.3,0.3-0.6,0.4C99.7,41.7,99.5,41.7,99.2,41.7z
			"/>
		<path class="st3" d="M96.8,38.5c-0.3,0-0.6,0.1-0.8,0.2c-0.2,0.2-0.4,0.4-0.5,0.7c-0.1,0.3-0.1,0.6-0.1,0.8
			c0.1,0.3,0.2,0.5,0.4,0.8c0.2,0.2,0.5,0.3,0.8,0.4c0.3,0.1,0.6,0,0.9-0.1c0.3-0.1,0.5-0.3,0.7-0.5c0.2-0.2,0.2-0.5,0.2-0.8
			c0-0.4-0.2-0.8-0.4-1C97.5,38.7,97.2,38.5,96.8,38.5L96.8,38.5z M96.8,41.7c-0.3,0-0.7-0.1-0.9-0.3c-0.3-0.2-0.5-0.5-0.6-0.8
			c-0.1-0.3-0.2-0.7-0.1-1c0.1-0.3,0.2-0.6,0.5-0.9c0.2-0.2,0.5-0.4,0.9-0.5c0.3-0.1,0.7,0,1,0.1c0.3,0.1,0.6,0.3,0.8,0.6
			c0.2,0.3,0.3,0.6,0.3,0.9c0,0.5-0.2,0.9-0.5,1.2C97.6,41.5,97.2,41.7,96.8,41.7"/>
		<path class="st3" d="M94.3,38.5c-0.3,0-0.6,0.1-0.8,0.2c-0.2,0.2-0.4,0.4-0.5,0.7c-0.1,0.3-0.1,0.6-0.1,0.8
			c0.1,0.3,0.2,0.5,0.4,0.8c0.2,0.2,0.5,0.3,0.8,0.4c0.3,0.1,0.6,0,0.8-0.1c0.3-0.1,0.5-0.3,0.7-0.5c0.2-0.2,0.2-0.5,0.2-0.8
			c0-0.4-0.2-0.8-0.4-1C95,38.7,94.7,38.5,94.3,38.5L94.3,38.5z M94.3,41.7c-0.3,0-0.7-0.1-0.9-0.3c-0.3-0.2-0.5-0.5-0.6-0.8
			c-0.1-0.3-0.2-0.7-0.1-1c0.1-0.3,0.2-0.6,0.5-0.9c0.2-0.2,0.5-0.4,0.9-0.5c0.3-0.1,0.7,0,1,0.1c0.3,0.1,0.6,0.3,0.8,0.6
			c0.2,0.3,0.3,0.6,0.3,0.9c0,0.5-0.2,0.9-0.5,1.2C95.1,41.5,94.7,41.7,94.3,41.7z"/>
		<path class="st3" d="M109.2,38.5c-0.3,0-0.6,0.1-0.8,0.2c-0.2,0.2-0.4,0.4-0.5,0.7c-0.1,0.3-0.1,0.6-0.1,0.8
			c0.1,0.3,0.2,0.5,0.4,0.8c0.2,0.2,0.5,0.3,0.8,0.4c0.3,0.1,0.6,0,0.9-0.1c0.3-0.1,0.5-0.3,0.7-0.5c0.2-0.2,0.2-0.5,0.2-0.8
			c0-0.4-0.2-0.8-0.4-1C110,38.7,109.6,38.5,109.2,38.5L109.2,38.5z M109.2,41.7c-0.3,0-0.7-0.1-0.9-0.3s-0.5-0.5-0.6-0.8
			c-0.1-0.3-0.2-0.7-0.1-1c0.1-0.3,0.2-0.6,0.5-0.9c0.2-0.2,0.5-0.4,0.9-0.5c0.3-0.1,0.7,0,1,0.1c0.3,0.1,0.6,0.3,0.8,0.6
			c0.2,0.3,0.3,0.6,0.3,0.9c0,0.5-0.2,0.9-0.5,1.2C110.1,41.5,109.7,41.7,109.2,41.7"/>
		<path class="st2" d="M115.2,26.6c0-0.1,0-0.2,0-0.2c0-0.1,0-0.1,0-0.1c0,0,0-0.1,0-0.1c0-0.1,0-0.1,0-0.2c0-0.1-0.1-0.1-0.1-0.1
			c0,0,0,0-0.1,0c0,0,0-0.1,0-0.1s0,0,0,0v-0.1c0,0,0,0,0,0c0,0,0,0,0,0s0,0,0,0c0,0,0,0,0,0c0,0,0,0.1,0,0.1c0,0-0.1,0-0.1,0
			c0,0,0,0,0,0s0,0,0.1,0.1c0,0,0,0,0,0c0,0,0,0,0,0c0,0,0,0,0,0c0,0,0,0,0,0c0,0,0,0,0,0c0,0,0,0,0,0c0,0,0,0.1,0,0.1c0,0,0,0,0,0
			h-0.1c0,0,0,0,0,0c0,0,0,0,0,0s0,0,0,0c0,0,0,0,0,0c0,0,0,0.1-0.1,0.1s0,0-0.1,0c0,0,0,0,0,0c0,0,0,0,0,0c0,0,0,0.1,0,0.1
			c0,0,0,0,0,0.1c0,0,0,0,0,0c0,0,0,0,0,0v0c0,0,0,0,0,0c0,0-0.1,0-0.1,0c0,0,0,0,0,0s0,0,0.1,0c0,0,0,0,0,0c0,0,0,0,0,0
			c0,0,0,0,0,0c0,0-0.1,0-0.1,0c0,0,0,0,0,0c0,0,0,0,0,0c0,0,0,0,0,0.1c0,0,0,0,0,0s0,0,0-0.1c0,0,0-0.1,0-0.1c0,0,0,0,0,0s0,0,0,0
			c0,0,0,0.1,0,0.1v0.1c0,0,0,0,0,0c0,0,0,0,0,0c0,0-0.1,0-0.1,0c0,0,0,0-0.1,0c0,0-0.1,0-0.1,0l0,0c0,0,0,0,0,0c0,0,0,0,0,0
			c0,0,0,0,0,0c0,0,0,0,0,0c0,0,0,0,0,0c0,0,0,0,0,0c0,0,0,0,0,0c0,0-0.1,0-0.1,0l-0.1-0.1c0,0-0.1,0-0.1,0l-0.1,0.1c0,0,0,0-0.1,0
			c0,0-0.1,0-0.1,0c0,0,0,0-0.1,0.1c0,0,0,0,0,0c0,0,0,0,0,0h-0.1c0,0,0,0,0,0.1c0,0,0,0.1,0,0.1c0,0.1-0.1,0.1-0.1,0.2
			c0,0.1-0.1,0.1-0.1,0.2c0,0.1,0,0.2,0.1,0.3c0,0.1,0,0.1,0,0.1s0,0.1,0,0.1c0,0,0.1,0.1,0.1,0.1c0,0,0,0.1,0,0.1c0,0,0,0.1,0,0.1
			c0,0,0,0.1,0,0.1c0,0-0.1,0.1-0.1,0.1c0,0,0,0,0,0.1c0,0,0,0,0,0.1c0,0,0,0.1,0,0.1c0,0-0.1,0.1-0.1,0.1c0,0,0,0.1-0.1,0.1
			c0,0,0,0.1,0,0.1c0,0.1-0.1,0.1-0.1,0.2c0,0.1,0,0.2,0.1,0.2c0,0,0.1,0.1,0.1,0.1c0,0.1,0,0.1,0,0.2c0,0.1,0,0.1,0,0.2
			c0,0,0,0.1,0,0.1c0,0,0,0,0,0.1c0,0,0.1,0.1,0.1,0.1c0,0,0,0.1,0,0.1c0,0,0,0.1,0,0.1c0,0,0.1,0,0.1,0.1c0,0,0.1,0,0.1,0
			c0,0,0.1,0,0.1,0.1c0,0,0.1,0.1,0.1,0.1c0.1,0,0.1,0,0.2,0c0,0,0.1-0.1,0.1-0.1c0,0,0,0,0.1,0c0.1,0,0.2,0,0.2,0
			c0.1,0,0.1-0.1,0.1-0.1c0.1-0.1,0.1-0.1,0.1-0.2c0-0.1,0-0.1,0.1-0.2c0,0,0.1-0.1,0.1-0.1c0-0.1,0-0.2,0-0.2c0-0.1,0-0.1,0-0.2
			c0-0.1,0.1-0.2,0.1-0.3c0-0.1,0.1-0.2,0.1-0.2c0-0.1,0-0.1,0-0.2c0-0.1,0-0.2,0.1-0.3c0-0.1,0.1-0.1,0.1-0.1c0-0.1,0-0.1,0-0.2
			c0-0.1,0.1-0.1,0.1-0.2c0.1-0.1,0.1-0.2,0.1-0.3c0-0.1,0-0.3,0-0.4c0-0.1,0-0.1,0-0.1c0,0,0.1,0,0.1,0c0,0,0.1,0,0.1-0.1
			c0,0,0,0,0,0h-0.1c0,0,0,0,0-0.1c0,0,0,0,0-0.1c0,0,0,0,0-0.1c0-0.1,0-0.1-0.1-0.2c0,0,0-0.1,0-0.1c0,0,0,0,0-0.1c0,0,0,0,0,0
			c0,0,0,0,0,0c0,0,0,0,0,0c0,0,0,0,0,0c0,0,0,0.1,0,0.1c0,0,0,0.1,0.1,0.1c0,0,0.1,0,0.1-0.1c0-0.1,0-0.1,0-0.2
			C115.3,26.8,115.2,26.7,115.2,26.6"/>
		<path class="st2" d="M115.4,16.2C115.4,16.1,115.4,16.1,115.4,16.2l0-0.1c0,0,0,0,0,0c0,0,0,0,0,0c0,0,0,0-0.1,0c0,0,0,0-0.1,0
			c0,0,0,0,0,0.1c0,0,0,0,0,0c0,0,0,0,0,0c0,0,0,0,0,0c0,0,0,0,0,0c0,0,0,0-0.1,0c-0.1,0-0.1,0.1-0.2,0.1c-0.1,0-0.3,0.1-0.4,0.1
			c0,0,0,0,0,0c0,0,0,0,0,0c-0.1,0-0.1,0-0.2,0c0,0-0.1,0-0.2,0H114c0,0-0.1,0-0.1,0c0,0-0.1,0-0.1,0.1c0,0-0.1,0-0.1,0
			c-0.1,0-0.1,0-0.2,0c0,0-0.1,0-0.1,0c0,0-0.1,0-0.1,0c0,0-0.1,0-0.1,0c0,0-0.1,0-0.1,0c-0.1,0-0.1,0-0.2,0c-0.1,0-0.1,0-0.2-0.1
			c-0.1-0.1-0.1-0.1-0.2-0.2l0,0l-0.1-0.1c0,0-0.1-0.1-0.1-0.1c0,0-0.1,0-0.1,0H112c0,0,0,0,0,0c0,0,0,0,0.1,0c0,0,0,0,0,0
			c0,0,0.1,0,0.1,0c0,0,0,0,0-0.1c0,0,0-0.1,0-0.1l-0.1-0.1c0,0,0-0.1-0.1-0.1c0,0-0.1,0-0.1,0h0c0,0-0.1,0-0.1,0l0,0c0,0,0,0,0,0
			c0,0,0,0,0,0l0,0c0,0,0,0-0.1,0l-0.1-0.1c0,0,0,0,0,0l-0.1-0.1c0,0,0,0,0,0c0,0,0,0,0,0s0,0,0-0.1s0,0,0-0.1s-0.1-0.1-0.1-0.1
			c0,0,0,0,0,0h0c0,0-0.1,0-0.1,0c0,0,0,0,0,0c0,0,0,0,0,0c0,0,0,0-0.1,0c0,0-0.1,0-0.1,0c0,0,0,0,0,0c0,0,0,0,0,0c0,0,0,0-0.1-0.1
			c0,0,0,0,0,0c0,0,0,0,0,0c0,0,0-0.1,0-0.1c0,0,0,0-0.1,0c0,0,0,0-0.1,0v0c0,0,0,0,0,0c0,0,0,0,0,0c0,0,0,0,0,0c0,0,0-0.1,0-0.1
			c0,0,0,0,0-0.1s0-0.1-0.1-0.1c0,0,0,0,0,0c0,0,0,0,0,0c0,0,0,0,0,0c0,0,0-0.1,0-0.1v0c0,0,0-0.1,0-0.1c0-0.1,0-0.1-0.1-0.2
			c0,0,0-0.1-0.1-0.1c0,0,0,0,0-0.1c0,0,0-0.1-0.1-0.1s0,0-0.1,0l-0.1-0.1l-0.1-0.1l-0.1-0.1c0,0,0,0-0.1,0s0,0-0.1,0
			c0,0-0.1-0.1-0.1-0.1c0,0,0-0.1,0-0.1v0c0,0,0-0.1,0-0.1c0,0,0-0.1,0-0.1c0,0,0-0.1,0-0.1v-0.1c0,0,0-0.1,0-0.1v-0.1c0,0,0,0,0,0
			c0,0,0,0,0,0h0c0,0,0,0,0,0c0,0,0,0-0.1-0.1l-0.1-0.1c0,0,0-0.1,0-0.1v0c0,0,0-0.1,0-0.1c0,0,0,0-0.1,0c0,0,0,0-0.1,0
			c0,0-0.1-0.1-0.1-0.1c0,0-0.1,0-0.1-0.1c0,0,0-0.1-0.1-0.1c0,0,0-0.1-0.1-0.1c0,0,0-0.1,0-0.1c0,0,0-0.1,0-0.1s0,0,0-0.1l-0.1-0.1
			c0,0,0-0.1-0.1-0.1c0,0,0-0.1,0-0.1c0,0,0,0,0-0.1c0,0-0.1-0.1-0.1-0.1c0,0,0,0,0,0c0-0.1-0.1-0.2-0.1-0.2c0-0.1-0.1-0.1-0.1-0.2
			c0,0,0-0.1,0-0.1l-0.1-0.1c0,0-0.1-0.1-0.1-0.1S108,9.9,108,9.9s0-0.1,0-0.1c0,0,0-0.1-0.1-0.1s-0.1,0-0.1-0.1s0,0,0,0
			c0,0,0,0,0,0l0,0l0,0c0,0-0.1-0.1-0.1-0.1c0,0,0-0.1-0.1-0.1c0,0,0-0.1-0.1-0.1c0,0,0-0.1,0-0.1c0,0,0,0,0,0c0,0,0,0,0,0
			c0,0,0,0,0.1,0l0.1,0.1c0,0,0.1,0.1,0.1,0.1c0,0,0,0.1,0,0.1c0,0,0,0.1,0,0.1c0,0,0,0,0,0c0,0,0,0,0,0c0,0,0.1,0.1,0.1,0.1
			c0,0,0.1,0.1,0.2,0.1c0,0,0.1,0,0.1,0c0,0,0,0,0,0c0,0,0,0,0,0V9.7c0,0,0-0.1,0-0.1c0,0,0-0.1,0-0.1s0-0.1,0-0.1V9.3
			c0,0,0-0.1,0-0.1c0,0,0-0.1,0-0.1c0,0,0,0,0-0.1c0,0,0-0.1,0-0.1c0,0,0-0.1,0-0.1c0,0,0,0,0-0.1s0-0.1-0.1-0.1s0,0,0-0.1
			c0,0,0-0.1,0-0.1c0,0,0,0-0.1,0c0,0-0.1,0-0.1,0c0,0-0.1,0-0.1,0h-0.2c0,0,0,0-0.1,0c0,0,0,0-0.1,0c0,0-0.1,0-0.1,0l-0.1,0.1
			c0,0,0,0,0,0s0-0.1-0.1-0.1c0,0-0.1,0-0.1,0c-0.1,0-0.2,0-0.3,0c-0.1,0-0.2,0-0.2,0.1c-0.1,0-0.1,0-0.1,0.1c0,0-0.1,0.1-0.1,0.1
			c-0.1,0-0.1,0-0.2,0c-0.1,0-0.1,0-0.1,0c0,0-0.1,0-0.1,0c0,0-0.1,0-0.1,0c0,0-0.1,0-0.1,0h0c-0.1,0-0.2-0.1-0.4-0.1
			c-0.1,0-0.2,0-0.3,0c-0.1,0-0.1,0-0.1,0l0,0c0,0,0,0,0-0.1c0,0-0.1,0-0.1,0h-0.1c0,0-0.1,0-0.1,0c-0.1,0-0.2,0-0.2,0
			c-0.1,0-0.1-0.1-0.1-0.1c0,0-0.1-0.1-0.1-0.1s-0.2,0-0.3-0.1c-0.1,0-0.2,0-0.2,0c-0.1,0-0.1,0-0.2,0.1c-0.1,0.1-0.2,0.1-0.2,0.2
			c0,0,0,0.1,0,0.1c0,0,0,0.1,0,0.1c0,0.1,0,0.1,0,0.2c0,0.1,0,0.1,0,0.1c0,0,0,0.1-0.1,0.1c-0.1,0-0.1,0.1-0.2,0.1c0,0,0,0-0.1,0
			c0,0-0.1,0-0.1,0c-0.1,0-0.1-0.1-0.2-0.1c-0.1-0.1-0.2-0.1-0.3-0.1c-0.1,0-0.2-0.1-0.4-0.1c-0.1,0-0.2,0-0.3-0.1
			c-0.1,0-0.1,0-0.1-0.1l-0.1-0.2c0,0,0-0.1-0.1-0.1c0,0-0.1,0-0.1-0.1c0,0,0,0-0.1,0h-0.2c-0.1,0-0.2,0-0.3,0c-0.1,0-0.1,0-0.2,0
			c-0.1,0-0.1,0-0.2-0.1c-0.1,0-0.1,0-0.2,0c0,0,0,0-0.1,0s0,0-0.1,0c0,0-0.1,0-0.1,0l0,0c0,0,0,0,0,0c0,0,0,0,0,0c0,0,0,0,0,0
			c0,0,0,0,0,0c0,0,0,0,0,0c0,0,0,0,0,0h-0.1c0,0,0,0,0,0h0c0,0,0,0,0,0c0,0-0.1,0-0.1,0l-0.1-0.1V7.6c0,0,0-0.1,0-0.1l0.1-0.1
			c0,0,0,0,0.1,0c0,0,0,0,0.1,0c0,0,0.1-0.1,0.1-0.1V7.1l0,0V7c0,0,0,0,0-0.1c0,0,0,0,0,0s0,0-0.1,0s0,0,0-0.1V6.8
			c0,0,0-0.1,0.1-0.1c0,0,0,0,0,0c0,0,0.1-0.1,0.1-0.1c0,0,0,0,0-0.1c0,0,0,0,0-0.1c0,0,0,0-0.1,0c0,0,0,0-0.1,0c0,0,0,0,0,0h0
			c0,0-0.1,0-0.1,0c0,0,0,0,0,0c0,0,0,0,0,0c0,0,0,0,0-0.1c0,0-0.1,0-0.1,0h-0.2l-0.1,0.1c0,0-0.1,0-0.1,0c0,0-0.1,0-0.1,0
			c0,0-0.1,0-0.1,0h0c0,0-0.1,0-0.1,0l0,0c0,0-0.1,0-0.1,0c0,0,0,0,0,0h-0.1c0,0,0,0,0,0c0,0,0,0,0,0h0c0,0,0,0-0.1,0h-0.1
			c0,0,0,0,0,0c0,0,0,0,0,0c0,0,0,0,0,0l-0.1,0.1c0,0-0.1,0-0.1,0c0,0-0.1,0-0.1,0c0,0,0,0,0,0h0c0,0-0.1,0-0.1,0c0,0,0,0-0.1,0
			c0,0-0.1,0-0.1,0h0c0,0-0.1,0-0.1,0h-0.1c0,0,0,0,0,0c0,0-0.1,0-0.1,0h-0.1c0,0,0,0-0.1,0c0,0,0,0,0,0c0,0,0,0,0,0h-0.1
			c0,0,0,0-0.1,0c0,0,0,0-0.1,0h-0.2c-0.1,0-0.2,0-0.3,0.1c0,0-0.1,0-0.1,0.1c0,0,0,0-0.1,0c0,0,0,0-0.1,0h0c0,0-0.1,0-0.1,0
			c0,0,0,0-0.1,0c0,0,0,0,0,0c0,0,0,0-0.1,0s0,0,0,0c0,0,0,0,0,0c0,0,0,0,0,0c0,0,0,0,0,0h0c0,0-0.1,0.1-0.1,0.1c0,0,0,0-0.1,0
			c0,0,0,0,0,0c0,0,0,0,0,0h-0.1c0,0-0.1,0-0.1,0c0,0-0.1,0-0.1,0c-0.1,0-0.1,0-0.1,0h-0.3c0,0-0.1,0-0.1,0h-0.1c0,0-0.1,0-0.1,0
			c0,0-0.1-0.1-0.1-0.1l0,0l-0.1-0.1c0,0-0.1-0.1-0.2-0.1c0,0-0.1,0-0.1,0c0,0,0,0-0.1,0.1C93,7,93,7.1,92.9,7.2c0,0,0,0.1-0.1,0.1
			c0,0,0,0.1,0,0.1c0,0,0,0,0,0.1c0,0-0.1,0-0.1,0.1c0,0,0,0,0,0c-0.1,0-0.1,0-0.1,0.1c0,0,0,0,0,0s0,0,0,0c0,0,0,0-0.1,0
			c-0.1,0-0.1,0-0.2,0.1c0,0,0,0-0.1,0C92.1,7.9,92,7.9,92,8l0,0c0,0-0.1,0.1-0.1,0.1c0,0,0,0,0,0c0,0,0,0,0,0c0,0,0,0.1,0,0.1
			c0,0,0,0.1,0,0.1s0,0,0,0.1l0,0l-0.1,0.1c0,0,0,0.1,0,0.1v0.3c0,0,0,0.1,0,0.1c0,0,0,0.1,0,0.1c0,0,0,0.1-0.1,0.1l0,0l0,0
			c0,0,0,0,0,0.1c0,0,0,0.1-0.1,0.1l-0.1,0.1l0,0c0,0,0,0,0,0s-0.1,0-0.1,0.1c0,0,0,0-0.1,0s-0.1,0.1-0.1,0.1c0,0-0.1,0-0.1,0.1
			c-0.1,0-0.1,0-0.2,0.1c0,0-0.1,0-0.1,0c-0.1,0-0.2,0-0.3,0.1C90.1,10,90,10,90,10.1c0,0,0,0.1,0,0.1v0l-0.1,0.1c0,0-0.1,0-0.1,0.1
			c0,0-0.1,0-0.1,0c0,0,0,0,0,0c0,0,0,0,0,0c0,0,0,0,0,0.1c0,0,0,0,0,0.1v0c0,0,0,0.1,0,0.1l0,0l0,0c0,0-0.1,0.1-0.1,0.1
			c0,0,0,0.1,0,0.1c0,0,0,0,0,0.1s0,0.1,0,0.1c0,0,0,0,0,0c0,0,0,0,0,0c0,0,0,0,0,0c-0.1,0-0.1,0-0.2,0.1c-0.1,0-0.1,0.1-0.2,0.2
			c0,0,0,0,0,0c0,0-0.1,0.1-0.1,0.1l-0.1,0.1c0,0-0.1,0.1-0.1,0.1s0,0.1,0,0.1c0,0,0,0,0,0c0,0,0,0,0,0c0,0,0,0,0,0.1c0,0,0,0,0,0
			c0,0,0,0,0,0s0,0,0,0c0,0-0.1,0.1-0.1,0.1c0,0,0,0.1,0,0.1v0.1c0,0,0,0,0,0c0,0,0,0,0,0l0,0l0,0c0,0,0.1,0.1,0.1,0.1
			c0,0,0,0,0,0.1c0,0,0,0.1,0,0.1V13c0,0,0,0.1,0,0.1c0,0,0,0,0,0c0,0,0,0,0,0c0,0,0,0,0,0c0,0,0,0,0,0.1c0,0,0,0,0,0
			c0,0,0,0.1,0.1,0.1c0,0,0,0.1,0.1,0.1c0,0.1,0,0.1,0,0.2c0,0.1,0,0.1,0,0.2c0,0,0,0.1,0,0.1c0,0.1,0,0.1-0.1,0.2c0,0,0,0,0,0
			c0,0,0,0.1,0,0.1c0,0,0,0.1,0,0.1c0,0.1,0,0.1,0,0.2c0,0.1-0.1,0.1-0.1,0.2c0,0,0,0,0,0l-0.1,0.1c0,0,0,0-0.1,0c0,0-0.1,0,0,0.1
			c0,0,0,0.1,0.1,0.1v0c0,0.1,0.1,0.2,0.2,0.3l0,0v0c0,0,0,0,0,0c0,0,0,0,0,0h0c0,0,0,0-0.1,0c0,0,0,0,0,0s0,0,0,0c0,0,0,0,0,0.1
			v0.1c0,0,0,0,0,0.1h0c0,0,0,0.1,0.1,0.1h0c0,0-0.1,0-0.1,0s0,0,0,0.1s0.1,0,0.1,0c0,0,0,0,0,0s0,0,0.1,0h0.1c0,0,0,0,0,0
			c0,0,0,0,0,0c0,0,0,0,0,0c0,0,0,0,0,0h0.1c0,0,0,0,0,0c0,0,0,0,0,0c0,0,0,0,0,0h0c0,0-0.1,0-0.1,0l0,0c0,0-0.1,0.1-0.1,0.1
			c0,0,0,0,0,0v0.1c0,0,0,0,0,0l0,0c0.1,0,0.1,0,0.2-0.1h0.1c0,0,0,0,0.1,0h0.1c0,0,0.1,0,0.1,0s0,0,0,0c0,0,0,0,0,0v0c0,0,0,0,0,0
			c0,0,0,0,0,0c0,0,0,0,0,0c0,0,0,0,0,0v0.1c0,0,0,0.1,0,0.1c0,0,0,0.1,0.1,0.1c0,0,0,0,0.1,0c0,0,0,0,0,0c0,0,0,0,0,0l0,0
			c0,0,0,0,0,0c0,0,0,0,0,0c0,0,0,0,0,0l0,0c0,0,0,0,0,0c0,0,0,0,0,0c0,0,0,0.1,0,0.1c0,0,0,0,0,0c0,0,0,0,0,0l0,0v0.1c0,0,0,0,0,0
			c0,0,0,0,0,0c0,0,0,0,0,0c0,0,0,0,0,0c0,0,0,0,0,0l0.1,0.1l0,0c0,0,0,0,0,0c0,0,0,0,0,0c0,0,0,0,0,0c0,0,0,0,0.1,0c0,0,0,0,0,0
			c0,0,0,0,0,0c0,0,0,0,0,0s0,0,0,0v0c0,0,0,0,0,0c0,0,0,0,0,0c0,0,0.1,0,0.1,0c0,0,0.1,0,0.1,0c0,0,0,0,0.1,0c0,0,0.1,0.1,0.1,0.1
			c0,0,0.1,0.1,0.1,0.1c0,0,0,0,0.1,0c0,0,0,0,0,0c0,0,0,0,0,0c0,0,0.1,0,0.1,0.1c0,0,0,0,0,0c0,0,0,0,0,0c0,0,0.1,0,0.1,0.1
			l0.1,0.1c0,0,0,0,0,0s0,0.1,0.1,0.1c0,0,0.1,0,0.1,0.1c0,0,0,0,0,0c0,0,0,0,0,0c0,0,0,0,0,0c0,0,0,0,0,0c0,0,0.1,0.1,0.1,0.1
			c0,0,0,0,0.1,0c0,0,0,0,0,0c0,0,0.1,0,0.1,0.1c0,0,0.1,0,0.1,0c0.1,0,0.1,0,0.2,0.1c0,0,0.1,0,0.1,0c0,0,0.1,0,0.1,0
			c0,0,0,0,0.1,0c0.1,0,0.1-0.1,0.3-0.1c0.1,0,0.2-0.1,0.3-0.1c0.1,0,0.2,0,0.2-0.1h0.2c0,0,0.1,0,0.1,0c0,0,0.1,0,0.1,0h0.3
			c0,0,0.1,0,0.1,0c0,0,0,0,0,0c0,0,0,0,0,0c0,0,0,0,0,0c0,0,0,0,0,0c0,0,0,0,0,0c0,0,0,0,0.1,0c0,0,0,0,0,0l0.1,0.1
			c0,0,0.1,0,0.1,0l0,0c0,0,0.1,0,0.1,0c0,0,0,0,0,0c0,0,0,0,0,0c0,0,0.1,0,0.1,0l0,0c0,0,0,0,0.1,0s0.1,0,0.1,0c0,0,0.1,0,0.1,0
			c0,0,0,0,0,0c0,0,0,0,0,0c0,0,0,0,0,0c0,0,0.1-0.1,0.1-0.1c0,0,0.1,0,0.1,0c0.1,0,0.1,0,0.1,0c0.1,0,0.1,0,0.2,0
			c0.1,0,0.1,0,0.2-0.1c0.1,0,0.1,0,0.2-0.1l0,0c0,0,0,0,0.1,0c0,0,0.1,0,0.1,0h0.1c0,0,0.1,0,0.1,0s0,0,0.1,0h0.1c0,0,0.1,0,0.1,0
			c0,0,0.1,0,0.1,0h0.2c0.1,0,0.1,0,0.2,0c0.1,0,0.1,0,0.1,0.1l0.1,0.1l0.1,0.1c0,0,0,0,0.1,0c0,0,0,0,0,0c0,0,0,0,0,0c0,0,0,0,0,0
			l0,0l0,0v0.1l0.1,0.1c0,0,0,0,0,0c0,0,0,0,0,0c0,0.1,0,0.1,0,0.1c0,0,0.1,0,0.1,0h0.1c0,0,0.1,0,0.1,0h0.1c0,0,0,0,0.1,0
			c0,0,0,0,0,0c0,0,0,0,0,0h0.1c0,0,0.1,0,0.1,0c0,0,0.1,0,0.1,0s0,0,0,0v0c0,0,0,0,0.1,0c0,0,0.1,0,0.1,0h0.1c0,0,0,0,0.1,0
			s0.1,0.1,0.1,0.1s0,0,0,0c0,0,0,0,0,0c0,0,0,0,0,0c0,0,0,0,0.1,0c0,0,0.1,0,0.1,0c0,0,0.1,0,0.1,0.1c0,0,0,0.1,0,0.1
			c0,0,0,0.1,0,0.1c0,0,0,0.1,0,0.1v0.1c0,0,0,0.1,0,0.1h0c0,0,0,0,0,0.1v0.1c0,0,0,0,0,0s0,0,0,0c0,0,0,0,0,0.1l0,0
			c0,0,0,0.1,0,0.1c0,0,0,0,0,0.1v0.1c0,0,0,0,0,0c0,0,0,0,0,0c0,0,0,0-0.1,0s0,0.1,0,0.1s0,0,0.1,0c0,0,0.1,0,0.1,0s0,0,0,0h-0.1
			c0,0-0.1,0-0.1,0c0,0,0,0,0,0.1v0c0,0,0,0,0,0s0,0,0,0c0,0,0,0,0,0.1c0,0,0,0,0,0c0,0,0,0,0,0l0,0c0,0,0,0,0,0c0,0,0,0,0,0
			c0,0,0,0,0,0c0,0,0,0,0,0.1v0c0,0,0,0,0,0s0,0,0.1,0h0.1c0,0,0,0,0,0c0,0,0,0,0,0v0c0,0,0,0,0,0h0c0,0,0,0,0,0v0l0,0c0,0,0,0,0,0
			c0,0,0,0,0,0c0,0,0,0,0,0c0,0,0,0,0,0h0c0,0,0,0,0,0c0,0,0,0,0,0h-0.1v0c0,0,0,0,0,0.1l0,0c0,0,0,0,0.1,0c0,0,0,0,0,0h0
			c0,0,0.1,0,0.1,0s0,0,0,0h0c0,0,0,0,0,0c0,0,0,0,0.1,0.1c0,0,0.1,0,0.1,0.1c0,0,0.1,0.1,0.1,0.1c0.1,0.1,0.2,0.1,0.2,0.2l0,0l0,0
			c0,0,0,0.1,0.1,0.1c0,0,0.1,0.1,0.1,0.1c0,0,0,0,0,0c0,0,0,0,0,0c0,0,0,0,0,0.1s0,0.1,0.1,0.1c0,0,0,0,0,0s0,0,0,0
			c0,0,0,0.1,0.1,0.1V23c0,0,0,0.1,0,0.1l0,0c0,0,0,0.1,0,0.1c0,0,0,0,0,0.1c0,0.1,0,0.1,0.1,0.2c0,0,0,0.1,0.1,0.1
			c0,0.1,0.1,0.2,0.1,0.3c0,0.1,0.1,0.2,0.1,0.3c0,0.1,0,0.1,0,0.1c0,0,0,0,0,0c0,0,0,0,0,0c0,0,0,0,0,0c0,0,0,0,0,0h0
			c0,0-0.1,0-0.1,0.1s0,0,0.1,0.1c0,0,0,0,0,0v0c0,0.1,0.1,0.3,0.2,0.5c0,0.1,0.1,0.2,0.1,0.4c0,0.1,0,0.1,0,0.2
			c0,0.1-0.1,0.1-0.1,0.2l0,0h0c0,0-0.1,0-0.1,0c0,0-0.1,0.1-0.1,0.1v0c0,0,0,0.1-0.1,0.1h0c0,0-0.1,0-0.1,0.1c0,0.1,0,0.1,0,0.2
			c0,0,0,0.1,0,0.1c0,0.1,0,0.1,0,0.2c0,0,0,0,0,0c0,0,0,0,0,0.1c0,0,0,0.1,0,0.1L99.6,27c0,0,0,0.1,0,0.1s0,0-0.1,0.1v0.1
			c0,0.1,0,0.1,0,0.2v0.1c0,0,0,0,0,0c0,0,0,0,0,0v0.2c0,0.1,0,0.1,0,0.2c0,0.1,0.1,0.1,0.1,0.2c0,0,0,0.1,0.1,0.1l0,0
			c0,0.1,0.1,0.1,0.1,0.2c0.1,0.1,0.1,0.2,0.2,0.4c0,0,0,0,0,0c0,0.1,0,0.1,0.1,0.2c0,0,0,0.1,0.1,0.1c0,0,0,0.1,0.1,0.1
			c0,0,0,0.1,0.1,0.1c0,0,0,0.1,0,0.1l0.1,0.1c0,0,0,0.1,0.1,0.1c0,0,0.1,0.1,0.1,0.2c0,0.1,0,0.2,0,0.3v0.2c0,0.1,0,0.1,0,0.2
			c0,0,0,0.1,0,0.1v0c0,0,0,0.1,0,0.1v0c0,0,0,0.1,0,0.1l0,0c0,0,0,0.1,0,0.1v0.2c0,0,0,0.1,0,0.1v0.1c0,0,0,0,0,0c0,0,0,0,0,0
			c0,0,0,0,0,0c0,0,0,0,0,0s0,0,0,0c0,0,0,0,0,0c0,0,0,0,0,0.1c0,0,0,0,0,0.1s0,0.1,0,0.1v0c0,0,0,0.1,0,0.1c0,0,0,0,0,0
			c0,0,0.1,0.1,0.1,0.1l0,0c0,0,0.1,0.1,0.1,0.2c0.1,0,0.1,0.1,0.1,0.1c0,0.1,0.1,0.1,0.1,0.2c0,0,0.1,0.1,0.1,0.1s0,0,0,0
			c0,0,0,0.1,0,0.1v0c0,0.1,0,0.1,0,0.1c0,0,0,0.1,0,0.1c0,0.1,0.1,0.1,0.1,0.2v0l0.1,0.1c0,0.1,0.1,0.1,0.1,0.2l0,0c0,0,0,0,0,0.1
			s0,0.1,0,0.1v0v0.1c0,0,0,0.1,0,0.1c0,0,0,0-0.1,0h0c0,0,0,0,0,0c0,0,0,0,0,0c0,0,0,0.1,0,0.1c0,0,0,0.1,0.1,0.1s0,0,0,0.1
			c0,0.1,0,0.1,0,0.1v0c0,0,0,0.1,0,0.1s0,0,0.1,0c0,0,0,0,0,0h0c0,0,0,0,0,0c0,0,0,0,0,0c0,0,0,0,0,0c0,0,0,0,0,0c0,0,0,0,0,0v0
			c0,0,0,0,0,0c0,0,0,0,0,0h0c0,0,0,0,0,0c0,0,0.1,0,0.1,0.1c0,0,0,0,0,0c0,0,0,0,0,0c0,0,0.1,0.1,0.1,0.1c0,0,0.1,0,0.1,0
			c0,0,0.1,0,0.1-0.1c0,0,0,0,0,0c0.1,0,0.1-0.1,0.2-0.1c0,0,0.1,0,0.2,0c0.1,0,0.1,0,0.2,0c0,0,0.1,0,0.1,0l0,0l0,0c0,0,0,0,0,0
			c0,0,0,0,0,0h0.2c0,0,0.1,0,0.1,0h0.3c0,0,0.1,0,0.1,0c0.1,0,0.1,0,0.2,0c0,0,0.1,0,0.1,0s0,0,0,0c0,0,0.1,0,0.1,0h0.1
			c0,0,0,0,0,0c0,0,0,0,0,0h0c0.1,0,0.1,0,0.2,0h0c0.1,0,0.2,0,0.3-0.1c0.1,0,0.2-0.1,0.2-0.1c0,0,0.1-0.1,0.1-0.1
			c0,0,0-0.1,0.1-0.1c0,0,0.1,0,0.1-0.1c0,0,0,0,0.1,0c0.1,0,0.1-0.1,0.2-0.1c0-0.1,0.1-0.1,0.1-0.2c0.1-0.1,0.1-0.1,0.2-0.2h0
			c0,0,0.1,0,0.1,0c0,0,0.1,0,0.1,0c0,0,0.1,0,0.1,0c0,0,0,0,0,0c0,0,0,0,0,0l0,0c0,0,0-0.1,0-0.1c0,0,0,0,0,0c0,0,0,0,0,0
			c0,0,0,0,0,0c0,0,0,0,0,0c0,0,0,0,0,0c0,0,0,0,0,0c0-0.1,0.1-0.1,0.1-0.1l0,0c0,0,0.1-0.1,0.1-0.1s0,0,0,0c0,0,0,0,0,0
			c0,0,0-0.1,0.1-0.1c0,0,0,0,0.1,0c0,0,0.1,0,0.1-0.1l0,0l0,0c0,0,0-0.1,0.1-0.1c0,0,0.1,0,0.1-0.1c0,0,0,0,0.1,0
			c0,0,0.1-0.1,0.1-0.1c0,0,0-0.1,0-0.1c0,0,0-0.1,0-0.1c0-0.1,0.1-0.1,0.1-0.2c0,0,0,0,0,0c0,0,0,0,0,0c0,0,0,0,0,0
			c0,0,0-0.1,0-0.1c0,0,0,0,0-0.1v0c0,0,0,0,0,0c0,0,0,0,0,0v0c0,0,0,0,0,0c0,0,0,0,0,0h0c0,0,0,0,0,0c0,0,0,0,0,0s0,0,0-0.1v-0.1
			c0,0,0-0.1,0.1-0.1c0,0,0.1-0.1,0.1-0.1c0,0,0.1,0,0.1-0.1c0,0,0.1,0,0.2,0s0.1,0,0.2,0c0.1,0,0.1,0,0.2-0.1c0.1,0,0.1,0,0.1-0.1
			c0,0,0.1-0.1,0.1-0.1c0,0,0-0.1,0.1-0.1c0,0,0-0.1,0-0.1c0,0,0,0,0-0.1c0,0,0-0.1,0-0.1c0,0,0-0.1,0.1-0.1c0,0,0-0.1,0-0.1V30
			c0,0,0,0,0,0c0,0,0,0,0,0s0-0.1,0-0.2c0-0.1,0-0.1,0-0.1s0-0.1,0-0.1s0-0.1,0-0.1c0,0,0-0.1,0-0.1l-0.1-0.1c0,0,0,0,0-0.1
			c0-0.1,0-0.1,0-0.1c0,0,0-0.1,0.1-0.1c0,0,0-0.1,0.1-0.1s0.1,0,0.1-0.1s0.1,0,0.1-0.1c0,0,0-0.1,0.1-0.1c0,0,0.1-0.1,0.1-0.1
			c0,0,0,0,0.1-0.1c0,0,0.1-0.1,0.1-0.1c0,0,0.1-0.1,0.1-0.1c0,0,0-0.1,0.1-0.1c0-0.1,0.1-0.1,0.1-0.1c0.1,0,0.1-0.1,0.2-0.1
			c0.1,0,0.3-0.1,0.4-0.1c0.1,0,0.1-0.1,0.2-0.1c0.1,0,0.1,0,0.1-0.1c0,0,0.1,0,0.1,0c0,0,0,0,0,0s0,0,0,0c0,0,0-0.1,0-0.1l0,0
			c0,0,0,0,0.1,0c0,0,0,0,0,0c0,0,0.1-0.1,0.1-0.1c0,0,0.1-0.1,0.1-0.1c0,0,0-0.1,0.1-0.1c0,0,0-0.1,0-0.1c0-0.1,0-0.1,0-0.2v-0.1
			c0,0,0-0.1,0-0.1v-0.1c0,0,0-0.1,0-0.1v-0.1c0,0,0-0.1,0-0.1c0,0,0-0.1,0-0.1c0,0,0,0,0-0.1c0,0,0-0.1,0-0.1s0-0.1,0-0.1v-0.1
			c0,0,0,0,0-0.1s0,0,0-0.1c0,0,0,0,0,0s0,0,0,0c0,0,0-0.1,0-0.1c0,0,0,0,0-0.1c0,0,0,0,0-0.1v0c0,0,0,0,0-0.1c0,0,0-0.1-0.1-0.1
			c0,0,0,0,0,0c0,0,0,0,0,0c0,0,0,0-0.1,0s-0.1,0-0.1,0c0,0,0-0.1,0-0.1c0,0,0-0.1,0-0.1c0,0,0-0.1,0-0.1c0,0,0,0,0-0.1
			c0,0,0-0.1,0-0.1c0-0.1,0-0.1,0-0.2v0c0,0,0,0,0-0.1v-0.1c0,0,0,0,0,0v-0.1c0,0,0-0.1,0-0.1c0,0,0,0,0,0c0,0,0,0,0,0v-0.1
			l-0.1-0.1c0,0,0,0,0,0l0,0l0,0c0,0-0.1-0.1-0.1-0.1c0-0.1,0-0.1,0-0.2c0-0.1,0-0.2,0.1-0.3c0-0.1,0.1-0.1,0.1-0.2c0,0,0,0,0-0.1
			c0,0,0-0.1,0.1-0.1c0,0,0.1-0.1,0.1-0.1c0,0,0-0.1,0-0.1c0,0,0-0.1,0-0.1l0.1-0.1c0,0,0,0,0-0.1v-0.1c0,0,0,0,0,0c0,0,0,0,0.1,0
			c0,0,0.1,0,0.1,0l0.1-0.1c0,0,0-0.1,0.1-0.1c0,0,0.1-0.1,0.1-0.1c0,0,0-0.1,0.1-0.1c0,0,0,0,0,0c0,0,0,0,0,0c0,0,0,0,0,0
			c0,0,0.1-0.1,0.1-0.1c0,0,0,0,0,0c0,0,0,0,0,0c0,0,0.1-0.1,0.1-0.1c0.1-0.1,0.1-0.1,0.2-0.2l0.1-0.1l0,0l0.1-0.1
			c0,0,0.1,0,0.1-0.1c0,0,0,0,0,0c0,0,0.1-0.1,0.1-0.1l0.1-0.1l0,0c0,0,0.1-0.1,0.1-0.1c0,0,0,0,0.1,0s0,0,0,0c0,0,0,0,0,0
			c0,0,0,0,0,0c0.1-0.1,0.1-0.1,0.2-0.1c0,0,0,0,0,0s0.1,0,0.1,0c0.1,0,0.1,0,0.1-0.1c0.1-0.1,0.1-0.1,0.2-0.2c0,0,0,0,0,0
			c0,0,0,0,0,0c0,0,0.1-0.1,0.1-0.1c0.1-0.1,0.1-0.1,0.2-0.2l0.1-0.1c0,0,0.1-0.1,0.1-0.1c0,0,0.1-0.1,0.1-0.1c0,0,0-0.1,0.1-0.1
			c0,0,0,0,0-0.1c0,0,0,0,0-0.1s0,0,0-0.1c0-0.1,0.1-0.2,0.1-0.2c0-0.1,0-0.1,0-0.1s0,0,0-0.1c0-0.1,0.1-0.1,0.1-0.2c0,0,0,0,0,0
			c0,0,0,0,0,0c0,0,0,0,0,0c0,0,0,0,0,0c0,0,0,0,0,0c0,0,0,0,0-0.1c0,0,0,0,0,0v-0.1c0,0,0-0.1,0-0.1c0,0,0,0,0,0c0,0,0,0,0,0
			c0,0,0,0,0,0c0,0,0,0,0,0c0,0,0,0,0,0c0,0,0.1-0.1,0.1-0.1c0.1-0.1,0.1-0.2,0.1-0.3c0-0.1,0-0.1,0-0.2v-0.1c0,0,0-0.1,0-0.1
			c0,0,0-0.1,0-0.1c0-0.1,0-0.1,0-0.2C115.3,16.4,115.3,16.3,115.4,16.2"/>
		<path class="st3" d="M12.9,12.9L8.7,2l-4.3,11H12.9z M0,19.8L7.7,0.4h2.1l7.8,19.5h-1.9l-2.1-5.3H3.8l-2.1,5.3H0z"/>
		<path class="st3" d="M19.7,19.8V7.8H17V6.3h2.7V3.4C19.7,1.1,20.6,0,23,0c0.5,0,1.1,0.2,1.5,0.3v1.3c-0.3-0.1-0.7-0.1-1-0.1
			c-2.2,0-2.3,1.1-2.2,3v1.7h3.1v1.5h-3.1v12.1L19.7,19.8L19.7,19.8z"/>
		<path class="st3" d="M27.8,19.8h-1.6V9.3c0-1.1-0.1-2.1-0.1-3h1.7l0.1,2h0.1c0.5-1.4,1.7-2.4,3-2.4c0.5,0,1.1,0,1.6,0v1.6
			c-0.3,0-0.7-0.1-1-0.1c-2.4,0-3.7,1.7-3.7,4.3L27.8,19.8L27.8,19.8z"/>
		<path class="st3" d="M35.5,19.8h-1.6V6.3h1.6V19.8z M35.6,2.4h-1.9v-2h1.9V2.4z"/>
		<path class="st3" d="M47,10.4c-0.1-2.1-1.4-3.1-3.7-3.1c-2.5,0-4,2.6-4,5.7c0,3.1,1.5,5.7,4,5.7c2.1,0,3.5-1.3,3.7-3.2h1.7
			c-0.4,3.1-2.2,4.6-5.3,4.6c-4.1,0-5.9-3.5-5.9-7.2c0-3.7,2-7.2,6-7.2c2.8,0,5,1.7,5.2,4.6L47,10.4L47,10.4z"/>
		<path class="st3" d="M54.2,18.7c3.5,0,4.2-2.9,4.1-5.7c-2.3,0.1-7.1-0.4-7.1,3C51.1,17.9,52.6,18.7,54.2,18.7z M58.2,10.3
			c-0.2-2.2-1.3-2.9-3.2-2.9c-1.7,0-3.1,0.5-3.3,2.4H50c0.4-2.8,2.5-3.8,5.1-3.8c3,0,4.9,1.4,4.8,4.5v6.4c0,1.1,0.1,2.1,0.1,3h-1.7
			l-0.1-2h-0.1L58.1,18c-0.6,1.1-2.4,2.2-4.2,2.2c-2.5,0-4.5-1.5-4.5-4.2c0-1.8,1.1-3.2,2.7-3.9c1.8-0.8,4.2-0.5,6.1-0.6L58.2,10.3
			L58.2,10.3z"/>
		<path class="st3" d="M64.3,19.8h-1.6V9.3c0-1.1-0.1-2.1-0.1-3h1.7l0.1,2l0.1,0.1c0.9-1.7,2.5-2.5,4.2-2.5c4.4,0,4.8,3.9,4.8,5.5
			v8.5h-1.6v-8.7c0-2.4-1.3-3.7-3.5-3.7c-2.7,0-3.9,2.2-3.9,4.7L64.3,19.8L64.3,19.8z"/>
		<path class="st3" d="M14.9,23.4v12.6c0.1,3.5,2.2,5.7,5.4,5.7c3.2,0,5.2-2.1,5.4-5.7V23.4h1.7V36c-0.1,4.2-2.4,7.2-7.1,7.2
			c-4.7,0-7-3.1-7.1-7.2V23.4H14.9z"/>
		<path class="st3" d="M32.4,42.8h-1.6V32.3c0-1.1-0.1-2.1-0.1-3h1.7l0.1,2l0.1,0.1c0.9-1.7,2.5-2.5,4.2-2.5c4.4,0,4.8,3.9,4.8,5.5
			v8.5h-1.6v-8.7c0-2.4-1.3-3.7-3.6-3.7c-2.7,0-3.9,2.2-3.9,4.7L32.4,42.8L32.4,42.8z"/>
		<path class="st3" d="M46.1,42.8h-1.6V29.3h1.6V42.8z M46.2,25.4h-1.9v-2h1.9V25.4z"/>
		<path class="st3" d="M54.4,30.4c-3.3,0-4.6,3.2-4.6,5.7c0,2.5,1.3,5.7,4.6,5.7c3.3,0,4.6-3.2,4.6-5.7C59,33.5,57.7,30.4,54.4,30.4
			z M60.7,36.1c0,3.5-2,7.2-6.3,7.2s-6.3-3.6-6.3-7.2c0-3.5,2-7.2,6.3-7.2S60.7,32.5,60.7,36.1z"/>
		<path class="st3" d="M64.3,42.8h-1.6V32.3c0-1.1-0.1-2.1-0.1-3h1.7l0.1,2l0.1,0.1c0.9-1.7,2.5-2.5,4.2-2.5c4.4,0,4.8,3.9,4.8,5.5
			v8.5h-1.6v-8.7c0-2.4-1.3-3.7-3.5-3.7c-2.7,0-3.9,2.2-3.9,4.7L64.3,42.8L64.3,42.8z"/>
		<path class="st3" d="M118.8,41.9h-0.2v-0.1h0.5v0.1H118.8l0.1,0.7h-0.1V41.9z"/>
		<path class="st3" d="M119.8,42.2c0-0.1,0-0.2,0-0.3C119.8,42,119.8,42.1,119.8,42.2l-0.2,0.3h-0.1l-0.1-0.3c0-0.1-0.1-0.2-0.1-0.3
			l0,0c0,0.1,0,0.2,0,0.3l0,0.3h-0.1l0-0.7h0.1l0.1,0.4c0,0.1,0.1,0.2,0.1,0.3l0,0c0-0.1,0-0.1,0.1-0.3l0.1-0.4h0.1l0,0.7h-0.1
			L119.8,42.2z"/>
		<path class="st3" d="M119.3,41.3c-0.2,0-0.4,0.1-0.5,0.2c-0.2,0.1-0.3,0.3-0.4,0.4c-0.1,0.2-0.1,0.4-0.1,0.6
			c0,0.2,0.1,0.4,0.3,0.5c0.1,0.1,0.3,0.2,0.5,0.3c0.2,0,0.4,0,0.6-0.1c0.2-0.1,0.3-0.2,0.4-0.4c0.1-0.2,0.2-0.3,0.2-0.5
			c0-0.3-0.1-0.5-0.3-0.7C119.8,41.4,119.6,41.3,119.3,41.3L119.3,41.3z M119.3,43.3c-0.2,0-0.4-0.1-0.6-0.2s-0.3-0.3-0.4-0.5
			c-0.1-0.2-0.1-0.4-0.1-0.6c0-0.2,0.1-0.4,0.3-0.5c0.1-0.1,0.3-0.3,0.5-0.3c0.2,0,0.4,0,0.6,0.1c0.2,0.1,0.4,0.2,0.5,0.4
			c0.1,0.2,0.2,0.4,0.2,0.6c0,0.3-0.1,0.5-0.3,0.7C119.9,43.2,119.6,43.3,119.3,43.3"/>
	</g>
</g>
</svg>
