<?xml version="1.0" encoding="utf-8"?>
<!-- Generator: Adobe Illustrator 25.2.0, SVG Export Plug-In . SVG Version: 6.00 Build 0)  -->
<svg version="1.1" id="Layer_1" xmlns="http://www.w3.org/2000/svg" xmlns:xlink="http://www.w3.org/1999/xlink" x="0px" y="0px"
	 viewBox="0 0 240 120" style="enable-background:new 0 0 240 120;" xml:space="preserve">
<style type="text/css">
	.st0{fill:none;}
	.st1{fill:#1D433B;}
	.st2{fill:#B49C10;}
</style>
<g id="a4f2f1a4-1346-4af4-8496-3998fe7d3e5f">
	<g id="e7e31157-6501-42ce-a1d5-d46c16a75c38">
		<rect x="47.7" class="st0" width="144.7" height="120"/>
		<path class="st1" d="M106,91.2c-4.9,0-8.3-3.6-8.3-8.5c0-4.9,3.4-8.5,8.3-8.5c2.5,0,4.9,1.2,6.3,3.3l3.6-3.7
			c-2.5-2.9-6.3-4.6-10.2-4.5c-8,0-13.5,5.5-13.5,13.4s5.5,13.4,13.5,13.4c4.2,0,7.7-1.5,10.4-4.5l-3.6-3.6
			C111,90.1,108.5,91.3,106,91.2z M82.8,82.1c1.8-1,2.9-3,2.9-5.1c0-4.2-3.4-6.8-8.9-6.8H63.1v0.4c1.1,0.3,1.7,1.2,1.7,4.2v20.5
			h12.8c5.8,0,9.4-2.6,9.4-7C87,85.4,85.4,83.2,82.8,82.1L82.8,82.1z M70.2,74.9h6.3c2.4,0,3.7,1,3.7,2.7c0,1.7-1.4,2.7-3.7,2.7
			h-6.3V74.9z M77.2,90.7h-7V85h7c2.7,0,4.3,1,4.3,2.9S80,90.7,77.2,90.7z M168.2,83.3v0.4c1.1,0.3,1.7,1.2,1.7,4.2v1.3l0,0
			c-1.5,1.4-3.4,2.1-5.5,2c-5,0-8.7-3.5-8.7-8.5c0-4.9,3.5-8.5,8.6-8.5c2.6-0.1,5.1,1.2,6.6,3.3l3.6-3.7c-2.8-3-6.2-4.5-10.4-4.5
			c-8.1,0-13.8,5.5-13.8,13.4s5.7,13.4,13.9,13.4c4.6,0,8.4-1.7,11.2-4.8v-8H168.2z M143.7,78.4c0-5.1-3.7-8.2-10.1-8.2h-12.7v0.4
			c1.1,0.3,1.7,1.2,1.7,4.2v0.7l0,0v19.9h5.4v-8.9h5.7l5.1,8.9h6.1l-6-9.8C142,84.3,143.7,81.8,143.7,78.4L143.7,78.4z M133.3,82
			H128v-7.1h5.3c3.2,0,4.9,1.2,4.9,3.6C138.2,80.7,136.5,81.9,133.3,82L133.3,82z"/>
		<path class="st1" d="M64.8,99.9H66c0.5-0.1,0.9,0.3,1,0.8c0,0,0,0,0,0c0,0.3-0.2,0.5-0.5,0.6c0.3,0.1,0.5,0.4,0.5,0.7
			c0,0.5-0.4,0.9-0.9,0.9c0,0-0.1,0-0.1,0h-1.3V99.9z M65.4,100.4v0.7H66c0.2,0,0.4-0.1,0.4-0.4c0,0,0,0,0,0c0-0.2-0.2-0.4-0.4-0.4
			H65.4z M65.4,101.6v0.8H66c0.2,0,0.4-0.1,0.5-0.3c0,0,0,0,0-0.1c0-0.2-0.2-0.4-0.4-0.4c0,0,0,0,0,0L65.4,101.6z"/>
		<path class="st1" d="M69.6,102.3h-1.3l-0.3,0.7h-0.6l1.2-3h0.7l1.2,3h-0.7L69.6,102.3z M69,100.5l-0.5,1.2h0.9L69,100.5z"/>
		<path class="st1" d="M71.7,100.9v2h-0.6v-3h0.6l1.4,2.1v-2.1h0.6v3h-0.6L71.7,100.9z"/>
		<path class="st1" d="M77.6,101.4c0,0.6-0.3,1.1-0.8,1.3l0.7,0.4l-0.3,0.5l-1.1-0.6H76c-0.9,0-1.6-0.7-1.6-1.6
			c0-0.9,0.7-1.6,1.6-1.6S77.5,100.5,77.6,101.4C77.5,101.4,77.5,101.4,77.6,101.4L77.6,101.4z M76.9,101.4c0-0.5-0.5-0.9-1-0.9
			c-0.5,0-0.9,0.5-0.9,1c0,0.5,0.4,0.9,0.9,0.9C76.5,102.4,76.9,102,76.9,101.4L76.9,101.4z"/>
		<path class="st1" d="M78.2,99.9h0.6v1.8c0,0.4,0.2,0.7,0.6,0.7c0.4,0,0.7-0.2,0.7-0.6c0,0,0-0.1,0-0.1v-1.8h0.6v1.8
			c0,0.7-0.5,1.3-1.2,1.3c-0.7,0-1.3-0.5-1.3-1.2c0,0,0-0.1,0-0.1L78.2,99.9z"/>
		<path class="st1" d="M81.5,99.9h1.9v0.5h-1.4v0.7h1.2v0.6h-1.2v0.7h1.4v0.6h-1.9V99.9z"/>
		<path class="st1" d="M87.4,100.7c-0.2-0.2-0.5-0.3-0.7-0.3c-0.5,0-1,0.5-0.9,1c0,0.5,0.5,1,1,0.9c0.2,0,0.5-0.1,0.6-0.3l0.4,0.4
			c-0.3,0.3-0.7,0.5-1.1,0.4c-0.8,0-1.5-0.7-1.5-1.5c0,0,0,0,0,0c0-0.9,0.7-1.6,1.5-1.6c0,0,0,0,0,0c0.4,0,0.8,0.1,1.1,0.4
			L87.4,100.7z"/>
		<path class="st1" d="M88.3,99.9h1.9v0.5h-1.4v0.7h1.2v0.6h-1.2v0.7h1.4v0.6h-1.9V99.9z"/>
		<path class="st1" d="M91.6,100.9v2H91v-3h0.6L93,102v-2.1h0.6v3H93L91.6,100.9z"/>
		<path class="st1" d="M95.6,100.5v2.5H95v-2.5h-0.9v-0.5h2.4v0.5H95.6z"/>
		<path class="st1" d="M97.1,99.9h1.1c0.7,0,1.2,0.4,1.2,0.9c0,0.4-0.3,0.8-0.6,0.9l0.7,1.2h-0.7l-0.6-1.1h-0.4v1.1h-0.6L97.1,99.9z
			 M97.7,100.4v0.9h0.5c0.3,0,0.5-0.2,0.5-0.4s-0.2-0.4-0.5-0.4H97.7z"/>
		<path class="st1" d="M102,102.3h-1.3l-0.3,0.7h-0.6l1.2-3h0.7l1.2,3h-0.7L102,102.3z M101.4,100.5l-0.5,1.2h0.9L101.4,100.5z"/>
		<path class="st1" d="M103.5,99.9h0.6v2.5h1.5v0.6h-2.1V99.9z"/>
		<path class="st1" d="M106.1,99.9h1.9v0.5h-1.4v0.7h1.2v0.6h-1.2v0.7h1.4v0.6h-1.9V99.9z"/>
		<path class="st1" d="M109.9,99.9h1c1,0,1.7,0.6,1.7,1.5c0,0.9-0.7,1.5-1.7,1.5h-1V99.9z M110.5,100.5v1.9h0.4
			c0.5,0.1,1-0.3,1.1-0.8c0.1-0.5-0.3-1-0.8-1.1c-0.1,0-0.2,0-0.2,0L110.5,100.5z"/>
		<path class="st1" d="M113.1,99.9h1.9v0.5h-1.4v0.7h1.2v0.6h-1.2v0.7h1.4v0.6h-1.9V99.9z"/>
		<path class="st1" d="M116.7,99.9h0.6v2.5h1.5v0.6h-2.1V99.9z"/>
		<path class="st1" d="M121.2,102.3h-1.3l-0.3,0.7h-0.6l1.2-3h0.7l1.2,3h-0.6L121.2,102.3z M120.6,100.5l-0.5,1.2h0.9L120.6,100.5z"
			/>
		<path class="st1" d="M123.3,99.9h1.1c0.7,0,1.2,0.4,1.2,0.9c0,0.4-0.3,0.7-0.6,0.9l0.7,1.2h-0.7l-0.6-1.1h-0.4v1.1h-0.6V99.9z
			 M123.9,100.4v0.9h0.5c0.2,0,0.5-0.1,0.5-0.4c0,0,0,0,0-0.1c0-0.3-0.2-0.4-0.5-0.4H123.9z"/>
		<path class="st1" d="M126.3,99.9h1.9v0.5h-1.4v0.7h1.2v0.6h-1.2v0.7h1.4v0.6h-1.9V99.9z M128.1,98.9l-0.6,0.7h-0.5l0.5-0.7
			L128.1,98.9z"/>
		<path class="st1" d="M128.9,99.9h1.1c0.7,0,1.2,0.4,1.2,1s-0.5,1-1.2,1h-0.5v1h-0.6L128.9,99.9z M129.5,100.4v1h0.5
			c0.3,0,0.5-0.2,0.5-0.4c0-0.3-0.2-0.5-0.4-0.5c0,0-0.1,0-0.1,0H129.5z"/>
		<path class="st1" d="M131.8,99.9h0.6v1.8c0,0.4,0.2,0.7,0.6,0.7c0.4,0,0.7-0.2,0.7-0.6c0,0,0-0.1,0-0.1v-1.8h0.6v1.8
			c0,0.7-0.5,1.3-1.2,1.3c-0.7,0-1.3-0.5-1.3-1.2c0,0,0-0.1,0-0.1V99.9z"/>
		<path class="st1" d="M135.1,99.9h1.2c0.5-0.1,0.9,0.3,1,0.8c0,0,0,0,0,0c0,0.3-0.2,0.5-0.5,0.6c0.3,0.1,0.5,0.4,0.5,0.7
			c0,0.5-0.4,0.9-0.9,0.9c0,0-0.1,0-0.1,0h-1.3V99.9z M135.7,100.4v0.7h0.6c0.2,0,0.4-0.1,0.4-0.3c0,0,0,0,0,0
			c0-0.2-0.2-0.4-0.4-0.4H135.7z M135.7,101.6v0.8h0.6c0.2,0,0.4-0.1,0.5-0.3c0,0,0,0,0-0.1c0-0.2-0.2-0.4-0.4-0.4c0,0,0,0,0,0
			L135.7,101.6z"/>
		<path class="st1" d="M138.1,99.9h0.6v2.5h1.5v0.6H138L138.1,99.9z"/>
		<path class="st1" d="M140.7,99.9h0.6v3h-0.6V99.9z"/>
		<path class="st1" d="M145,101.4c0,0.6-0.3,1.1-0.8,1.3l0.7,0.4l-0.3,0.5l-1.1-0.6h-0.1c-0.9,0-1.6-0.7-1.6-1.6
			c0-0.9,0.7-1.6,1.6-1.6S145,100.5,145,101.4C145,101.4,145,101.4,145,101.4L145,101.4z M144.4,101.4c0-0.5-0.5-0.9-1-0.9
			c-0.5,0-0.9,0.5-0.9,1c0,0.5,0.4,0.9,0.9,0.9C144,102.4,144.4,102,144.4,101.4C144.4,101.4,144.4,101.4,144.4,101.4z"/>
		<path class="st1" d="M145.7,99.9h0.6v1.8c0,0.4,0.2,0.7,0.6,0.7c0.4,0,0.7-0.2,0.7-0.6c0,0,0-0.1,0-0.1v-1.8h0.6v1.8
			c0,0.7-0.5,1.3-1.2,1.3c-0.7,0-1.3-0.5-1.3-1.2c0,0,0-0.1,0-0.1V99.9z"/>
		<path class="st1" d="M149,99.9h1.9v0.5h-1.4v0.7h1.2v0.6h-1.2v0.7h1.4v0.6h-1.9L149,99.9z"/>
		<path class="st1" d="M152.7,99.9h1c1,0,1.7,0.6,1.7,1.5c0,0.9-0.7,1.5-1.7,1.5h-1V99.9z M153.3,100.5v1.9h0.4
			c0.5,0.1,1-0.3,1.1-0.8c0.1-0.5-0.3-1-0.8-1.1c-0.1,0-0.2,0-0.2,0L153.3,100.5z"/>
		<path class="st1" d="M155.8,99.9h1.9v0.5h-1.4v0.7h1.2v0.6h-1.2v0.7h1.4v0.6h-1.9V99.9z"/>
		<path class="st1" d="M160.6,103c-0.8,0-1.5-0.7-1.5-1.5c0,0,0,0,0,0c0-0.9,0.7-1.6,1.5-1.6c0,0,0,0,0,0c0.4,0,0.8,0.1,1.1,0.4
			l-0.4,0.4c-0.2-0.2-0.5-0.3-0.7-0.3c-0.5,0-1,0.5-1,1c0,0.5,0.5,1,1,1c0.2,0,0.3,0,0.5-0.1v-0.9h0.6v1.2
			C161.4,102.9,161,103,160.6,103z"/>
		<path class="st1" d="M162.5,99.9h0.6v1.8c0,0.4,0.2,0.7,0.6,0.7c0,0,0,0,0.1,0c0.4,0,0.6-0.3,0.6-0.6c0,0,0-0.1,0-0.1v-1.8h0.6
			v1.8c0,0.7-0.5,1.3-1.2,1.3c-0.7,0-1.3-0.5-1.3-1.2c0,0,0-0.1,0-0.1L162.5,99.9z"/>
		<path class="st1" d="M165.8,99.9h0.6v3h-0.6V99.9z"/>
		<path class="st1" d="M167.8,100.9v2h-0.6v-3h0.6l1.4,2.1v-2.1h0.6v3h-0.6L167.8,100.9z"/>
		<path class="st1" d="M170.7,99.9h1.9v0.5h-1.4v0.7h1.2v0.6h-1.2v0.7h1.4v0.6h-2V99.9z M172.5,98.9l-0.6,0.7h-0.5l0.5-0.7
			L172.5,98.9z"/>
		<path class="st1" d="M173.3,99.9h1.9v0.5h-1.4v0.7h1.2v0.6h-1.2v0.7h1.4v0.6h-1.9V99.9z"/>
		<path class="st1" d="M161.5,61.5L161.5,61.5c-0.2-0.7-0.3-1.5-0.3-2.3c0-0.8,0.1-1.5,0.3-2.3l0-0.1l0-0.1c0-0.1-0.2-0.4-0.4-0.5
			c-0.4,0-0.5,0.4-0.6,0.7c0,0.3-0.2,0.6-0.3,0.9c-0.3,0.4-0.9,0.4-1.5,0.5h-0.1c-0.5,0-27.8,0.4-29,0.4c-0.2,0-0.3,0-0.5-0.1
			c-0.2-0.4-0.6-0.6-1-0.6c-0.2,0-0.4,0.1-0.5,0.2c-0.2,0.2-0.2,0.5-0.2,0.8c0,0.1,0,0.1,0,0.2c0,0.1,0,0.1,0,0.2
			c0,0.3,0,0.6,0.2,0.8c0.1,0.1,0.3,0.2,0.5,0.2c0.4,0,0.8-0.2,1-0.6c0,0,0.1-0.1,0.5-0.1c1.1,0,28.4,0.4,29,0.4h0.1
			c0.6,0,1.2,0,1.5,0.5c0.2,0.3,0.3,0.6,0.3,0.9c0,0.3,0.1,0.7,0.5,0.7h0.1c0.3,0,0.4-0.3,0.5-0.5l0-0.1L161.5,61.5z M128.1,54.9
			c0,0,0-0.1,0.4-0.3c1-0.6,24.8-13.9,25.3-14.1l0.1-0.1c0.5-0.3,1-0.6,1.5-0.4c0.3,0.2,0.6,0.4,0.8,0.6c0.2,0.2,0.5,0.5,0.8,0.3
			l0.1,0c0.2-0.2,0.2-0.4,0.2-0.6l0-0.1l-0.1-0.1l0,0c-1.1-1.1-1.8-2.4-2.3-3.9l0-0.1l-0.1-0.1c-0.2-0.2-0.4-0.2-0.6-0.2
			c-0.4,0.2-0.2,0.6-0.2,0.9c0.1,0.3,0.2,0.6,0.2,1c-0.1,0.5-0.6,0.8-1.1,1.2l-0.1,0.1c-0.4,0.3-23.9,14.2-24.9,14.8
			c-0.1,0.1-0.3,0.2-0.5,0.2c-0.4-0.2-0.8-0.2-1.2,0c-0.2,0.1-0.3,0.3-0.4,0.5c0,0.3,0,0.6,0.2,0.8c0,0,0.1,0.1,0.1,0.2l0.1,0.2
			c0.1,0.2,0.3,0.5,0.6,0.6c0.2,0.1,0.4,0,0.6-0.1C127.8,55.8,128.1,55.4,128.1,54.9L128.1,54.9z M139.8,25.8l0.1-0.1
			c0.3-0.5,0.6-1,1.2-1.1c0.3,0,0.7,0,1,0.2c0.2,0.1,0.7,0.2,0.9-0.1c0,0,0,0,0-0.1c0.1-0.2,0-0.5-0.2-0.6l-0.1-0.1l-0.1,0l0,0
			c-1.5-0.4-2.8-1.2-3.9-2.3l-0.1-0.1l-0.1,0c-0.2-0.1-0.5,0-0.6,0.2c-0.3,0.4,0.1,0.7,0.3,0.8c0.3,0.2,0.5,0.5,0.6,0.8
			c0.2,0.5-0.1,1-0.4,1.5l-0.1,0.1c-0.2,0.5-13.6,24.3-14.2,25.3c-0.2,0.3-0.3,0.4-0.3,0.4c-0.4,0-0.8,0.2-1,0.6
			c-0.1,0.2-0.1,0.4-0.1,0.6c0.1,0.3,0.3,0.4,0.6,0.6l0.2,0.1l0.2,0.1c0.2,0.2,0.5,0.3,0.8,0.2c0.2-0.1,0.4-0.2,0.5-0.4
			c0.2-0.4,0.2-0.8,0-1.2c0,0,0-0.1,0.2-0.5C125.5,49.8,139.5,26.3,139.8,25.8L139.8,25.8z M122,17.2l-0.1,0l-0.1,0l0,0
			c-0.7,0.2-1.5,0.3-2.3,0.3c-0.8,0-1.5-0.1-2.3-0.3l-0.1,0l-0.1,0.1c-0.1,0-0.4,0.2-0.5,0.4c0,0.4,0.4,0.5,0.7,0.6
			c0.3,0,0.6,0.2,0.9,0.3c0.4,0.3,0.4,0.9,0.5,1.5v0.1c0,0.5,0.4,27.8,0.4,29c0,0.2,0,0.3-0.1,0.5c-0.4,0.2-0.6,0.6-0.6,1
			c0,0.2,0.1,0.4,0.2,0.5c0.2,0.2,0.5,0.2,0.8,0.2h0.4c0.3,0,0.6,0,0.8-0.2c0.1-0.1,0.2-0.3,0.2-0.5c0-0.4-0.2-0.8-0.6-1
			c0,0-0.1-0.1-0.1-0.5c0-1.1,0.4-28.4,0.4-28.9v-0.1c0-0.6,0-1.2,0.5-1.5c0.3-0.2,0.6-0.3,0.9-0.3c0.3,0,0.7-0.1,0.7-0.5
			c0,0,0,0,0-0.1C122.4,17.3,122.1,17.2,122,17.2z M115.2,50.6c0,0-0.1,0-0.3-0.4c-0.6-1-13.9-24.8-14.2-25.3l-0.1-0.1
			c-0.3-0.5-0.6-1.1-0.4-1.5c0.2-0.3,0.4-0.6,0.6-0.8c0.2-0.2,0.5-0.5,0.3-0.8l0-0.1c-0.2-0.2-0.4-0.2-0.6-0.2l-0.1,0l-0.1,0.1l0,0
			c-1.1,1.1-2.4,1.8-3.9,2.3l-0.1,0l-0.1,0.1c-0.2,0.2-0.2,0.4-0.2,0.6c0.2,0.4,0.6,0.2,0.9,0.2c0.3-0.1,0.6-0.2,1-0.2
			c0.5,0.1,0.8,0.6,1.2,1.1l0.1,0.1c0.3,0.4,14.2,23.9,14.8,24.9c0.1,0.1,0.2,0.3,0.2,0.5c-0.2,0.4-0.2,0.8,0,1.2
			c0.1,0.2,0.3,0.3,0.5,0.4c0.3,0,0.6,0,0.8-0.2l0.2-0.1l0.2-0.1c0.3-0.1,0.5-0.3,0.6-0.6c0.1-0.2,0-0.4-0.1-0.6
			C116,50.9,115.7,50.6,115.2,50.6z M112.7,53.9c-0.4-0.2-0.8-0.2-1.2,0c0,0-0.1,0-0.5-0.2c-1-0.6-24.4-14.6-24.9-14.8L86,38.8
			c-0.5-0.3-1-0.6-1.1-1.2c0-0.3,0-0.7,0.2-1c0.1-0.2,0.2-0.7-0.1-0.9l-0.1,0c-0.2-0.1-0.5,0-0.6,0.2l-0.1,0.1l0,0.1l0,0
			c-0.2,0.7-0.5,1.4-0.9,2.1c-0.4,0.7-0.8,1.3-1.4,1.8l-0.1,0.1l0,0.1c-0.1,0.2,0,0.5,0.2,0.6c0.4,0.3,0.7-0.1,0.8-0.3
			c0.2-0.3,0.5-0.5,0.8-0.6c0.5-0.2,1,0.1,1.5,0.4l0.1,0.1c0.5,0.2,24.3,13.6,25.3,14.2c0.3,0.2,0.4,0.3,0.4,0.3
			c0,0.4,0.2,0.8,0.6,1c0.2,0.1,0.4,0.1,0.6,0.1c0.3-0.1,0.4-0.3,0.6-0.6l0.1-0.2c0-0.1,0.1-0.1,0.1-0.2c0.2-0.2,0.3-0.5,0.2-0.8
			C113,54.2,112.9,54,112.7,53.9L112.7,53.9z M111.5,58.2c-0.1-0.1-0.3-0.2-0.5-0.2c-0.4,0-0.8,0.2-1,0.6c0,0-0.1,0.1-0.5,0.1
			c-1.1,0-28.4-0.4-28.9-0.4h-0.1c-0.6,0-1.2,0-1.5-0.5c-0.2-0.3-0.3-0.6-0.3-0.9c0-0.3-0.1-0.7-0.5-0.7h-0.1
			c-0.3,0-0.4,0.3-0.4,0.5l0,0.1l0,0.1l0,0c0.4,1.5,0.4,3,0,4.5l0,0.1l0,0.1c0,0.1,0.2,0.4,0.5,0.5c0.4,0,0.5-0.4,0.6-0.7
			c0-0.3,0.2-0.6,0.3-0.9c0.3-0.4,0.9-0.4,1.5-0.5h0.1c0.5,0,27.8-0.4,29-0.4c0.2,0,0.3,0,0.5,0.1c0.2,0.4,0.6,0.6,1,0.6
			c0.2,0,0.4-0.1,0.5-0.2c0.2-0.2,0.2-0.5,0.2-0.8c0-0.1,0-0.1,0-0.2c0-0.1,0-0.1,0-0.2C111.8,58.7,111.7,58.4,111.5,58.2
			L111.5,58.2z"/>
		<path class="st2" d="M116.5,44.4c-0.1,0-0.2,0-0.3,0c0,0-0.1,0-0.3-0.6c-0.2-0.8-4.7-18.6-4.8-19.3l0-0.1
			c-0.1-0.6-0.3-1.2,0.1-1.6c0.1-0.2,0.3-0.3,0.5-0.4c0.3-0.1,0.5-0.4,0.4-0.7c-0.1-0.4-0.6-0.4-0.9-0.4c-0.6,0-1.2,0.1-1.7,0.3
			c-0.6,0.1-1.1,0.4-1.7,0.6c-0.3,0.2-0.7,0.4-0.6,0.8c0.1,0.3,0.4,0.5,0.7,0.4c0.2,0,0.4,0,0.6,0.1c0.5,0.2,0.7,0.8,0.8,1.3l0,0.1
			c0.2,0.7,5.3,18.3,5.5,19.1c0.2,0.6,0.1,0.7,0.1,0.7c-0.1,0.1-0.1,0.1-0.2,0.2c-0.2,0.2-0.8,0.5-0.5,1s1.3,1.1,2,0.9
			c0.7-0.2,1.2-1.1,1.2-1.8C117.4,44.4,116.7,44.4,116.5,44.4z M109.5,47.9c-0.1,0-0.2,0.1-0.2,0.1c0,0-0.1,0-0.6-0.4
			c-0.6-0.6-13.3-13.8-13.8-14.3l-0.1-0.1c-0.4-0.4-0.8-0.9-0.7-1.4c0-0.2,0.1-0.4,0.2-0.6c0.2-0.2,0.2-0.6,0-0.9
			c-0.3-0.3-0.7-0.1-1,0.1c-0.5,0.3-1,0.7-1.4,1.1c-0.4,0.4-0.8,0.9-1.1,1.4c-0.2,0.3-0.4,0.7-0.1,1c0.2,0.2,0.6,0.2,0.9,0
			c0.2-0.1,0.4-0.2,0.6-0.2c0.5-0.1,1,0.3,1.4,0.7l0.1,0.1c0.5,0.5,13.7,13.2,14.3,13.8c0.4,0.4,0.4,0.6,0.4,0.6
			c0,0.1-0.1,0.2-0.1,0.2c-0.1,0.2-0.4,0.8,0.1,1.1c0.5,0.3,1.6,0.3,2.1-0.2c0.5-0.5,0.5-1.6,0.2-2.1
			C110.2,47.4,109.7,47.7,109.5,47.9z M106.2,53.9c-0.5-0.3-0.9,0.2-1,0.5c0,0.1-0.1,0.2-0.2,0.2c0,0-0.1,0.1-0.7-0.1
			c-0.8-0.2-18.4-5.3-19.1-5.5l-0.1,0c-0.6-0.2-1.1-0.4-1.3-0.8c-0.1-0.2-0.1-0.4-0.1-0.6c0.1-0.3-0.1-0.6-0.4-0.7
			c-0.4-0.1-0.6,0.3-0.8,0.6c-0.3,0.5-0.5,1.1-0.6,1.7c-0.2,0.6-0.3,1.2-0.3,1.7c0,0.3,0,0.8,0.4,0.9c0.3,0.1,0.6-0.1,0.7-0.4
			c0.1-0.2,0.2-0.4,0.4-0.5c0.4-0.3,1-0.2,1.6-0.1l0.1,0c0.7,0.2,18.5,4.6,19.3,4.8c0.6,0.2,0.6,0.3,0.6,0.3c0,0.1,0,0.2,0,0.3
			c0,0.3,0,0.9,0.6,0.9c0.6,0,1.6-0.5,1.8-1.2C107.3,55.2,106.7,54.2,106.2,53.9L106.2,53.9z M124.3,44.8c-0.1,0-0.2-0.1-0.2-0.2
			c0,0-0.1-0.1,0.1-0.7c0.2-0.8,5.3-18.4,5.5-19.1l0-0.1c0.2-0.6,0.3-1.1,0.8-1.3c0.2-0.1,0.4-0.1,0.6-0.1c0.3,0.1,0.6-0.1,0.7-0.4
			c0.1-0.4-0.3-0.6-0.6-0.8c-0.5-0.3-1.1-0.5-1.7-0.6c-0.6-0.2-1.2-0.3-1.7-0.3c-0.3,0-0.8,0-0.9,0.4c-0.1,0.3,0.1,0.6,0.4,0.7
			c0.2,0.1,0.4,0.2,0.5,0.4c0.3,0.4,0.2,1,0.1,1.6l0,0.1c-0.2,0.7-4.6,18.5-4.8,19.3c-0.2,0.6-0.3,0.6-0.3,0.6c-0.1,0-0.2,0-0.3,0
			c-0.3,0-0.9,0-0.9,0.7c0,0.6,0.5,1.6,1.2,1.8c0.7,0.2,1.6-0.3,2-0.9S124.5,45,124.3,44.8L124.3,44.8z M145.4,34.6L145.4,34.6
			c0.5-0.5,1-0.9,1.5-0.8c0.2,0,0.4,0.1,0.6,0.2c0.2,0.2,0.6,0.2,0.9,0c0.3-0.3,0.1-0.7-0.1-1c-0.3-0.5-0.7-1-1.1-1.4
			c-0.4-0.4-0.9-0.8-1.4-1.1c-0.3-0.2-0.7-0.4-1-0.1c-0.2,0.2-0.2,0.6,0,0.9c0.1,0.2,0.2,0.4,0.2,0.6c0.1,0.5-0.3,1-0.7,1.4
			l-0.1,0.1c-0.5,0.5-13.2,13.7-13.8,14.3c-0.4,0.4-0.6,0.4-0.6,0.4c-0.1,0-0.2-0.1-0.2-0.1c-0.2-0.1-0.8-0.4-1.1,0.1
			c-0.3,0.5-0.3,1.6,0.2,2.1c0.5,0.5,1.6,0.5,2.1,0.2c0.6-0.3,0.2-0.9,0.1-1.1c0-0.1-0.1-0.2-0.1-0.2c0,0,0-0.1,0.4-0.6
			C131.7,47.8,144.9,35,145.4,34.6L145.4,34.6z M157.2,49.1c-0.1-0.6-0.4-1.1-0.6-1.7c-0.2-0.3-0.4-0.7-0.8-0.6
			c-0.3,0.1-0.5,0.4-0.4,0.7c0,0.2,0,0.4-0.1,0.6c-0.2,0.5-0.8,0.7-1.3,0.8l-0.1,0c-0.7,0.2-18.3,5.3-19.1,5.5
			c-0.6,0.2-0.7,0.1-0.7,0.1c-0.1-0.1-0.1-0.1-0.2-0.2c-0.1-0.2-0.5-0.8-1-0.5c-0.5,0.3-1.1,1.3-0.9,2c0.2,0.7,1.1,1.2,1.8,1.2
			c0.6,0,0.6-0.7,0.7-0.9c0-0.1,0-0.2,0-0.3c0,0,0-0.1,0.6-0.3c0.8-0.2,18.6-4.7,19.3-4.8l0.1,0c0.6-0.1,1.2-0.3,1.6,0.1
			c0.2,0.1,0.3,0.3,0.4,0.5c0.1,0.3,0.4,0.5,0.7,0.4c0.4-0.1,0.4-0.6,0.4-0.9C157.5,50.2,157.4,49.7,157.2,49.1L157.2,49.1z"/>
	</g>
</g>
</svg>
