<svg width="320" height="70" viewBox="0 0 320 70" fill="none" xmlns="http://www.w3.org/2000/svg">
<g clip-path="url(#clip0)">
<path d="M49.106 37.1836L68.4926 41.0886C68.5962 40.4665 68.6999 39.8445 68.8036 39.2225L49.1751 36.5616C49.1751 36.7689 49.1405 36.9762 49.106 37.1836Z" fill="white"/>
<path d="M48.8984 38.3931L67.9395 43.4385C68.0432 43.0238 68.1468 42.5745 68.2505 42.1598L49.0021 37.8056C48.9676 38.0475 48.9676 38.2203 48.8984 38.3931Z" fill="white"/>
<path d="M44.0605 22.2203C44.1988 22.3931 44.3716 22.5659 44.5098 22.7387L54.1167 12.7862C53.9439 12.7171 53.4601 12.5788 52.9763 12.4406L56.6739 8.01728C56.3284 7.74082 55.9828 7.46436 55.6372 7.1879L51.8705 12.095L44.0605 22.2203Z" fill="white"/>
<path d="M21.9092 25.8143L6.18566 14.8596C5.94376 15.2052 5.70186 15.5853 5.45996 15.9654L21.6327 26.3326C21.7019 26.1598 21.8055 25.987 21.9092 25.8143Z" fill="white"/>
<path d="M69.1145 35.2484C69.1145 35.041 69.1145 34.7991 69.1145 34.5918C69.1145 34.1425 69.1145 33.6587 69.0799 33.2095L49.2095 34.0043C49.2095 33.797 49.1749 33.5896 49.1404 33.3823L69.0454 32.3456C69.0108 31.6199 68.9417 30.9287 68.838 30.203L49.0713 32.7257C49.0367 32.5184 49.0022 32.311 48.9676 32.1037L68.7343 29.3736C68.6307 28.6479 68.4924 27.9222 68.3197 27.1965L48.8639 31.4471C48.8294 31.2397 48.7948 31.0669 48.7257 30.8596L68.216 26.7819C68.1469 26.4363 68.0778 26.1253 67.9741 25.7797C67.9395 25.7106 67.905 25.6415 67.8704 25.5378H67.905C67.8013 25.1231 67.6631 24.6739 67.5594 24.2592L48.5529 30.1685C48.4838 29.9957 48.4492 29.7883 48.3801 29.581L67.1102 23.9136C67.0065 23.7408 66.73 23.257 66.4536 22.8078L67.0065 22.6004C66.8682 22.1857 66.6955 21.7711 66.5227 21.3909L65.797 21.7019L48.1728 28.9244C48.1037 28.7516 48.0346 28.5443 47.9654 28.3715L65.5205 21.3564C65.3823 21.1836 65.0713 20.7689 64.7603 20.3542L65.8661 19.8358C65.6933 19.4212 65.486 19.041 65.2786 18.6609L63.9654 19.352L47.689 27.784C47.6199 27.6112 47.5162 27.4039 47.4471 27.2311L63.6544 19.1101C63.5162 18.9719 63.1361 18.5918 62.7559 18.2117L64.4492 17.2441C64.2419 16.8639 64 16.4838 63.7581 16.1037L61.8575 17.2786L47.1361 26.6091C47.0324 26.4363 46.9287 26.2289 46.8251 26.0562L61.5119 17.0367C61.3391 16.8985 60.9244 16.5875 60.5443 16.2765L62.8251 14.6868C62.5832 14.3413 62.3067 13.9611 62.0648 13.6155L59.5767 15.5162L46.514 25.4687C46.4104 25.2959 46.2721 25.1231 46.1685 24.9158L59.2311 15.3089C59.0583 15.2052 58.6091 14.9287 58.1944 14.6868L61.0281 12.3024C60.7516 11.9568 60.4752 11.6458 60.1642 11.3002L57.1231 14.0648L45.7883 24.3628C45.6501 24.1901 45.5119 24.0173 45.4082 23.8099L56.743 13.892C56.5702 13.8229 56.0864 13.6155 55.6371 13.4082L58.9546 10.0907C58.6436 9.7797 58.3326 9.46868 57.987 9.19222L54.5313 12.959L44.959 23.3261C44.6134 22.9114 44.2678 22.4622 43.8531 22.0475C43.7495 21.9438 43.6803 21.8402 43.5767 21.7711L51.5594 12.095C51.3521 12.0605 50.8683 11.9568 50.3844 11.8531L54.2894 6.25486C53.9438 6.01296 53.5637 5.77106 53.1836 5.52916L49.2441 11.6803L43.0929 21.2873C43.1965 21.3909 43.3002 21.5292 43.4384 21.6328C43.162 21.3564 42.8855 21.0454 42.5745 20.7689L48.933 11.6458C48.7603 11.6458 48.2765 11.5767 47.7927 11.5421L51.7667 4.63067C51.3866 4.42333 51.0065 4.21598 50.6264 4.00864L46.6523 11.4039L42.0216 20.216C41.8143 20.0432 41.6415 19.8704 41.4341 19.6976L46.2721 11.4039C46.0993 11.4039 45.6501 11.4039 45.2009 11.4384L49.0713 3.17927C48.6566 3.00648 48.2765 2.79914 47.8618 2.66091L44.1641 11.473L40.9158 19.2484C40.7084 19.0756 40.4665 18.9028 40.2592 18.73L43.8186 11.5421C43.6458 11.5767 43.2311 11.5767 42.8164 11.6458L46.2721 2.07343C45.8574 1.9352 45.4428 1.79698 45.0281 1.65875L41.7797 11.8531L39.7063 18.3499C39.4644 18.1771 39.2225 17.9698 38.9806 17.797C38.9806 17.797 38.9806 17.797 39.0151 17.797L41.4687 11.9222C41.2959 11.9568 40.9158 12.0259 40.5011 12.1296L43.4039 1.2095C42.9892 1.10583 42.54 1.00216 42.1253 0.898488L39.5335 12.3715L38.3931 17.3477C38.1166 17.1749 37.8747 16.9676 37.5983 16.7948L39.2225 12.4752C39.0497 12.5443 38.7041 12.6134 38.324 12.7516L40.432 0.518358C40.0173 0.449244 39.568 0.38013 39.1188 0.311015L37.3909 13.0281L36.9417 16.311C36.6652 16.1382 36.3542 15.9309 36.0778 15.7235L37.1145 13.1317C36.8726 13.2354 36.3197 13.4428 36.2851 13.4773L37.4255 0.103672C36.9762 0.0691145 36.5616 0.0345572 36.1123 0L35.4557 13.8574L35.3866 15.2743C35.0756 15.067 34.7646 14.8942 34.4536 14.6868V14.3758L34.419 0C33.9698 0 33.5551 0 33.1058 0.0345572L33.6933 14.3067L33.7279 14.8596C33.4168 15.0324 33.1058 15.2397 32.7948 15.4125L31.4125 0.138229C30.9633 0.172786 30.5486 0.241901 30.0994 0.276458L32.1037 15.8272C31.8272 16 31.5508 16.2073 31.2743 16.3801L28.406 0.552916C27.9568 0.62203 27.5421 0.725702 27.1274 0.794816L30.6177 16.8294C30.3413 17.0022 30.0994 17.2095 29.8575 17.3823L25.4687 1.2095C25.054 1.31317 24.6393 1.4514 24.1901 1.55508L29.2354 17.797C28.9935 17.9698 28.7516 18.1771 28.5097 18.3499L22.5659 2.10799C22.1512 2.24622 21.7365 2.41901 21.3564 2.59179L27.9914 18.7991C27.7495 18.9719 27.5421 19.1793 27.3348 19.352L19.8359 3.28294C19.4557 3.45572 19.041 3.66307 18.6609 3.87041L26.8855 19.8013C26.6782 20.0086 26.4708 20.1814 26.2635 20.3888L17.1749 4.69978C16.7948 4.90713 16.4147 5.14903 16.0691 5.39093L25.8143 20.8035C25.6069 21.0108 25.4341 21.1836 25.2268 21.3909L14.6177 6.32397C14.2721 6.56587 13.892 6.84233 13.5464 7.08423L24.7775 21.8402C24.6047 22.0475 24.432 22.2549 24.2592 22.4276L12.2333 8.19006C11.8877 8.46652 11.5767 8.74298 11.2311 9.05399L23.8445 22.946C23.6717 23.1533 23.4989 23.3607 23.3607 23.568L10.0216 10.2289C9.71058 10.54 9.39957 10.851 9.12311 11.162L23.0497 24.0173C22.9114 24.2246 22.7387 24.432 22.6004 24.6393L8.01728 12.4406C7.74082 12.7862 7.46436 13.1317 7.1879 13.4773L22.2894 25.1577C21.9093 25.7797 21.5983 26.4017 21.2873 27.0238L4.56155 17.3823C4.35421 17.7624 4.14687 18.1425 3.93952 18.5227L21.0454 27.5076C20.9417 27.7495 20.838 27.9914 20.7689 28.1987L3.17927 20.0777C3.00648 20.4579 2.79914 20.8726 2.66091 21.2873L20.5961 28.7862C20.527 29.0281 20.4233 29.27 20.3542 29.5119L2.03888 22.8769C1.90065 23.2916 1.76242 23.7063 1.62419 24.1209L20.216 30.0648C20.1469 30.3067 20.0778 30.5486 20.0432 30.7905L1.14039 25.7106C1.03672 26.1253 0.933045 26.5745 0.829374 26.9892L19.905 31.2743C19.8704 31.5162 19.8013 31.7581 19.7667 32L0.518359 28.6479C0.449244 29.0626 0.38013 29.5119 0.311015 29.9611L19.6976 32.5875C19.6631 32.8294 19.6285 33.0713 19.6285 33.3132L0.138229 31.6544C0.103672 32.2419 0.0691145 32.8639 0.0345572 33.4514L19.5594 33.9352C19.5594 34.0734 19.5248 34.2117 19.5248 34.3499C19.5248 34.4536 19.5248 34.5227 19.5248 34.5918L0 34.6609C0 35.3175 0.0345572 35.9741 0.0691145 36.6307L19.5248 35.2829C19.5248 35.4903 19.5248 35.7322 19.5248 35.9395L0.138229 37.6674C0.207343 38.2894 0.276458 38.946 0.345572 39.568L19.5594 36.5961C19.5594 36.8035 19.594 37.0453 19.6285 37.2527L0.552916 40.6739C0.691145 41.4341 0.829374 42.1944 1.03672 42.9546L19.6976 37.9438C19.7322 38.1512 19.7667 38.3585 19.8013 38.5659L1.2095 43.5767C1.41685 44.406 1.6933 45.2354 1.96976 46.0302L19.9741 39.257C20.0086 39.4644 20.0778 39.6371 20.1123 39.8445L2.28078 46.3758L2.10799 46.4449C2.24622 46.8596 2.41901 47.2743 2.59179 47.6544L3.00648 47.4816C3.28294 47.9309 3.5594 48.3456 3.69762 48.5183L20.3542 40.5356C20.4233 40.743 20.4579 40.9158 20.527 41.1231L3.93952 48.8985L3.31749 49.2095C3.49028 49.5896 3.69762 50.0043 3.90497 50.3844L4.80346 49.9352C5.14903 50.3153 5.46004 50.73 5.59827 50.8682L20.838 41.8142C20.9071 41.987 20.9762 42.1944 21.0799 42.3672L5.90929 51.1793L4.7689 51.8358C4.97624 52.216 5.21814 52.5961 5.46004 52.9417L6.87689 52.0432C7.22246 52.3542 7.56803 52.6652 7.70626 52.8034L21.4255 42.9892C21.5292 43.1965 21.5983 43.3693 21.7019 43.5421L8.08639 53.1145L6.39309 54.2894C6.63499 54.635 6.91145 55.0151 7.15335 55.3607L9.08855 53.8747C9.50324 54.1512 9.91793 54.4622 10.0562 54.5659L22.013 44.1987C22.1166 44.3715 22.2203 44.5788 22.324 44.7516L10.3326 54.946L8.12095 56.8121C8.39741 57.1577 8.67387 57.4687 8.98488 57.8142L11.4384 55.568C11.8877 55.8099 12.3024 56.0173 12.4752 56.1209L22.6695 45.5119C22.7732 45.6847 22.9114 45.892 23.0497 46.0648L12.8207 56.3283L10.1598 59.0238C10.4708 59.3348 10.7819 59.6458 11.0929 59.9222L13.9611 56.8121C14.4104 56.9849 14.8596 57.1577 15.0324 57.2268L23.4989 46.7214C23.6371 46.8942 23.7754 47.0669 23.9136 47.2743L15.4471 57.3996L12.406 61.0626C12.7516 61.3391 13.0972 61.6155 13.4428 61.892L16.6566 57.7451C17.1058 57.8488 17.5551 57.987 17.7624 58.0216L24.4665 47.8963C24.6048 48.0691 24.7775 48.2764 24.9158 48.4492L18.1425 58.1598L14.7559 62.8942C15.1015 63.1361 15.4816 63.378 15.8618 63.6199L19.2484 58.3326C19.6976 58.4017 20.1469 58.4708 20.3197 58.5054L25.365 49.0713C25.5378 49.2441 25.7106 49.4168 25.8488 49.6242L20.7343 58.5399L17.3132 64.4838C17.6933 64.6911 18.0734 64.8985 18.4536 65.1058L21.8747 58.5745C22.324 58.5745 22.7387 58.6091 22.946 58.6091L26.4708 50.1425C26.6436 50.3153 26.851 50.5227 27.0238 50.6955L20.0086 65.8661C20.3888 66.0389 20.8035 66.2462 21.2181 66.419L24.4665 58.6436C24.9503 58.6436 25.4687 58.6091 25.6069 58.6091L27.6803 51.352C27.8877 51.5248 28.0605 51.6976 28.2678 51.8704L25.8488 58.5399L22.7732 67.041C23.1879 67.1793 23.6026 67.3175 24.0173 67.4557L26.9201 58.3326C27.3348 58.2635 27.7149 58.1944 27.8877 58.1598L28.959 52.4233C29.1663 52.5961 29.4082 52.7689 29.6155 52.9417L25.6415 67.9395C26.0562 68.0432 26.5054 68.1469 26.9201 68.2505L29.27 57.8488C29.6501 57.7451 30.0302 57.6415 30.203 57.6069L30.4104 53.5637C30.6523 53.7365 30.8942 53.9093 31.1015 54.0475L30.514 57.5032L28.5788 68.5961C28.9935 68.6652 29.4428 68.7343 29.892 68.8034L31.4471 57.1577C31.7927 57.0194 32.1382 56.8812 32.311 56.8466L32.0691 54.6695C32.311 54.8078 32.5529 54.9805 32.7603 55.0842L32.622 56.7084L31.5853 68.9762C32.0346 69.0108 32.4492 69.0453 32.8985 69.0799L33.486 56.3283C33.797 56.1555 34.1425 56.0173 34.2808 55.9482C34.2808 55.9482 34.3844 55.9136 34.5572 55.8099L34.5918 69.149C35.041 69.149 35.4557 69.149 35.905 69.1145L35.3521 55.3607C35.6285 55.1879 35.9395 55.0151 36.3197 54.7732L37.5983 69.0108C38.0475 68.9762 38.4622 68.9417 38.9114 68.8726L37.0454 54.324C37.3218 54.1512 37.6328 53.9438 37.9438 53.7019L40.6048 68.6307C41.054 68.5615 41.4687 68.4579 41.8834 68.3888L38.5659 53.2527C38.8423 53.0453 39.1188 52.838 39.3952 52.6307L43.5421 68.0086C43.9568 67.905 44.3715 67.7667 44.8207 67.6631L39.9827 52.1814C40.2246 51.9741 40.4665 51.7667 40.7084 51.5594L46.4104 67.1101C46.8251 66.9719 47.2397 66.7991 47.6199 66.6263L41.2268 51.041C41.4687 50.8337 41.676 50.6263 41.9179 50.419L49.2095 65.9352C49.6242 65.7624 50.0043 65.5551 50.3844 65.3477L42.4363 49.9352C42.6436 49.7279 42.851 49.5205 43.0583 49.3132L51.905 64.5529C52.2851 64.3456 52.6652 64.1037 53.0454 63.8618L43.5076 48.7948C43.6803 48.5875 43.8877 48.3801 44.0605 48.1382L54.4622 62.8942C54.8078 62.6523 55.1879 62.3758 55.5335 62.1339L44.5097 47.6544C44.6825 47.4471 44.8553 47.2052 45.0281 46.9978L56.8812 61.0626C57.2268 60.7862 57.5378 60.5097 57.8834 60.1987L45.3736 46.4795C45.5119 46.2721 45.6847 46.0302 45.8229 45.8229L59.0929 59.0238C59.4039 58.7127 59.7149 58.4017 59.9914 58.0561L46.1339 45.27C46.2721 45.0626 46.4104 44.8207 46.5486 44.6134L61.1317 56.7775C61.4082 56.432 61.6847 56.0864 61.9611 55.7408L46.8596 44.0605C46.9978 43.8531 47.1015 43.6112 47.2397 43.3693L62.9978 54.3585C63.2397 54.013 63.4816 53.6328 63.7235 53.2527L47.4125 42.851C47.5162 42.6091 47.6199 42.4017 47.7235 42.1598L64.5184 51.8013C64.7257 51.4212 64.9676 51.041 65.1404 50.6609L47.9309 41.6415C48.0346 41.3996 48.1037 41.1577 48.2073 40.9503L65.9007 49.1749C66.0734 48.7948 66.2808 48.3801 66.4536 47.9654L48.3801 40.3974C48.4492 40.1555 48.5184 39.9136 48.5875 39.6717L67.041 46.3412C67.1793 45.9266 67.3175 45.5119 67.4557 45.0972L48.7257 39.1188C49.0022 38.0821 49.1404 37.0108 49.2095 35.905L68.9071 38.1857C68.9762 37.5292 69.0108 36.8726 69.0454 36.216L49.2095 35.2829C49.2095 35.0756 49.2095 34.8337 49.2095 34.6263L69.1145 35.2484ZM30.3067 17.4168C30.514 17.3823 30.6868 17.3132 30.8942 17.3132C30.9978 17.2786 31.1015 17.2441 31.2052 17.2786C31.3089 17.3132 31.4125 17.3477 31.4816 17.486V17.5205C31.378 17.6242 31.2743 17.6587 31.1706 17.6933C31.067 17.7279 30.9633 17.6587 30.8942 17.6587C30.6868 17.6242 30.514 17.5551 30.3067 17.486C30.2721 17.4514 30.2721 17.4514 30.3067 17.4168C30.2721 17.4168 30.3067 17.4168 30.3067 17.4168ZM29.2354 18.4881C29.5464 18.419 29.8575 18.3844 30.1339 18.3499C30.2721 18.3499 30.4449 18.2808 30.5832 18.3153C30.7214 18.3499 30.8942 18.419 31.0324 18.5572V18.5918C30.8596 18.73 30.7214 18.7646 30.5832 18.7991C30.4449 18.8337 30.2721 18.7646 30.1339 18.73C29.8229 18.6609 29.5464 18.5918 29.2354 18.5227C29.2009 18.5227 29.2009 18.5227 29.2354 18.4881C29.2009 18.4881 29.2354 18.4881 29.2354 18.4881ZM27.3348 20.9417C27.8531 20.8726 28.3369 20.838 28.8207 20.838C29.0626 20.838 29.3391 20.7689 29.581 20.838C29.8229 20.9071 30.0648 20.9762 30.3067 21.149C30.3067 21.149 30.3413 21.1836 30.3067 21.1836C30.0648 21.3218 29.7883 21.3909 29.5464 21.3909C29.3045 21.4255 29.0626 21.3218 28.8207 21.2873C28.3369 21.1836 27.8531 21.1145 27.3348 20.9762C27.3002 21.0108 27.3002 20.9762 27.3348 20.9417C27.3002 20.9417 27.3348 20.9417 27.3348 20.9417ZM28.1641 19.6976C28.5788 19.6285 28.9935 19.5939 29.3736 19.5594C29.581 19.5594 29.7883 19.4903 29.9957 19.5248C30.203 19.5594 30.4104 19.6285 30.5832 19.8013C30.5832 19.8013 30.6177 19.8358 30.5832 19.8358C30.3758 19.9741 30.1685 20.0432 29.9611 20.0777C29.7538 20.1123 29.5464 20.0432 29.3391 20.0086C28.9244 19.9395 28.5443 19.8704 28.1296 19.7667C28.1641 19.7667 28.1296 19.7667 28.1641 19.6976C28.1296 19.7322 28.1641 19.6976 28.1641 19.6976ZM30.1339 25.2613C29.8229 25.4687 29.4773 25.5724 29.1663 25.676C28.8553 25.7451 28.5097 25.7106 28.1641 25.7451C27.5076 25.7797 26.851 25.7797 26.1598 25.7797C26.1598 25.7797 26.1253 25.7797 26.1253 25.7451C26.1253 25.7451 26.1253 25.7106 26.1598 25.7106C26.8164 25.5378 27.4384 25.3996 28.095 25.2613C28.406 25.1922 28.7516 25.0885 29.0626 25.0885C29.4082 25.0885 29.7192 25.1231 30.0648 25.2268C30.1339 25.2268 30.1685 25.2613 30.1339 25.2613ZM26.1944 27.3002C26.8855 27.0929 27.5767 26.9201 28.2678 26.7473C28.6134 26.6782 28.959 26.54 29.3045 26.5054C29.6501 26.4708 30.0302 26.5054 30.4104 26.6091C30.4449 26.6091 30.4449 26.6436 30.4449 26.6436C30.4449 26.6436 30.4449 26.6436 30.4449 26.6782C30.1339 26.8855 29.7883 27.0238 29.4428 27.1274C29.0972 27.2311 28.7171 27.1965 28.3715 27.2311C27.6458 27.3002 26.9201 27.3693 26.1944 27.3693C26.1944 27.3348 26.1598 27.3348 26.1944 27.3002C26.1598 27.3002 26.1598 27.3002 26.1944 27.3002ZM26.1598 29.0281C26.1598 28.9935 26.1598 28.9935 26.1598 29.0281C26.8855 28.7516 27.6112 28.5443 28.3369 28.3369C28.7171 28.2333 29.0626 28.095 29.4428 28.0605C29.8229 28.0259 30.203 28.0259 30.6177 28.095C30.6523 28.095 30.6523 28.1296 30.6523 28.1296C30.6523 28.1296 30.6523 28.1296 30.6523 28.1641C30.3067 28.406 29.9611 28.5443 29.6155 28.6479C29.27 28.7862 28.8553 28.7862 28.5097 28.8207C27.7149 28.8898 26.9546 28.9935 26.1598 29.0281C26.1944 29.0626 26.1598 29.0281 26.1598 29.0281ZM26.6436 22.4968C27.1965 22.3931 27.784 22.2894 28.3715 22.2203C28.6479 22.1857 28.9244 22.0821 29.2354 22.1166C29.5119 22.1512 29.8229 22.1857 30.0994 22.3585C30.1339 22.3585 30.1339 22.3931 30.0994 22.3931C29.8229 22.5659 29.5464 22.635 29.2354 22.7041C28.959 22.7732 28.6479 22.7041 28.3715 22.6695C27.784 22.635 27.2311 22.6004 26.6436 22.5313C26.6436 22.5659 26.6436 22.5659 26.6436 22.4968C26.6436 22.5313 26.6436 22.5313 26.6436 22.4968ZM26.3672 24.0864C26.9892 23.9482 27.6112 23.8445 28.2333 23.7408C28.5443 23.6717 28.8553 23.568 29.1663 23.6026C29.4773 23.6026 29.7883 23.6717 30.1339 23.8099C30.1685 23.8099 30.1685 23.8445 30.1685 23.8445C29.8575 24.0518 29.581 24.1209 29.27 24.1901C28.959 24.2592 28.6479 24.1901 28.3369 24.1901C27.7149 24.1901 27.0929 24.1555 26.4363 24.1209C26.3326 24.1555 26.3326 24.1209 26.3672 24.0864C26.3326 24.0864 26.3326 24.0864 26.3672 24.0864ZM26.54 30.6868C26.54 30.6868 26.5054 30.6523 26.54 30.6868C26.5054 30.6523 26.5054 30.6177 26.54 30.6177C27.2657 30.3412 27.9568 30.0993 28.6825 29.892C29.0281 29.7883 29.4082 29.6155 29.7538 29.581C30.1339 29.5464 30.514 29.5119 30.9287 29.581C30.9633 29.581 30.9633 29.6155 30.9633 29.6155C30.9633 29.6155 30.9633 29.6155 30.9633 29.6501C30.6523 29.892 30.2721 30.0648 29.9266 30.1685C29.581 30.3067 29.2009 30.3067 28.8207 30.3758C28.0605 30.4795 27.3002 30.5831 26.54 30.6868ZM27.0238 32.2419C27.7149 31.9654 28.4406 31.689 29.1663 31.4471C29.5119 31.3088 29.8575 31.1361 30.2376 31.1015C30.6177 31.0324 30.9978 30.9978 31.4125 31.0669C31.4471 31.0669 31.4471 31.1015 31.4471 31.1015C31.4471 31.1015 31.4471 31.1015 31.4471 31.1361C31.1361 31.4125 30.7905 31.5507 30.4104 31.689C30.0648 31.8272 29.6847 31.8618 29.3045 31.9309C28.5443 32.0691 27.8186 32.2073 27.0583 32.3456C27.0238 32.2765 26.9892 32.2765 27.0238 32.2419C26.9892 32.2419 27.0238 32.2419 27.0238 32.2419ZM27.5076 33.7279C27.5076 33.7279 27.5076 33.6933 27.5076 33.7279C28.2333 33.4168 28.9244 33.1404 29.6501 32.8985C29.9957 32.7603 30.3413 32.5875 30.7214 32.5529C31.1015 32.4838 31.4816 32.4492 31.8963 32.5184C31.9309 32.5184 31.9309 32.5529 31.9309 32.5529C31.9309 32.5529 31.9309 32.5529 31.9309 32.5875C31.6199 32.8639 31.2743 33.0022 30.8942 33.1404C30.5486 33.2786 30.1685 33.3132 29.7883 33.3823C29.0281 33.5205 28.3024 33.6587 27.5421 33.797C27.5076 33.7624 27.5076 33.7624 27.5076 33.7279ZM27.9914 35.1793C27.9914 35.1447 28.0259 35.1447 27.9914 35.1793C28.7516 34.8337 29.5119 34.5572 30.2721 34.3153C30.6523 34.1771 31.0324 34.0043 31.4125 33.9352C31.8272 33.8661 32.2073 33.8315 32.6566 33.8661C32.6911 33.8661 32.6911 33.9006 32.6911 33.9006C32.6911 33.9006 32.6911 33.9006 32.6911 33.9352C32.3456 34.2117 31.9654 34.3844 31.5853 34.5227C31.2052 34.6609 30.7905 34.6955 30.4104 34.7646C29.6156 34.9374 28.8207 35.0756 28.0259 35.1793H27.9914ZM28.5097 36.4924C28.5097 36.4924 28.5097 36.4579 28.5097 36.4924C29.27 36.1469 30.0302 35.8704 30.7905 35.6285C31.1706 35.4903 31.5508 35.3175 31.9309 35.2484C32.3456 35.1793 32.7257 35.1447 33.1749 35.1793C33.2095 35.1793 33.2095 35.2138 33.2095 35.2138C33.2095 35.2138 33.2095 35.2138 33.2095 35.2484C32.8639 35.5248 32.4838 35.6976 32.1037 35.8358C31.7235 35.9741 31.3089 36.0086 30.9287 36.1123C30.1339 36.2851 29.3391 36.4233 28.5443 36.527C28.5097 36.527 28.5097 36.527 28.5097 36.4924ZM29.0281 37.9093C29.0281 37.8747 29.0281 37.8747 29.0281 37.9093C29.7883 37.5983 30.5486 37.3218 31.3089 37.0453C31.689 36.9071 32.0346 36.7343 32.4492 36.6652C32.8294 36.5961 33.2441 36.5616 33.6587 36.6307C33.6933 36.6307 33.6933 36.6652 33.6933 36.6652C33.6933 36.6652 33.6933 36.6652 33.6933 36.6998C33.3477 36.9762 32.9676 37.1145 32.622 37.2527C32.2419 37.3909 31.8272 37.4255 31.4471 37.4946C30.6523 37.6674 29.8575 37.8056 29.0281 37.9093C29.0626 37.9438 29.0281 37.9093 29.0281 37.9093ZM29.5119 39.2225C30.2721 38.9114 31.0324 38.635 31.7581 38.3931C32.1382 38.2549 32.4838 38.0821 32.8985 38.0475C33.2786 37.9784 33.6933 37.9438 34.108 38.013C34.1425 38.013 34.1425 38.0475 34.1425 38.0475C34.1425 38.0475 34.1425 38.0475 34.1425 38.0821C33.797 38.324 33.4514 38.4968 33.0713 38.635C32.6911 38.7732 32.311 38.8078 31.8963 38.8769C31.1015 39.0151 30.3413 39.1533 29.5119 39.2225C29.5119 39.257 29.5119 39.257 29.5119 39.2225ZM30.0994 40.7084C30.0994 40.7084 30.0994 40.6739 30.0994 40.7084C30.8251 40.3974 31.5508 40.1209 32.311 39.879C32.6911 39.7408 33.0367 39.568 33.4168 39.5335C33.797 39.4644 34.1771 39.4298 34.5918 39.4989C34.6264 39.4989 34.6264 39.5335 34.6264 39.5335C34.6264 39.5335 34.6264 39.5335 34.6264 39.568C34.2808 39.8445 33.9352 39.9827 33.5896 40.1209C33.2441 40.2592 32.8294 40.2937 32.4492 40.3628C31.6544 40.5011 30.8942 40.6393 30.0994 40.7084C30.1339 40.743 30.0994 40.7084 30.0994 40.7084ZM30.514 41.987C30.514 41.987 30.5486 41.987 30.514 41.987C31.2397 41.7106 31.9654 41.4687 32.6566 41.2268C33.0022 41.1231 33.3477 40.9503 33.7279 40.9158C34.108 40.8812 34.4881 40.8466 34.8683 40.9158C34.9028 40.9158 34.9028 40.9503 34.9028 40.9503C34.9028 40.9503 34.9028 40.9503 34.9028 40.9849C34.5918 41.2268 34.2117 41.365 33.8661 41.5032C33.5205 41.6415 33.1404 41.6415 32.7603 41.7106C32.0346 41.8488 31.3089 41.9525 30.514 41.987C30.5486 42.0216 30.514 42.0216 30.514 41.987ZM30.8942 43.473C30.8942 43.4384 30.8942 43.4384 30.8942 43.473C31.6199 43.162 32.311 42.9201 33.0367 42.7127C33.3823 42.6091 33.7279 42.4363 34.108 42.4017C34.4881 42.3672 34.8683 42.3326 35.2484 42.4017C35.2829 42.4017 35.2829 42.4363 35.2829 42.4363C35.2829 42.4363 35.2829 42.4363 35.2829 42.4708C34.9719 42.7127 34.6264 42.8855 34.2462 42.9892C33.9006 43.1274 33.5205 43.1274 33.1404 43.1965C32.4147 43.2657 31.689 43.4039 30.8942 43.473C30.9287 43.5076 30.8942 43.473 30.8942 43.473ZM32 51.5939C32 51.5594 32 51.5594 32 51.5939C32.622 51.5248 33.2095 51.4903 33.797 51.4557C34.108 51.4557 34.3844 51.3866 34.6955 51.4557C34.9719 51.5248 35.2829 51.5939 35.5594 51.7667C35.5594 51.7667 35.594 51.8013 35.5594 51.8013C35.2484 51.9395 34.9719 52.0086 34.6609 52.0432C34.3499 52.0777 34.0734 51.9741 33.7624 51.9395C33.1749 51.8358 32.5875 51.7667 32 51.6285V51.5939ZM34.7991 50.4536C34.4536 50.5227 34.1425 50.4536 33.797 50.419C33.1404 50.3844 32.4838 50.3499 31.7927 50.2808C31.7927 50.2808 31.7581 50.2808 31.7581 50.2462C31.7581 50.2462 31.7581 50.2117 31.7927 50.2117C32.4492 50.108 33.1058 50.0043 33.7624 49.9352C34.108 49.9006 34.419 49.797 34.7646 49.8315C35.1101 49.8661 35.4212 49.9006 35.7667 50.0734C35.7667 50.0734 35.8013 50.108 35.7667 50.108C35.4557 50.3153 35.1447 50.419 34.7991 50.4536ZM35.0065 49.0022C34.6609 49.0713 34.3153 49.0367 33.9352 49.0367C33.2441 49.0367 32.5184 49.0367 31.7927 49.0022C31.7927 49.0022 31.7581 49.0022 31.7581 48.9676C31.7581 48.9676 31.7581 48.933 31.7927 48.933C32.4838 48.7603 33.1749 48.6566 33.8661 48.5183C34.2117 48.4492 34.5572 48.3456 34.9028 48.3456C35.2484 48.3456 35.6285 48.3801 35.9741 48.5183C36.0086 48.5183 36.0086 48.5529 36.0086 48.5529C36.0086 48.5529 36.0086 48.5529 36.0086 48.5875C35.6976 48.8294 35.3866 48.933 35.0065 49.0022ZM36.0432 46.9978C35.6976 47.2052 35.3521 47.3434 34.9719 47.4471C34.6264 47.5507 34.2117 47.5162 33.8661 47.5508C33.1058 47.6199 32.3801 47.6544 31.6199 47.689C31.6199 47.689 31.5853 47.689 31.5853 47.6544C31.5853 47.6544 31.5853 47.6199 31.6199 47.6199C32.3456 47.4125 33.0713 47.2397 33.797 47.0669C34.1771 46.9978 34.5227 46.8596 34.9028 46.825C35.2829 46.825 35.6631 46.825 36.0432 46.9287C36.0778 46.9633 36.0778 46.9633 36.0432 46.9978C36.0778 46.9978 36.0432 46.9978 36.0432 46.9978ZM35.9741 45.4082C35.6285 45.6501 35.2829 45.7883 34.9374 45.892C34.5918 45.9957 34.2117 45.9957 33.8315 46.0648C33.0713 46.1685 32.3456 46.2376 31.5853 46.2721C31.5853 46.2721 31.5508 46.2721 31.5508 46.2376C31.5508 46.2376 31.5508 46.203 31.5853 46.203C32.311 45.9611 33.0367 45.7538 33.7279 45.5464C34.0734 45.4428 34.4536 45.3045 34.7991 45.27C35.1793 45.2354 35.5594 45.2354 35.9395 45.3045C35.9741 45.3736 35.9741 45.3736 35.9741 45.4082ZM35.6976 43.8531C35.3866 44.095 35.041 44.2678 34.6609 44.3715C34.3153 44.5097 33.9352 44.5097 33.5551 44.5788C32.8294 44.6825 32.0691 44.8207 31.3434 44.8898C31.3434 44.8898 31.3089 44.8898 31.3089 44.8553C31.3089 44.8553 31.3089 44.8207 31.3434 44.8207C32.0346 44.5443 32.7603 44.3024 33.486 44.095C33.8315 43.9914 34.1771 43.8186 34.5572 43.784C34.9374 43.7495 35.3175 43.7149 35.6976 43.784C35.6976 43.784 35.7322 43.8186 35.6976 43.8531C35.6976 43.8186 35.6976 43.8531 35.6976 43.8531ZM32.3456 52.7343C32.8294 52.7343 33.3132 52.7343 33.7624 52.7689C34.0043 52.7689 34.2117 52.7689 34.4536 52.838C34.6609 52.9071 34.9028 53.0108 35.1101 53.1836V53.2181C34.8682 53.3218 34.6264 53.3218 34.3844 53.3218C34.1425 53.3218 33.9352 53.2181 33.7279 53.149C33.2441 53.0453 32.7948 52.9417 32.3456 52.7343C32.3456 52.7689 32.3456 52.7689 32.3456 52.7343ZM32.6566 53.9093C32.6566 53.9093 32.6566 53.8747 32.6566 53.9093C33.0022 53.9438 33.3132 53.9784 33.6242 54.013C33.797 54.0475 33.9352 54.0475 34.108 54.1166C34.2462 54.1857 34.3844 54.2894 34.5227 54.4276V54.4622C34.3499 54.5313 34.1771 54.5313 34.0043 54.4967C33.8315 54.4622 33.6933 54.3931 33.5551 54.324C33.2441 54.2203 32.9676 54.0821 32.6566 53.9093ZM34.2462 55.9482C34.2462 55.9482 34.2462 55.9136 34.2462 55.9482C34.2462 55.9136 34.2462 55.9482 34.2462 55.9482ZM38.2203 47.1706C37.8056 47.2052 37.7365 47.2397 37.5983 47.2743C37.2181 47.4816 37.0799 47.9309 37.2873 48.311C37.4255 48.5529 37.6674 48.6911 37.9093 48.7257C38.1512 48.7603 38.3931 48.8985 38.4968 49.1404C38.635 49.4168 38.6004 49.7279 38.4276 49.9698L40.0864 50.419C40.0864 50.419 38.0821 50.2808 37.8056 50.2462C37.5292 50.2117 37.3909 50.2462 37.2181 50.3153C36.8726 50.5227 36.7343 50.9374 36.9071 51.3175C37.0108 51.4903 37.149 51.6285 37.3564 51.6631C37.5637 51.7322 37.7019 51.8358 37.8056 52.0086C37.9784 52.3542 37.8747 52.7689 37.5292 52.9417L38.1857 53.2181C38.1857 53.2181 37.7711 53.149 37.3218 53.0453C36.9762 52.9762 36.5961 52.8726 36.4233 52.9762C36.2851 53.0453 36.1469 53.2872 36.0432 53.5291C35.594 54.3931 35.2138 54.9806 34.5227 55.6717C35.594 54.2203 36.0086 52.7343 36.3197 51.041C36.6652 49.3132 36.6652 47.5507 36.527 45.7883C36.3542 44.0259 36.0086 42.298 35.5248 40.6393C35.041 38.946 34.419 37.2873 33.7279 35.6631C32.2765 32.3456 31.1015 28.7862 30.8596 25.1231C30.7214 23.2916 30.8251 21.4255 31.2743 19.6285C31.5162 18.73 31.7927 17.8661 32.2419 17.0367C32.6566 16.2419 33.1058 15.5508 33.7624 14.9633C33.7624 14.9633 33.5896 15.2743 33.5896 15.4471C33.5896 15.689 33.6933 15.8963 33.8661 16.0691C34.0389 16.2073 34.2117 16.4492 34.2117 16.7257C34.2117 16.8985 34.1425 17.0713 34.0043 17.2095L35.4557 17.7624C35.4557 17.7624 33.1404 17.3823 33.0713 17.3823C32.6566 17.3823 32.311 17.6933 32.311 18.108C32.311 18.4536 32.5529 18.7646 32.8294 18.8337C33.1404 18.9028 33.3823 19.2138 33.3477 19.5594C33.3477 19.6631 33.3132 19.8013 33.2441 19.8704L35.8704 20.216C35.8704 20.216 32.4147 20.2505 32.3801 20.2505C31.9654 20.2505 31.5853 20.5616 31.5853 21.0108C31.5853 21.4255 31.8963 21.7711 32.3456 21.8056C32.7948 21.8402 33.0713 22.1857 33.0713 22.6004C33.0713 22.7041 33.0367 22.7732 33.0022 22.8769H35.905C35.905 22.8769 32.8985 23.257 32.4492 23.3261C32 23.3952 31.5508 23.7408 31.5853 24.1555C31.4471 24.5702 31.7927 24.8812 32.2073 24.8812C32.622 24.8812 33.0367 25.1577 33.0713 25.6069C33.0713 25.7106 33.0713 25.7797 33.0367 25.8834L36.0086 25.6415C36.0086 25.6415 32.5529 26.4017 32.3456 26.4363C31.9309 26.54 31.6544 26.9546 31.7581 27.3693C31.8618 27.784 32.2765 28.0259 32.6911 27.9568C33.1058 27.8531 33.486 28.0605 33.6242 28.4406C33.6587 28.5788 33.6933 28.7171 33.6587 28.8553L36.8035 28.5097C36.8035 28.5097 33.2786 29.3736 33.0367 29.4773C32.622 29.6155 32.4147 30.0648 32.5529 30.4449C32.6911 30.825 33.1058 31.0324 33.486 30.9287C33.9007 30.825 34.3844 30.9978 34.5227 31.4125C34.5572 31.5508 34.5572 31.6544 34.5572 31.7927L37.9093 31.1706C37.9093 31.1706 34.2117 32.3456 34.0389 32.4147C33.6242 32.5875 33.4514 33.0367 33.6242 33.4168C33.797 33.797 34.2117 33.9698 34.5918 33.8315C34.9719 33.6933 35.3866 33.8315 35.594 34.1771C35.6631 34.3153 35.6976 34.4536 35.6976 34.6263L39.1188 33.797C39.1188 33.797 35.4212 35.1447 35.1447 35.2829C34.7646 35.4903 34.6264 35.9395 34.8337 36.3196C35.0065 36.6652 35.4212 36.8034 35.7667 36.6998C36.1123 36.5615 36.5616 36.6998 36.7689 37.0453C36.838 37.2181 36.8726 37.3564 36.838 37.5292L40.0173 36.9762C40.0173 36.9762 36.3888 38.1166 36.216 38.1857C35.8359 38.3931 35.6976 38.8423 35.905 39.2225C36.0778 39.5335 36.4233 39.7063 36.7689 39.6026C37.1145 39.5335 37.4946 39.6371 37.6674 39.9827C37.7365 40.1209 37.7711 40.2937 37.7365 40.4665L40.8466 39.9482C40.8466 39.9482 37.5637 40.9849 37.4255 41.0194C37.2873 41.054 37.0454 41.1231 36.9762 41.1922C36.5961 41.3996 36.4579 41.8488 36.6652 42.2289C36.838 42.5399 37.149 42.6782 37.4946 42.6091C37.8402 42.5745 38.1857 42.6782 38.3585 42.9892C38.4622 43.162 38.4622 43.3693 38.4276 43.5421L41.2613 43.2657C41.2613 43.2657 38.324 43.9914 38.0475 44.0605C37.7711 44.1296 37.5637 44.1641 37.4946 44.1987C37.1145 44.406 36.9762 44.8553 37.1836 45.2354C37.3218 45.5119 37.6328 45.6847 37.9438 45.6501C38.2203 45.6501 38.5313 45.7883 38.6695 46.0648C38.7732 46.2721 38.7732 46.4795 38.7041 46.6868L41.2959 46.825C41.2959 46.825 38.6004 47.1361 38.2203 47.1706Z" fill="white"/>
</g>
<path d="M138.574 41.4341L140.952 38.6108C143.101 40.47 145.251 41.5309 148.043 41.5309C150.486 41.5309 152.028 40.4078 152.028 38.7076V38.6419C152.028 37.035 151.126 36.1711 146.955 35.2069C142.172 34.0492 139.473 32.6393 139.473 28.4959V28.4337C139.473 24.5806 142.683 21.9162 147.148 21.9162C150.115 21.857 153.005 22.8581 155.3 24.7395L153.182 27.7287C151.16 26.2186 149.139 25.4134 147.082 25.4134C144.774 25.4134 143.412 26.6091 143.412 28.0812V28.1434C143.412 29.8713 144.449 30.6488 148.741 31.6752C153.489 32.8328 155.964 34.533 155.964 38.241V38.3067C155.964 42.5123 152.66 45.0143 147.939 45.0143C144.48 45.0349 141.138 43.7574 138.574 41.4341Z" fill="white"/>
<path d="M157.325 41.4341L159.699 38.6108C161.852 40.47 164.002 41.5309 166.794 41.5309C169.234 41.5309 170.775 40.4078 170.775 38.7076V38.6419C170.775 37.035 169.876 36.1711 165.702 35.2069C160.919 34.0492 158.224 32.6393 158.224 28.4959V28.4337C158.224 24.5806 161.434 21.9162 165.895 21.9162C168.863 21.8564 171.755 22.8576 174.051 24.7395L171.933 27.7287C169.907 26.2186 167.886 25.4134 165.833 25.4134C163.521 25.4134 162.17 26.6022 162.17 28.0812V28.1434C162.17 29.8713 163.207 30.6488 167.499 31.6752C172.25 32.8328 174.725 34.533 174.725 38.241V38.3067C174.725 42.5123 171.418 45.0143 166.701 45.0143C163.237 45.0375 159.891 43.7599 157.325 41.4341Z" fill="white"/>
<path d="M88.1209 22.2376H79.2466V44.6998H83.193V25.8315H87.7753C90.7265 25.8315 92.6133 27.2138 92.6133 29.8436V29.9093C92.6133 32.2523 90.7507 33.9248 87.7753 33.9248H83.6561L85.9369 37.4842H87.6647C92.6064 37.4842 96.6496 34.8544 96.6496 29.8125V29.7503C96.6461 25.2268 93.3356 22.2376 88.1209 22.2376Z" fill="white"/>
<path d="M128.968 22.2376H120.107V44.6998H124.061V25.8315H128.653C131.604 25.8315 133.491 27.2138 133.491 29.8436V29.9093C133.491 32.2523 131.632 33.9248 128.653 33.9248H124.52L126.797 37.4842H128.525C133.47 37.4842 137.51 34.8544 137.51 29.8125V29.7503C137.507 25.2268 134.2 22.2376 128.968 22.2376Z" fill="white"/>
<path d="M107.864 22.0752H104.201L94.3137 44.7102H98.3569L100.582 39.492L102.162 35.6734L105.966 26.7957L109.851 35.784H102.542L104.778 39.2847H111.299L113.576 44.7102H117.747L107.864 22.0752Z" fill="white"/>
<path d="M202.011 43.7495C201.327 44.4372 200.4 44.8292 199.43 44.8415C197.868 44.8415 196.689 43.8946 196.689 42.4397V42.4156C196.689 41.3339 197.325 40.5529 198.48 40.0622C198.047 39.5781 197.802 38.9555 197.788 38.3067V38.286C197.788 37.1559 198.701 36.1711 200.207 36.1711C201.541 36.1711 202.44 37.073 202.44 38.1996V38.2238C202.44 39.3296 201.707 39.9896 200.591 40.4112L202.032 41.8765C202.373 41.3588 202.675 40.8158 202.934 40.2523L204.05 40.8432C203.723 41.5139 203.342 42.1565 202.91 42.7646L204.23 44.1089L203.138 44.8898L202.011 43.7495ZM201.168 42.8821L199.295 40.9745C198.518 41.3201 198.179 41.8281 198.179 42.3568V42.381C198.179 43.0721 198.766 43.6078 199.585 43.6078C200.187 43.581 200.755 43.3207 201.168 42.8821ZM201.123 38.3067V38.286C201.129 38.1587 201.108 38.0315 201.062 37.9128C201.016 37.7941 200.945 37.6864 200.854 37.5968C200.764 37.5072 200.655 37.4376 200.536 37.3926C200.417 37.3477 200.29 37.3282 200.162 37.3356C200.029 37.3301 199.896 37.3526 199.772 37.4015C199.648 37.4505 199.535 37.5249 199.441 37.6199C199.348 37.7149 199.275 37.8285 199.228 37.9533C199.18 38.0781 199.16 38.2114 199.167 38.3447V38.3585C199.167 38.7801 199.337 39.0911 199.803 39.606C200.664 39.3054 201.123 38.908 201.123 38.3067Z" fill="white"/>
<path d="M196.976 22.2998H200.28C202.232 22.2998 203.463 23.4125 203.463 25.1024V25.1266C203.463 27.003 201.956 27.9844 200.114 27.9844H198.462V30.6765H196.976V22.2998ZM200.159 26.6574C201.272 26.6574 201.966 26.0354 201.966 25.1611V25.1369C201.966 24.1555 201.275 23.6406 200.159 23.6406H198.431V26.6574H200.159Z" fill="white"/>
<path d="M208.467 30.6765V29.8989C208.217 30.1958 207.903 30.432 207.549 30.5895C207.194 30.7469 206.808 30.8216 206.421 30.8078C205.222 30.8078 204.171 30.1166 204.171 28.8587V28.8346C204.171 27.4523 205.26 26.7611 206.732 26.7611C207.318 26.7528 207.902 26.8415 208.46 27.0238V26.9028C208.46 26.032 207.91 25.5516 206.905 25.5516C206.281 25.5542 205.665 25.6884 205.097 25.9456L204.703 24.7879C205.457 24.4256 206.286 24.2446 207.122 24.2592C208.988 24.2592 209.887 25.2406 209.887 26.927V30.6765H208.467ZM208.501 28.0328C208.038 27.862 207.547 27.7766 207.053 27.7806C206.144 27.7806 205.605 28.1538 205.605 28.762V28.7862C205.605 29.384 206.144 29.7192 206.829 29.7192C207.786 29.7192 208.501 29.1801 208.501 28.3922V28.0328Z" fill="white"/>
<path d="M211.528 24.3594H212.976V25.3408C213.179 24.9996 213.467 24.7173 213.813 24.5221C214.159 24.3269 214.549 24.2255 214.946 24.2281C216.373 24.2281 217.196 25.1853 217.196 26.6471V30.6765H215.748V27.086C215.748 26.108 215.261 25.5447 214.397 25.5447C213.533 25.5447 212.973 26.1287 212.973 27.1102V30.6765H211.525L211.528 24.3594Z" fill="white"/>
<path d="M226.291 22.241H227.656L231.343 30.6765H229.785L228.938 28.6549H224.968L224.107 30.6765H222.6L226.291 22.241ZM228.399 27.3521L226.951 24L225.514 27.3521H228.399Z" fill="white"/>
<path d="M232.598 25.6035H231.796V24.3939H232.598V23.9412C232.576 23.6587 232.61 23.3746 232.698 23.1053C232.787 22.836 232.928 22.5869 233.113 22.3724C233.303 22.1961 233.528 22.0605 233.773 21.9737C234.018 21.887 234.277 21.851 234.537 21.8678C234.933 21.8631 235.329 21.9203 235.708 22.0371V23.257C235.436 23.1566 235.148 23.104 234.858 23.1015C234.308 23.1015 234.022 23.4022 234.022 24.0587V24.4043H235.698V25.6H234.046V30.6765H232.598V25.6035Z" fill="white"/>
<path d="M236.676 24.3594H238.127V25.7832C238.521 24.8363 239.25 24.1901 240.363 24.2384V25.7693H240.28C239.012 25.7693 238.127 26.5952 238.127 28.2713V30.6903H236.676V24.3594Z" fill="white"/>
<path d="M241.555 22.013H243.114V23.3952H241.555V22.013ZM241.617 24.3594H243.065V30.6765H241.617V24.3594Z" fill="white"/>
<path d="M244.503 27.5559V27.5318C244.496 27.0987 244.576 26.6688 244.738 26.2671C244.9 25.8654 245.14 25.5001 245.445 25.1924C245.75 24.8847 246.113 24.641 246.513 24.4754C246.913 24.3098 247.342 24.2257 247.775 24.2281C248.251 24.2068 248.726 24.2937 249.163 24.4822C249.601 24.6708 249.99 24.9561 250.301 25.3166L249.403 26.2877C249.207 26.0436 248.96 25.846 248.678 25.7091C248.397 25.5723 248.088 25.4996 247.775 25.4963C246.721 25.4963 245.958 26.4052 245.958 27.5076V27.5318C245.958 28.6549 246.735 29.5637 247.848 29.5637C248.161 29.5555 248.469 29.481 248.751 29.3452C249.034 29.2094 249.284 29.0154 249.486 28.7758L250.36 29.6363C249.927 30.1548 249.345 30.5283 248.694 30.7066C248.042 30.8849 247.351 30.8595 246.714 30.6338C246.077 30.4081 245.525 29.9928 245.13 29.4439C244.736 28.8949 244.52 28.2385 244.51 27.5629L244.503 27.5559Z" fill="white"/>
<path d="M255.45 30.6765V29.8989C255.201 30.1958 254.887 30.432 254.532 30.5895C254.178 30.7469 253.792 30.8216 253.405 30.8078C252.206 30.8078 251.155 30.1166 251.155 28.8587V28.8346C251.155 27.4523 252.244 26.7611 253.716 26.7611C254.302 26.7525 254.886 26.8413 255.444 27.0238V26.9028C255.444 26.032 254.894 25.5516 253.888 25.5516C253.265 25.5542 252.649 25.6884 252.081 25.9456L251.687 24.7879C252.441 24.4256 253.27 24.2446 254.106 24.2592C255.972 24.2592 256.871 25.2406 256.871 26.927V30.6765H255.45ZM255.485 28.0328C255.022 27.862 254.531 27.7766 254.037 27.7806C253.128 27.7806 252.589 28.1538 252.589 28.762V28.7862C252.589 29.384 253.128 29.7192 253.812 29.7192C254.77 29.7192 255.485 29.1801 255.485 28.3922V28.0328Z" fill="white"/>
<path d="M258.512 24.3594H259.96V25.3408C260.164 24.9978 260.455 24.7144 260.803 24.5191C261.151 24.3238 261.545 24.2234 261.944 24.2281C263.371 24.2281 264.193 25.1853 264.193 26.6471V30.6765H262.745V27.086C262.745 26.108 262.258 25.5447 261.394 25.5447C260.53 25.5447 259.971 26.1287 259.971 27.1102V30.6765H258.523L258.512 24.3594Z" fill="white"/>
<path d="M269.495 22.2998H272.798C274.751 22.2998 275.981 23.4125 275.981 25.1024V25.1266C275.981 27.003 274.474 27.9844 272.632 27.9844H270.967V30.6765H269.495V22.2998ZM272.677 26.6574C273.79 26.6574 274.485 26.0354 274.485 25.1611V25.1369C274.485 24.1555 273.794 23.6406 272.677 23.6406H270.967V26.6574H272.677Z" fill="white"/>
<path d="M280.971 30.6765V29.8989C280.721 30.1958 280.407 30.432 280.053 30.5895C279.699 30.7469 279.313 30.8216 278.925 30.8078C277.726 30.8078 276.676 30.1166 276.676 28.8587V28.8346C276.676 27.4523 277.764 26.7611 279.236 26.7611C279.828 26.7509 280.418 26.8396 280.981 27.0238V26.9028C280.981 26.032 280.432 25.5516 279.426 25.5516C278.803 25.5542 278.187 25.6884 277.619 25.9456L277.225 24.7879C277.979 24.4256 278.807 24.2446 279.644 24.2592C281.51 24.2592 282.409 25.2406 282.409 26.927V30.6765H280.971ZM281.006 28.0328C280.542 27.862 280.052 27.7766 279.558 27.7806C278.649 27.7806 278.11 28.1538 278.11 28.762V28.7862C278.11 29.384 278.649 29.7192 279.333 29.7192C280.29 29.7192 281.006 29.1801 281.006 28.3922V28.0328Z" fill="white"/>
<path d="M283.59 32.2454L284.081 31.1672C284.339 31.3187 284.632 31.402 284.931 31.4091C285.339 31.4091 285.588 31.2294 285.826 30.6765L283.197 24.3594H284.752L286.549 29.0488L288.187 24.3594H289.693L287.171 30.8562C286.67 32.1486 286.106 32.6289 285.097 32.6289C284.57 32.6377 284.05 32.5053 283.59 32.2454Z" fill="white"/>
<path d="M290.827 24.3594H292.278V25.3166C292.479 24.9853 292.761 24.7111 293.098 24.5204C293.435 24.3298 293.816 24.2291 294.203 24.2281C294.591 24.2101 294.975 24.3058 295.309 24.5035C295.643 24.7012 295.912 24.9923 296.083 25.3408C296.322 24.9948 296.643 24.7125 297.016 24.5185C297.39 24.3246 297.805 24.2249 298.226 24.2281C299.608 24.2281 300.437 25.1024 300.437 26.6471V30.6765H298.989V27.086C298.989 26.0838 298.523 25.5447 297.711 25.5447C296.899 25.5447 296.36 26.0942 296.36 27.1102V30.6765H294.908V27.0756C294.908 26.0942 294.431 25.5447 293.629 25.5447C292.828 25.5447 292.278 26.1426 292.278 27.124V30.6765H290.827V24.3594Z" fill="white"/>
<path d="M301.754 27.5421V27.5179C301.754 25.7106 303.032 24.2281 304.84 24.2281C306.851 24.2281 307.867 25.8073 307.867 27.6251C307.867 27.7564 307.867 27.8877 307.843 28.0328H303.202C303.242 28.4819 303.453 28.8984 303.791 29.1966C304.129 29.4949 304.569 29.6522 305.019 29.6363C305.344 29.6407 305.666 29.5757 305.964 29.4458C306.262 29.3159 306.529 29.124 306.747 28.8829L307.597 29.6363C307.287 30.0201 306.893 30.3269 306.444 30.5326C305.996 30.7382 305.506 30.8372 305.012 30.8216C304.579 30.8367 304.146 30.7621 303.743 30.6023C303.339 30.4426 302.973 30.2012 302.667 29.8933C302.361 29.5855 302.122 29.2177 301.965 28.8131C301.808 28.4085 301.736 27.9758 301.754 27.5421ZM306.433 27.0756C306.336 26.1426 305.786 25.4134 304.829 25.4134C303.941 25.4134 303.323 26.1045 303.188 27.0756H306.433Z" fill="white"/>
<path d="M309.229 24.3594H310.67V25.3408C310.873 24.999 311.163 24.7165 311.51 24.5213C311.857 24.3261 312.248 24.225 312.646 24.2281C314.07 24.2281 314.896 25.1853 314.896 26.6471V30.6765H313.448V27.086C313.448 26.108 312.957 25.5447 312.097 25.5447C311.236 25.5447 310.67 26.1287 310.67 27.1102V30.6765H309.222L309.229 24.3594Z" fill="white"/>
<path d="M316.852 28.9313V25.6035H316.05V24.3594H316.852V22.6315H318.3V24.3594H320V25.6035H318.3V28.7136C318.283 28.8201 318.292 28.929 318.325 29.0317C318.357 29.1343 318.414 29.2278 318.49 29.3047C318.565 29.3816 318.658 29.4398 318.76 29.4745C318.862 29.5093 318.97 29.5197 319.077 29.505C319.39 29.5063 319.698 29.4316 319.976 29.2873V30.4726C319.579 30.6961 319.129 30.8083 318.673 30.7974C317.605 30.787 316.852 30.3171 316.852 28.9313Z" fill="white"/>
<path d="M208.601 43.4765L209.489 42.4397C210.198 43.1282 211.145 43.5179 212.133 43.5283C213.042 43.5283 213.616 43.1102 213.616 42.4916V42.4674C213.616 41.873 213.27 41.5482 211.725 41.1888C209.942 40.7603 208.937 40.2315 208.937 38.6868V38.6626C208.937 37.2285 210.136 36.2436 211.798 36.2436C212.902 36.2176 213.98 36.5851 214.839 37.2803L214.048 38.3585C213.404 37.8305 212.605 37.5282 211.774 37.4981C210.913 37.4981 210.391 37.9404 210.391 38.4898V38.514C210.391 39.1603 210.775 39.4471 212.378 39.8307C214.151 40.2626 215.07 40.895 215.07 42.2842V42.3084C215.07 43.8773 213.84 44.8104 212.081 44.8104C210.796 44.8148 209.555 44.3391 208.601 43.4765Z" fill="white"/>
<path d="M216.211 41.562V41.5378C216.211 39.7304 217.493 38.2479 219.3 38.2479C221.311 38.2479 222.327 39.8272 222.327 41.6449C222.327 41.7762 222.327 41.9076 222.303 42.0527H217.659C217.701 42.5017 217.913 42.9178 218.251 43.2158C218.59 43.5138 219.029 43.6713 219.48 43.6562C219.805 43.6603 220.127 43.5953 220.425 43.4654C220.723 43.3355 220.99 43.1437 221.208 42.9028L222.058 43.6562C221.748 44.04 221.353 44.3468 220.905 44.5524C220.456 44.7581 219.966 44.857 219.473 44.8415C219.039 44.8566 218.607 44.7819 218.203 44.6222C217.799 44.4625 217.433 44.2212 217.126 43.9134C216.82 43.6055 216.581 43.2378 216.423 42.8332C216.266 42.4286 216.193 41.9958 216.211 41.562ZM220.89 41.0955C220.797 40.1624 220.247 39.4298 219.29 39.4298C218.402 39.4298 217.78 40.1209 217.648 41.0955H220.89Z" fill="white"/>
<path d="M223.99 42.9512V39.6233H223.188V38.3793H223.99V36.6514H225.438V38.3793H227.138V39.6233H225.438V42.7335C225.422 42.8397 225.431 42.9483 225.464 43.0504C225.497 43.1526 225.554 43.2457 225.629 43.3221C225.705 43.3986 225.797 43.4565 225.899 43.491C226 43.5256 226.109 43.536 226.215 43.5214C226.527 43.5215 226.835 43.4481 227.114 43.3071V44.4924C226.715 44.7152 226.264 44.8262 225.807 44.8138C224.743 44.8035 223.99 44.3369 223.99 42.9512Z" fill="white"/>
<path d="M228.8 42.9512V39.6233H227.995V38.3793H228.8V36.6514H230.248V38.3793H231.945V39.6233H230.248V42.7335C230.232 42.8397 230.241 42.9483 230.274 43.0504C230.307 43.1526 230.364 43.2457 230.439 43.3221C230.515 43.3986 230.607 43.4565 230.709 43.491C230.811 43.5256 230.919 43.536 231.026 43.5214C231.337 43.5219 231.643 43.4485 231.921 43.3071V44.4924C231.523 44.7152 231.073 44.8263 230.618 44.8138C229.553 44.8035 228.8 44.3369 228.8 42.9512Z" fill="white"/>
<path d="M233.393 35.9603H234.841V44.6963H233.393V35.9603Z" fill="white"/>
<path d="M236.289 41.562V41.5378C236.289 39.7304 237.571 38.2479 239.375 38.2479C241.386 38.2479 242.405 39.8272 242.405 41.6449C242.405 41.7762 242.405 41.9076 242.381 42.0527H237.754C237.794 42.5018 238.005 42.9183 238.343 43.2165C238.681 43.5148 239.121 43.6721 239.572 43.6562C239.897 43.6599 240.218 43.5946 240.516 43.4648C240.814 43.3349 241.081 43.1434 241.299 42.9028L242.15 43.6562C241.839 44.0394 241.444 44.3457 240.996 44.5513C240.548 44.7569 240.058 44.8562 239.565 44.8415C239.13 44.8585 238.696 44.7853 238.29 44.6265C237.885 44.4677 237.517 44.2266 237.209 43.9186C236.901 43.6106 236.661 43.2422 236.502 42.8366C236.344 42.431 236.271 41.997 236.289 41.562ZM240.968 41.0955C240.871 40.1624 240.321 39.4298 239.364 39.4298C238.48 39.4298 237.858 40.1209 237.726 41.0955H240.968Z" fill="white"/>
<path d="M243.767 38.3793H245.215V39.3365C245.416 39.0056 245.698 38.7318 246.035 38.5412C246.372 38.3506 246.752 38.2496 247.14 38.2479C247.527 38.2295 247.912 38.325 248.246 38.5228C248.58 38.7206 248.849 39.0118 249.02 39.3607C249.259 39.0146 249.579 38.7324 249.953 38.5384C250.326 38.3445 250.741 38.2448 251.162 38.2479C252.544 38.2479 253.377 39.1188 253.377 40.667V44.6998H251.922V41.1231C251.922 40.1175 251.459 39.5819 250.644 39.5819C249.828 39.5819 249.293 40.1313 249.293 41.1473V44.7136H247.845V41.0955C247.845 40.114 247.364 39.5646 246.563 39.5646C245.761 39.5646 245.211 40.1624 245.211 41.1404V44.6963H243.767V38.3793Z" fill="white"/>
<path d="M254.687 41.562V41.5378C254.687 39.7304 255.969 38.2479 257.773 38.2479C259.784 38.2479 260.803 39.8272 260.803 41.6449C260.803 41.7762 260.803 41.9076 260.779 42.0527H256.138C256.179 42.5018 256.39 42.9183 256.728 43.2165C257.066 43.5148 257.505 43.6721 257.956 43.6562C258.281 43.6599 258.603 43.5946 258.901 43.4648C259.199 43.3349 259.465 43.1434 259.684 42.9028L260.534 43.6562C260.223 44.0399 259.828 44.3465 259.379 44.5521C258.93 44.7577 258.439 44.8568 257.946 44.8415C257.512 44.8561 257.08 44.7811 256.677 44.6212C256.273 44.4612 255.907 44.2198 255.601 43.9121C255.296 43.6043 255.056 43.2367 254.899 42.8324C254.742 42.428 254.669 41.9955 254.687 41.562ZM259.366 41.0955C259.269 40.1624 258.72 39.4298 257.762 39.4298C256.878 39.4298 256.256 40.1209 256.124 41.0955H259.366Z" fill="white"/>
<path d="M262.168 38.3793H263.616V39.3607C263.819 39.0187 264.108 38.7359 264.454 38.5406C264.801 38.3454 265.192 38.2444 265.59 38.2479C267.017 38.2479 267.839 39.2052 267.839 40.667V44.686H266.391V41.1231C266.391 40.1417 265.904 39.5819 265.04 39.5819C264.176 39.5819 263.616 40.1659 263.616 41.1473V44.7136H262.168V38.3793Z" fill="white"/>
<path d="M269.788 42.9512V39.6233H268.987V38.3793H269.788V36.6514H271.236V38.3793H272.936V39.6233H271.236V42.7335C271.22 42.8397 271.229 42.9483 271.262 43.0504C271.296 43.1526 271.352 43.2457 271.428 43.3221C271.503 43.3986 271.595 43.4565 271.697 43.491C271.799 43.5256 271.907 43.536 272.014 43.5214C272.326 43.5223 272.634 43.4489 272.912 43.3071V44.4924C272.515 44.7152 272.065 44.8263 271.609 44.8138C270.542 44.8035 269.788 44.3369 269.788 42.9512Z" fill="white"/>
<path d="M278.186 43.4765L279.07 42.4397C279.779 43.1282 280.726 43.5179 281.714 43.5283C282.626 43.5283 283.2 43.1102 283.2 42.4916V42.4674C283.2 41.873 282.854 41.5482 281.31 41.1888C279.527 40.7603 278.521 40.2315 278.521 38.6868V38.6626C278.521 37.2285 279.717 36.2436 281.379 36.2436C282.484 36.217 283.562 36.5845 284.42 37.2803L283.625 38.3585C282.982 37.8305 282.183 37.5282 281.351 37.4981C280.487 37.4981 279.986 37.9404 279.986 38.4898V38.514C279.986 39.1603 280.366 39.4471 281.973 39.8307C283.743 40.2626 284.665 40.895 284.665 42.2842V42.3084C284.665 43.8773 283.432 44.8104 281.673 44.8104C280.384 44.8172 279.14 44.3413 278.186 43.4765Z" fill="white"/>
<path d="M285.754 46.2652L286.245 45.187C286.502 45.3369 286.793 45.419 287.091 45.4255C287.499 45.4255 287.751 45.2458 287.99 44.6963L285.36 38.3793H286.901L288.698 43.0687L290.336 38.3793H291.843L289.33 44.876C288.829 46.1685 288.266 46.6488 287.257 46.6488C286.731 46.6571 286.212 46.5247 285.754 46.2652Z" fill="white"/>
<path d="M292.237 43.8877L292.883 42.9063C293.474 43.3799 294.2 43.6524 294.956 43.6838C295.579 43.6838 295.938 43.4212 295.938 42.9927V42.9685C295.938 42.4777 295.271 42.3084 294.528 42.0838C293.595 41.8212 292.551 41.4376 292.551 40.2281V40.2039C292.551 39.0082 293.547 38.279 294.801 38.279C295.627 38.2936 296.432 38.5416 297.123 38.9944L296.55 40.0311C296.017 39.681 295.402 39.4751 294.766 39.4333C294.203 39.4333 293.882 39.6959 293.882 40.0657V40.0864C293.882 40.5425 294.573 40.7361 295.306 40.9745C296.228 41.2613 297.268 41.6657 297.268 42.8164V42.8406C297.268 44.1676 296.232 44.8276 294.922 44.8276C293.948 44.8167 293.005 44.4865 292.237 43.8877Z" fill="white"/>
<path d="M298.82 42.9512V39.6233H298.015V38.3793H298.82V36.6514H300.268V38.3793H301.965V39.6233H300.268V42.7335C300.252 42.8397 300.261 42.9483 300.294 43.0504C300.327 43.1526 300.384 43.2457 300.459 43.3221C300.535 43.3986 300.627 43.4565 300.729 43.491C300.83 43.5256 300.939 43.536 301.045 43.5214C301.356 43.5219 301.663 43.4485 301.94 43.3071V44.4924C301.543 44.7152 301.093 44.8263 300.638 44.8138C299.573 44.8035 298.82 44.3369 298.82 42.9512Z" fill="white"/>
<path d="M302.804 41.562V41.5378C302.804 39.7304 304.083 38.2479 305.89 38.2479C307.901 38.2479 308.921 39.8272 308.921 41.6449C308.921 41.7762 308.921 41.9076 308.897 42.0527H304.252C304.293 42.5018 304.504 42.9183 304.842 43.2165C305.18 43.5148 305.619 43.6721 306.07 43.6562C306.395 43.6599 306.717 43.5946 307.015 43.4648C307.313 43.3349 307.579 43.1434 307.798 42.9028L308.644 43.6562C308.334 44.04 307.94 44.3468 307.491 44.5524C307.043 44.7581 306.553 44.857 306.06 44.8415C305.626 44.8556 305.195 44.7802 304.792 44.6201C304.389 44.46 304.023 44.2185 303.718 43.9108C303.412 43.603 303.173 43.2356 303.016 42.8315C302.859 42.4274 302.787 41.9952 302.804 41.562ZM307.483 41.0955C307.387 40.1624 306.837 39.4298 305.88 39.4298C304.995 39.4298 304.373 40.1209 304.242 41.0955H307.483Z" fill="white"/>
<path d="M310.282 38.3793H311.73V39.3365C311.931 39.0056 312.214 38.7318 312.551 38.5412C312.888 38.3506 313.268 38.2496 313.655 38.2479C314.043 38.2295 314.428 38.325 314.762 38.5228C315.096 38.7206 315.365 39.0118 315.535 39.3607C315.775 39.0146 316.095 38.7324 316.468 38.5384C316.842 38.3445 317.257 38.2448 317.678 38.2479C319.06 38.2479 319.893 39.1188 319.893 40.667V44.6998H318.445V41.1231C318.445 40.1175 317.978 39.5819 317.163 39.5819C316.347 39.5819 315.812 40.1313 315.812 41.1473V44.7136H314.364V41.0955C314.364 40.114 313.883 39.5646 313.082 39.5646C312.28 39.5646 311.73 40.1624 311.73 41.1404V44.6963H310.282V38.3793Z" fill="white"/>
<path d="M222.476 26.267H218.972V27.6907H221.854L222.476 26.267Z" fill="white"/>
<defs>
<clipPath id="clip0">
<rect width="69.1145" height="69.1145" fill="white"/>
</clipPath>
</defs>
</svg>
