<?xml version="1.0" standalone="yes"?>
<svg width="942" height="402" viewBox="0 0 942 402" fill="none" xmlns="http://www.w3.org/2000/svg">
<g clip-path="url(#clip0)">
<path opacity="0.1" d="M471 402.025V0H45.0308C15.4238 62.8636 0.0474163 131.489 -0.00159147 200.981C-0.0505992 270.473 15.2289 339.119 44.7473 402.025H471Z" fill="#682C99"/>
<path opacity="0.2" d="M897.253 402.025C926.772 339.119 942.051 270.473 942.002 200.981C941.953 131.489 926.577 62.8636 896.97 0L471 0V402.025H897.253Z" fill="#FFCD03"/>
<path opacity="0.5" d="M471 306.452C529.052 306.452 576.112 259.372 576.112 201.296C576.112 143.221 529.052 96.1409 471 96.1409C412.949 96.1409 365.888 143.221 365.888 201.296C365.888 259.372 412.949 306.452 471 306.452Z" fill="white" stroke="#3C0C70" stroke-width="0.71" stroke-miterlimit="10"/>
<path opacity="0.5" d="M615.238 59.6626C636.921 79.2829 652.872 110.15 664.545 137.453L765.873 102.837" stroke="#3C0C70" stroke-width="0.71" stroke-miterlimit="10"/>
<path opacity="0.5" d="M328.402 55.8025L397.963 126.847" stroke="#3C0C70" stroke-width="0.71" stroke-miterlimit="10"/>
<path opacity="0.5" d="M184.904 80.8242L283.717 122.087C295.036 95.402 311.913 71.4383 333.222 51.7946" stroke="#3C0C70" stroke-width="0.71" stroke-miterlimit="10"/>
<path opacity="0.5" d="M57.9368 202.245L159.609 201.333C159.574 235.173 165.057 268.792 175.844 300.865" stroke="#3C0C70" stroke-width="0.71" stroke-miterlimit="10"/>
<path d="M469.584 172.515C468.647 173.411 467.881 174.47 467.321 175.639C466.696 176.877 466.214 178.183 465.885 179.53C465.251 182.236 465.049 185.026 465.286 187.795C465.681 193.341 467.45 198.672 469.62 203.658C470.699 206.087 471.61 208.587 472.344 211.141C473.096 213.681 473.606 216.287 473.867 218.923C474.136 221.554 474.035 224.21 473.568 226.813C473.068 229.399 472.479 231.623 470.856 233.796C471.818 232.885 472.597 231.799 473.152 230.597C473.284 230.278 473.489 229.995 473.751 229.771C474.014 229.618 474.58 229.75 475.116 229.863C475.75 229.998 476.394 230.124 476.394 230.124L475.427 229.705C475.55 229.64 475.658 229.551 475.747 229.444C475.835 229.338 475.901 229.214 475.942 229.082C475.983 228.949 475.997 228.81 475.983 228.671C475.97 228.533 475.929 228.399 475.864 228.277C475.794 228.148 475.699 228.035 475.585 227.945C475.47 227.854 475.338 227.788 475.196 227.75C474.984 227.689 474.795 227.566 474.653 227.397C474.511 227.227 474.424 227.019 474.401 226.799C474.379 226.58 474.423 226.358 474.528 226.164C474.633 225.969 474.794 225.811 474.99 225.709C475.265 225.582 475.572 225.541 475.87 225.592L479.315 225.852L476.84 225.158C476.962 224.996 477.04 224.805 477.064 224.604C477.088 224.402 477.059 224.198 476.978 224.012C476.898 223.826 476.77 223.664 476.607 223.544C476.443 223.423 476.251 223.348 476.049 223.326C475.799 223.304 475.562 223.202 475.374 223.034C475.186 222.867 475.057 222.643 475.007 222.396C474.957 222.149 474.988 221.893 475.095 221.665C475.203 221.437 475.381 221.25 475.604 221.132C475.78 221.036 475.903 221.007 476.519 220.956C477.136 220.905 481.186 220.444 481.186 220.444L477.295 220.24C477.362 220.061 477.385 219.868 477.359 219.678C477.333 219.488 477.261 219.307 477.148 219.152C477.035 218.997 476.885 218.872 476.713 218.79C476.54 218.707 476.349 218.668 476.157 218.678C475.886 218.708 475.613 218.642 475.386 218.491C475.158 218.341 474.99 218.116 474.911 217.856C474.831 217.595 474.845 217.314 474.95 217.063C475.056 216.811 475.245 216.604 475.487 216.478C475.758 216.373 476.039 216.295 476.325 216.244C476.735 216.158 481.135 215.074 481.135 215.074L476.861 215.49C476.936 215.209 476.902 214.909 476.765 214.652C476.637 214.431 476.445 214.255 476.213 214.148C475.982 214.041 475.723 214.008 475.472 214.053C475.231 214.094 474.983 214.057 474.764 213.95C474.544 213.843 474.364 213.67 474.248 213.455C474.176 213.32 474.131 213.172 474.117 213.02C474.103 212.867 474.119 212.714 474.164 212.567C474.209 212.421 474.283 212.286 474.381 212.168C474.479 212.051 474.6 211.954 474.736 211.883C474.961 211.788 475.192 211.705 475.427 211.635L480.578 210.025L475.891 210.824C475.929 210.578 475.885 210.327 475.768 210.108C475.634 209.875 475.427 209.692 475.178 209.589C474.93 209.487 474.654 209.469 474.394 209.54C474.14 209.605 473.872 209.583 473.632 209.479C473.392 209.374 473.193 209.192 473.068 208.962C472.996 208.827 472.951 208.679 472.937 208.527C472.922 208.374 472.938 208.221 472.984 208.074C473.029 207.928 473.103 207.792 473.201 207.675C473.3 207.558 473.42 207.461 473.556 207.391C473.811 207.259 479.291 205.559 479.291 205.559L474.529 206.406C474.562 206.151 474.507 205.892 474.373 205.673C474.226 205.426 473.998 205.239 473.727 205.142C473.457 205.046 473.161 205.047 472.892 205.146C472.627 205.232 472.341 205.224 472.082 205.122C471.823 205.021 471.608 204.832 471.473 204.589C471.401 204.453 471.356 204.305 471.341 204.152C471.327 203.998 471.342 203.844 471.387 203.697C471.432 203.55 471.506 203.413 471.604 203.295C471.702 203.176 471.822 203.078 471.958 203.006C472.344 202.802 477.914 200.773 477.914 200.773L472.754 202.006C472.774 201.78 472.728 201.554 472.622 201.354C472.479 201.099 472.248 200.906 471.973 200.81C471.697 200.714 471.396 200.722 471.126 200.833C470.844 200.932 470.535 200.921 470.261 200.802C469.987 200.682 469.769 200.463 469.65 200.189C469.593 200.049 469.565 199.899 469.566 199.747C469.568 199.596 469.599 199.447 469.659 199.307C469.718 199.168 469.805 199.042 469.913 198.937C470.022 198.831 470.15 198.748 470.291 198.693C470.551 198.588 476.115 196.816 476.115 196.816L471.081 197.756C471.111 197.567 471.096 197.374 471.036 197.193C470.911 196.907 470.686 196.677 470.403 196.546C470.12 196.415 469.799 196.392 469.5 196.481C469.214 196.562 468.908 196.532 468.643 196.397C468.378 196.261 468.174 196.03 468.073 195.75C468.022 195.606 468.001 195.453 468.01 195.3C468.019 195.147 468.058 194.997 468.125 194.859C468.193 194.722 468.287 194.599 468.402 194.498C468.518 194.397 468.652 194.32 468.797 194.272C469.138 194.158 474.442 192.838 474.442 192.838L469.692 193.38C469.739 193.169 469.728 192.95 469.659 192.745C469.566 192.465 469.37 192.231 469.11 192.092C468.85 191.952 468.546 191.917 468.261 191.994C467.961 192.065 467.645 192.013 467.383 191.851C467.121 191.689 466.934 191.429 466.864 191.129C466.793 190.829 466.844 190.513 467.007 190.251C467.169 189.989 467.428 189.802 467.729 189.731L473.221 188.513L468.731 188.89C468.769 188.761 468.784 188.626 468.776 188.492C468.732 188.18 468.572 187.895 468.328 187.696C468.084 187.496 467.774 187.396 467.459 187.414C467.16 187.428 466.867 187.323 466.643 187.124C466.419 186.924 466.283 186.645 466.262 186.346C466.217 185.708 466.89 185.176 467.585 185.077C468.279 184.978 472.784 184.376 472.784 184.376H468.399C468.453 184.245 468.484 184.105 468.489 183.963C468.497 183.814 468.475 183.664 468.426 183.523C468.376 183.382 468.299 183.252 468.198 183.141C468.098 183.03 467.977 182.939 467.842 182.875C467.707 182.811 467.561 182.774 467.411 182.766C467.256 182.766 467.102 182.735 466.959 182.675C466.816 182.614 466.687 182.526 466.579 182.414C466.471 182.302 466.386 182.17 466.331 182.025C466.275 181.88 466.249 181.725 466.254 181.57C466.26 181.415 466.296 181.263 466.362 181.122C466.428 180.981 466.521 180.855 466.637 180.751C466.752 180.647 466.888 180.568 467.035 180.518C467.182 180.467 467.337 180.447 467.492 180.458L472.754 180.384L468.8 179.875C468.878 179.728 468.923 179.565 468.931 179.399C468.939 179.232 468.91 179.066 468.846 178.912C468.781 178.758 468.684 178.621 468.56 178.509C468.436 178.398 468.289 178.315 468.13 178.267C467.87 178.189 467.648 178.02 467.504 177.791C467.361 177.561 467.305 177.288 467.347 177.02C467.389 176.753 467.527 176.51 467.735 176.337C467.943 176.163 468.206 176.071 468.477 176.076C468.62 176.076 472.069 176.645 472.069 176.645L469.911 175.822C470.093 175.63 470.2 175.378 470.21 175.113C470.207 174.924 470.16 174.739 470.072 174.572C469.984 174.405 469.858 174.261 469.704 174.152C469.569 174.045 469.46 173.908 469.386 173.753C469.313 173.597 469.276 173.426 469.279 173.254C469.336 172.991 469.439 172.741 469.584 172.515V172.515Z" fill="#3C0C70"/>
<path d="M464.759 202.296C465.359 202.217 465.951 202.087 466.528 201.907C467.116 201.7 467.669 201.405 468.168 201.033C468.176 201.027 468.182 201.019 468.185 201.009C468.188 201 468.188 200.99 468.186 200.981C468.183 200.971 468.178 200.963 468.17 200.956C468.163 200.949 468.154 200.945 468.144 200.943C467.525 200.879 466.9 200.907 466.289 201.027C465.699 201.163 465.123 201.351 464.568 201.59C463.424 201.994 462.284 202.401 461.155 202.853C461.146 202.858 461.139 202.865 461.134 202.874C461.129 202.883 461.127 202.894 461.129 202.904C461.131 202.916 461.137 202.926 461.146 202.933C461.156 202.94 461.168 202.944 461.179 202.943C462.383 202.757 463.571 202.53 464.759 202.296Z" fill="#3C0C70"/>
<path d="M465.529 204.302C466.138 204.223 466.738 204.092 467.325 203.91C467.914 203.702 468.468 203.407 468.971 203.036C468.981 203.027 468.989 203.016 468.992 203.003C468.993 202.99 468.989 202.978 468.981 202.968C468.973 202.958 468.962 202.951 468.95 202.949C468.328 202.883 467.699 202.911 467.085 203.03C466.492 203.169 465.913 203.358 465.352 203.595C464.206 203.999 463.059 204.409 461.925 204.861C461.915 204.865 461.907 204.872 461.901 204.882C461.896 204.891 461.894 204.902 461.895 204.912C461.898 204.924 461.905 204.935 461.915 204.942C461.925 204.949 461.937 204.952 461.949 204.951C463.14 204.775 464.337 204.535 465.529 204.302Z" fill="#3C0C70"/>
<path d="M463.798 200.183C464.364 200.113 464.922 199.991 465.466 199.818C466.018 199.617 466.535 199.33 466.998 198.968C467.007 198.96 467.013 198.95 467.016 198.938C467.017 198.932 467.017 198.925 467.016 198.918C467.014 198.912 467.012 198.906 467.008 198.9C467.004 198.895 466.999 198.891 466.993 198.887C466.987 198.884 466.981 198.882 466.974 198.881C466.391 198.806 465.8 198.826 465.223 198.938C464.668 199.068 464.126 199.249 463.604 199.48C462.532 199.866 461.461 200.258 460.401 200.695C460.392 200.699 460.384 200.706 460.38 200.714C460.375 200.723 460.373 200.733 460.374 200.743C460.376 200.755 460.383 200.766 460.393 200.773C460.403 200.78 460.416 200.784 460.428 200.782C461.56 200.614 462.679 200.402 463.798 200.183Z" fill="#3C0C70"/>
<path d="M463.044 197.974C463.61 197.904 464.168 197.782 464.711 197.609C465.264 197.407 465.782 197.12 466.247 196.759C466.252 196.755 466.255 196.75 466.258 196.744C466.261 196.739 466.262 196.732 466.262 196.726C466.263 196.72 466.263 196.713 466.262 196.706C466.26 196.7 466.257 196.694 466.253 196.688C466.249 196.683 466.244 196.679 466.239 196.675C466.233 196.672 466.226 196.67 466.22 196.669C465.637 196.597 465.046 196.617 464.469 196.729C463.913 196.858 463.371 197.039 462.85 197.271C461.778 197.654 460.706 198.046 459.65 198.486C459.64 198.489 459.632 198.496 459.626 198.505C459.621 198.513 459.619 198.524 459.62 198.534C459.623 198.546 459.63 198.556 459.64 198.563C459.65 198.571 459.662 198.574 459.674 198.573C460.805 198.405 461.928 198.19 463.044 197.974Z" fill="#3C0C70"/>
<path d="M462.329 195.667C462.897 195.619 463.459 195.518 464.008 195.367C464.568 195.186 465.095 194.918 465.571 194.571C465.58 194.562 465.586 194.551 465.589 194.538C465.59 194.532 465.59 194.525 465.588 194.518C465.587 194.512 465.584 194.506 465.58 194.5C465.576 194.495 465.571 194.491 465.565 194.487C465.56 194.484 465.553 194.482 465.547 194.481C464.967 194.388 464.376 194.388 463.796 194.481C463.236 194.594 462.688 194.757 462.158 194.969C461.075 195.319 459.991 195.676 458.92 196.077C458.91 196.079 458.901 196.086 458.896 196.095C458.89 196.104 458.888 196.114 458.89 196.124C458.891 196.137 458.897 196.148 458.907 196.156C458.916 196.163 458.928 196.167 458.941 196.166C460.078 196.026 461.204 195.849 462.329 195.667Z" fill="#3C0C70"/>
<path d="M461.817 193.308C462.387 193.274 462.952 193.187 463.505 193.048C464.069 192.881 464.603 192.628 465.088 192.296C465.097 192.288 465.103 192.278 465.106 192.266C465.109 192.253 465.106 192.24 465.099 192.228C465.092 192.217 465.081 192.209 465.067 192.206C464.49 192.097 463.899 192.08 463.316 192.156C462.755 192.251 462.203 192.397 461.667 192.593C460.572 192.913 459.479 193.236 458.396 193.607C458.386 193.611 458.378 193.617 458.372 193.626C458.367 193.635 458.365 193.645 458.366 193.655C458.366 193.661 458.368 193.667 458.371 193.673C458.373 193.678 458.377 193.683 458.382 193.687C458.387 193.691 458.392 193.694 458.398 193.696C458.404 193.697 458.411 193.698 458.417 193.697C459.557 193.601 460.688 193.458 461.817 193.308Z" fill="#3C0C70"/>
<path d="M458.414 191.141C459.503 191.099 460.584 191.012 461.664 190.916C462.207 190.909 462.747 190.849 463.278 190.737C463.822 190.597 464.339 190.37 464.81 190.063C464.819 190.055 464.825 190.045 464.828 190.033C464.83 190.027 464.83 190.02 464.83 190.013C464.829 190.007 464.827 190 464.823 189.994C464.82 189.989 464.815 189.984 464.81 189.979C464.805 189.975 464.799 189.972 464.792 189.971C464.248 189.835 463.684 189.789 463.125 189.836C462.586 189.903 462.056 190.025 461.542 190.198C460.491 190.461 459.446 190.734 458.399 191.051C458.389 191.054 458.38 191.06 458.375 191.068C458.369 191.076 458.366 191.086 458.366 191.096C458.365 191.102 458.366 191.109 458.369 191.114C458.371 191.12 458.374 191.126 458.379 191.13C458.384 191.134 458.389 191.138 458.395 191.139C458.401 191.141 458.408 191.142 458.414 191.141V191.141Z" fill="#3C0C70"/>
<path d="M458.366 188.683C458.366 188.696 458.371 188.707 458.379 188.716C458.387 188.725 458.399 188.731 458.411 188.731C459.417 188.752 460.413 188.731 461.404 188.695C461.904 188.722 462.406 188.694 462.901 188.612C463.41 188.499 463.896 188.296 464.334 188.013C464.339 188.01 464.343 188.007 464.346 188.003C464.349 187.999 464.351 187.994 464.352 187.989C464.355 187.983 464.357 187.976 464.357 187.969C464.357 187.962 464.355 187.956 464.352 187.949C464.349 187.943 464.345 187.937 464.34 187.933C464.335 187.928 464.329 187.925 464.322 187.923C463.83 187.755 463.312 187.676 462.793 187.69C462.295 187.728 461.803 187.817 461.323 187.956C460.344 188.16 459.369 188.369 458.399 188.627C458.393 188.627 458.387 188.63 458.381 188.633C458.376 188.637 458.372 188.642 458.369 188.647C458.366 188.652 458.364 188.659 458.363 188.665C458.363 188.671 458.364 188.678 458.366 188.683Z" fill="#3C0C70"/>
<path d="M458.617 186.271C458.617 186.277 458.618 186.284 458.62 186.29C458.622 186.296 458.625 186.301 458.629 186.306C458.633 186.31 458.638 186.314 458.644 186.317C458.65 186.32 458.656 186.321 458.662 186.322C459.608 186.385 460.554 186.403 461.5 186.415C461.97 186.459 462.444 186.451 462.912 186.391C463.399 186.304 463.865 186.127 464.286 185.87C464.294 185.863 464.3 185.855 464.304 185.846C464.307 185.84 464.309 185.833 464.309 185.826C464.309 185.819 464.308 185.812 464.306 185.806C464.303 185.799 464.299 185.793 464.294 185.788C464.29 185.784 464.284 185.78 464.277 185.777C463.82 185.589 463.332 185.487 462.838 185.478C462.365 185.495 461.897 185.564 461.44 185.684C460.509 185.843 459.581 186.014 458.653 186.226C458.643 186.229 458.635 186.235 458.628 186.243C458.622 186.251 458.618 186.261 458.617 186.271Z" fill="#3C0C70"/>
<path d="M459.069 183.909C459.068 183.915 459.069 183.922 459.071 183.928C459.072 183.934 459.075 183.939 459.079 183.944C459.083 183.949 459.088 183.953 459.093 183.955C459.099 183.958 459.105 183.96 459.111 183.96C459.979 184.068 460.844 184.128 461.709 184.179C462.138 184.246 462.573 184.26 463.005 184.221C463.458 184.153 463.892 183.997 464.283 183.76C464.283 183.76 464.298 183.76 464.301 183.742C464.308 183.729 464.309 183.715 464.305 183.702C464.301 183.688 464.292 183.677 464.28 183.67C463.872 183.464 463.426 183.341 462.969 183.308C462.536 183.304 462.104 183.352 461.682 183.451C460.823 183.571 459.964 183.697 459.108 183.87C459.098 183.872 459.089 183.876 459.082 183.883C459.075 183.89 459.071 183.899 459.069 183.909V183.909Z" fill="#3C0C70"/>
<path d="M460.078 181.545C460.075 181.557 460.077 181.569 460.083 181.58C460.089 181.59 460.099 181.598 460.111 181.602C460.844 181.79 461.583 181.934 462.323 182.072C462.684 182.178 463.057 182.233 463.433 182.236C463.836 182.213 464.228 182.098 464.58 181.901C464.585 181.902 464.59 181.902 464.595 181.901C464.6 181.896 464.604 181.89 464.607 181.883C464.61 181.876 464.611 181.869 464.611 181.862C464.611 181.855 464.61 181.848 464.607 181.841C464.604 181.834 464.6 181.828 464.595 181.823C464.272 181.582 463.9 181.416 463.505 181.338C463.133 181.284 462.755 181.284 462.383 181.338C461.631 181.374 460.886 181.419 460.126 181.506C460.114 181.505 460.103 181.509 460.094 181.516C460.085 181.523 460.079 181.533 460.078 181.545V181.545Z" fill="#3C0C70"/>
<path d="M461.335 179.686C461.332 179.698 461.334 179.71 461.341 179.72C461.347 179.73 461.357 179.737 461.368 179.74C461.967 179.886 462.573 180.01 463.188 180.114C463.484 180.202 463.792 180.243 464.101 180.237C464.435 180.201 464.755 180.082 465.032 179.89V179.89C465.041 179.88 465.047 179.866 465.047 179.852C465.047 179.838 465.041 179.825 465.032 179.815C464.772 179.603 464.463 179.459 464.134 179.396C463.826 179.36 463.515 179.375 463.212 179.441C462.597 179.493 461.983 179.566 461.368 179.662C461.355 179.666 461.343 179.674 461.335 179.686V179.686Z" fill="#3C0C70"/>
<path d="M462.978 177.8C462.971 177.803 462.964 177.809 462.959 177.816C462.955 177.823 462.952 177.831 462.952 177.839C462.952 177.848 462.955 177.856 462.959 177.863C462.964 177.87 462.971 177.875 462.978 177.878C463.424 178.004 463.876 178.109 464.322 178.178C464.539 178.255 464.769 178.29 464.999 178.279C465.254 178.245 465.494 178.14 465.693 177.977V177.977C465.703 177.967 465.708 177.955 465.708 177.941C465.708 177.928 465.703 177.915 465.693 177.905C465.509 177.721 465.277 177.593 465.023 177.537C464.795 177.51 464.565 177.528 464.343 177.588C463.888 177.638 463.433 177.709 462.978 177.8Z" fill="#3C0C70"/>
<path d="M465.903 176.588C466.075 176.549 466.233 176.459 466.354 176.331C466.363 176.322 466.367 176.311 466.367 176.299C466.367 176.288 466.363 176.276 466.354 176.268C466.244 176.126 466.092 176.022 465.92 175.969C465.77 175.948 465.618 175.963 465.475 176.014C465.172 176.058 464.873 176.118 464.577 176.193C464.569 176.193 464.561 176.196 464.555 176.202C464.55 176.207 464.547 176.215 464.547 176.223C464.547 176.231 464.55 176.239 464.555 176.244C464.561 176.25 464.569 176.253 464.577 176.253C464.864 176.351 465.157 176.434 465.454 176.501C465.594 176.566 465.748 176.596 465.903 176.588V176.588Z" fill="#3C0C70"/>
<path d="M466.292 206.451C466.888 206.379 467.477 206.255 468.052 206.08C468.635 205.877 469.185 205.589 469.683 205.224C469.693 205.215 469.699 205.204 469.701 205.191C469.702 205.178 469.698 205.165 469.691 205.154C469.683 205.144 469.672 205.137 469.659 205.134C469.046 205.063 468.425 205.084 467.818 205.197C467.233 205.329 466.66 205.512 466.106 205.744C464.969 206.134 463.837 206.529 462.715 206.972C462.703 206.975 462.694 206.982 462.688 206.993C462.682 207.003 462.68 207.016 462.684 207.027C462.687 207.039 462.694 207.048 462.705 207.054C462.715 207.06 462.727 207.062 462.739 207.058C463.93 206.888 465.109 206.672 466.292 206.451Z" fill="#3C0C70"/>
<path d="M466.968 208.495C467.559 208.431 468.143 208.312 468.713 208.142C469.294 207.945 469.842 207.663 470.339 207.304C470.348 207.296 470.355 207.284 470.356 207.271C470.357 207.265 470.357 207.258 470.355 207.252C470.354 207.246 470.351 207.24 470.347 207.235C470.343 207.23 470.338 207.226 470.333 207.223C470.327 207.22 470.321 207.218 470.315 207.217C469.707 207.138 469.092 207.152 468.489 207.259C467.907 207.385 467.337 207.562 466.786 207.789C465.657 208.166 464.532 208.549 463.415 208.986C463.406 208.99 463.399 208.997 463.394 209.005C463.389 209.014 463.387 209.024 463.388 209.034C463.389 209.04 463.39 209.046 463.393 209.051C463.396 209.057 463.4 209.061 463.405 209.065C463.41 209.069 463.415 209.071 463.421 209.073C463.427 209.074 463.433 209.074 463.439 209.073C464.625 208.908 465.798 208.705 466.968 208.495Z" fill="#3C0C70"/>
<path d="M467.788 210.695C468.365 210.626 468.935 210.506 469.491 210.336C470.056 210.137 470.587 209.852 471.066 209.492C471.076 209.484 471.082 209.472 471.084 209.459C471.085 209.453 471.084 209.446 471.083 209.44C471.081 209.434 471.078 209.428 471.074 209.423C471.07 209.418 471.065 209.414 471.06 209.411C471.054 209.408 471.048 209.406 471.042 209.405C470.444 209.326 469.838 209.342 469.246 209.453C468.679 209.579 468.124 209.759 467.591 209.989C466.492 210.369 465.397 210.755 464.298 211.186C464.289 211.19 464.281 211.198 464.276 211.207C464.271 211.216 464.27 211.227 464.271 211.237C464.274 211.248 464.28 211.259 464.289 211.266C464.299 211.273 464.31 211.277 464.322 211.276C465.499 211.114 466.642 210.908 467.788 210.695Z" fill="#3C0C70"/>
<path d="M468.33 212.775C468.893 212.729 469.45 212.628 469.994 212.476C470.548 212.3 471.071 212.036 471.542 211.695C471.547 211.692 471.551 211.687 471.554 211.682C471.557 211.677 471.559 211.671 471.56 211.665C471.562 211.652 471.56 211.638 471.553 211.627C471.545 211.616 471.534 211.608 471.521 211.605C470.947 211.507 470.361 211.502 469.785 211.59C469.232 211.696 468.69 211.854 468.166 212.06C467.091 212.401 466.016 212.745 464.954 213.137C464.944 213.141 464.936 213.148 464.931 213.157C464.926 213.165 464.923 213.175 464.924 213.185C464.925 213.198 464.932 213.209 464.941 213.216C464.951 213.224 464.963 213.228 464.975 213.227C466.1 213.111 467.217 212.946 468.33 212.775Z" fill="#3C0C70"/>
<path d="M468.884 214.924C469.446 214.878 470.002 214.778 470.545 214.625C471.097 214.44 471.616 214.169 472.083 213.823C472.092 213.815 472.098 213.804 472.101 213.793C472.103 213.78 472.099 213.766 472.091 213.755C472.084 213.744 472.072 213.737 472.06 213.733C471.485 213.642 470.901 213.642 470.327 213.733C469.773 213.846 469.232 214.011 468.71 214.227C467.639 214.58 466.57 214.939 465.514 215.343C465.504 215.348 465.496 215.355 465.49 215.364C465.485 215.373 465.483 215.384 465.484 215.394C465.486 215.406 465.492 215.416 465.502 215.424C465.511 215.431 465.523 215.434 465.534 215.433C466.66 215.29 467.788 215.113 468.884 214.924Z" fill="#3C0C70"/>
<path d="M469.506 217.064C470.067 217.016 470.622 216.916 471.165 216.765C471.718 216.585 472.239 216.316 472.706 215.969C472.711 215.965 472.715 215.961 472.718 215.956C472.721 215.951 472.723 215.945 472.724 215.939C472.727 215.926 472.724 215.912 472.717 215.901C472.71 215.89 472.698 215.882 472.685 215.879C472.111 215.786 471.526 215.786 470.952 215.879C470.398 215.989 469.856 216.151 469.333 216.364C468.261 216.711 467.19 217.067 466.13 217.466C466.121 217.47 466.114 217.477 466.109 217.485C466.104 217.494 466.102 217.504 466.103 217.513C466.104 217.52 466.105 217.526 466.108 217.531C466.111 217.537 466.115 217.542 466.12 217.546C466.124 217.549 466.13 217.552 466.136 217.554C466.142 217.556 466.148 217.556 466.154 217.555C467.277 217.418 468.387 217.244 469.506 217.064Z" fill="#3C0C70"/>
<path d="M469.848 219.297C470.411 219.272 470.972 219.192 471.521 219.061C472.081 218.903 472.612 218.658 473.095 218.334C473.104 218.326 473.111 218.316 473.113 218.304C473.115 218.297 473.115 218.291 473.114 218.284C473.114 218.278 473.111 218.272 473.108 218.266C473.105 218.26 473.1 218.256 473.095 218.252C473.09 218.248 473.084 218.245 473.077 218.244C472.507 218.126 471.922 218.1 471.344 218.166C470.787 218.254 470.239 218.393 469.707 218.582C468.62 218.881 467.537 219.181 466.459 219.546C466.45 219.55 466.442 219.556 466.436 219.565C466.431 219.574 466.429 219.584 466.429 219.594C466.43 219.6 466.431 219.605 466.434 219.611C466.436 219.616 466.44 219.621 466.445 219.625C466.449 219.629 466.454 219.632 466.46 219.633C466.465 219.635 466.471 219.636 466.477 219.636C467.609 219.558 468.728 219.441 469.848 219.297Z" fill="#3C0C70"/>
<path d="M469.952 221.536C470.516 221.533 471.078 221.478 471.632 221.372C472.198 221.237 472.739 221.014 473.236 220.71C473.246 220.703 473.254 220.692 473.257 220.68C473.26 220.668 473.258 220.655 473.252 220.644C473.246 220.633 473.236 220.624 473.224 220.62C472.659 220.477 472.075 220.427 471.494 220.471C470.933 220.532 470.38 220.647 469.842 220.815C468.743 221.069 467.645 221.333 466.549 221.641C466.537 221.643 466.527 221.65 466.52 221.659C466.513 221.669 466.51 221.681 466.512 221.693C466.514 221.705 466.52 221.716 466.53 221.723C466.54 221.73 466.552 221.733 466.564 221.731C467.702 221.701 468.827 221.623 469.952 221.536Z" fill="#3C0C70"/>
<path d="M471.605 222.799C471.072 222.825 470.544 222.903 470.027 223.033C468.98 223.215 467.932 223.404 466.887 223.632C466.878 223.635 466.87 223.641 466.863 223.649C466.857 223.657 466.853 223.666 466.852 223.676C466.852 223.688 466.857 223.7 466.865 223.709C466.873 223.717 466.885 223.723 466.896 223.724C467.965 223.766 469.031 223.763 470.093 223.751C470.624 223.787 471.158 223.769 471.686 223.697C472.229 223.602 472.752 223.415 473.233 223.144C473.242 223.138 473.249 223.13 473.254 223.12C473.257 223.113 473.258 223.107 473.258 223.1C473.258 223.093 473.257 223.086 473.254 223.08C473.251 223.074 473.247 223.068 473.242 223.064C473.237 223.059 473.231 223.056 473.224 223.054C472.703 222.878 472.155 222.792 471.605 222.799V222.799Z" fill="#3C0C70"/>
<path d="M469.884 225.855C470.379 225.925 470.881 225.941 471.38 225.903C471.896 225.84 472.396 225.687 472.859 225.451C472.867 225.445 472.873 225.437 472.877 225.427C472.88 225.421 472.882 225.415 472.882 225.408C472.882 225.401 472.881 225.394 472.879 225.388C472.877 225.381 472.874 225.376 472.869 225.371C472.864 225.365 472.859 225.361 472.853 225.359C472.38 225.149 471.873 225.025 471.356 224.993C470.854 224.983 470.352 225.027 469.86 225.125C468.869 225.242 467.875 225.365 466.887 225.532C466.877 225.534 466.868 225.539 466.861 225.547C466.854 225.554 466.85 225.564 466.849 225.574C466.848 225.586 466.852 225.598 466.859 225.608C466.867 225.617 466.878 225.623 466.89 225.625C467.875 225.727 468.872 225.799 469.884 225.855Z" fill="#3C0C70"/>
<path d="M469.803 228.121C470.237 228.228 470.682 228.283 471.129 228.286C471.597 228.26 472.057 228.145 472.482 227.945C472.49 227.94 472.497 227.934 472.503 227.927C472.506 227.921 472.509 227.914 472.51 227.907C472.511 227.901 472.511 227.894 472.509 227.887C472.507 227.88 472.504 227.874 472.5 227.868C472.496 227.863 472.491 227.858 472.485 227.855C472.084 227.611 471.64 227.447 471.177 227.373C470.732 227.327 470.284 227.334 469.842 227.394C468.944 227.433 468.046 227.478 467.148 227.57C467.138 227.572 467.129 227.576 467.122 227.582C467.115 227.589 467.111 227.597 467.109 227.606C467.107 227.612 467.107 227.618 467.107 227.624C467.108 227.63 467.11 227.636 467.113 227.641C467.116 227.646 467.12 227.65 467.125 227.654C467.13 227.657 467.136 227.659 467.142 227.66C468.037 227.837 468.92 227.978 469.803 228.121Z" fill="#3C0C70"/>
<path d="M469.671 229.995C469.996 230.119 470.335 230.201 470.68 230.24C471.047 230.257 471.413 230.199 471.757 230.07H471.775C471.783 230.061 471.788 230.05 471.788 230.038C471.788 230.027 471.783 230.015 471.775 230.007C471.493 229.773 471.164 229.601 470.811 229.501C470.472 229.427 470.124 229.395 469.776 229.408C469.083 229.364 468.385 229.34 467.681 229.336C467.672 229.336 467.664 229.338 467.657 229.343C467.65 229.348 467.644 229.355 467.642 229.363C467.639 229.373 467.641 229.383 467.645 229.392C467.649 229.4 467.657 229.407 467.666 229.411C468.336 229.618 469.004 229.818 469.671 229.995Z" fill="#3C0C70"/>
<path d="M469.462 231.737C469.672 231.857 469.899 231.945 470.135 231.997C470.392 232.035 470.654 232.013 470.901 231.935C470.905 231.931 470.907 231.927 470.909 231.923C470.911 231.919 470.912 231.914 470.912 231.909C470.912 231.904 470.911 231.9 470.909 231.895C470.907 231.891 470.905 231.887 470.901 231.884C470.734 231.685 470.524 231.526 470.288 231.42C470.06 231.337 469.821 231.289 469.578 231.276C469.102 231.195 468.623 231.129 468.139 231.078C468.132 231.078 468.126 231.08 468.121 231.083C468.116 231.086 468.111 231.091 468.109 231.096C468.103 231.102 468.1 231.11 468.1 231.117C468.1 231.125 468.103 231.133 468.109 231.138C468.566 231.354 469.017 231.553 469.462 231.737Z" fill="#3C0C70"/>
<path d="M469.671 171.515L468.806 150.051C469.464 150.024 470.12 150 470.781 150L470.829 171.697V172.149L470.455 171.922C470.216 172.063 469.764 172.338 469.704 172.374L469.671 171.515Z" fill="#3C0C70"/>
<path d="M455.756 238.232C456.468 238.232 457.27 238.196 457.495 238.187L460.647 227.166C460.321 226.873 459.993 226.574 459.662 226.268L449.054 249.145C449.653 249.423 450.251 249.699 450.85 249.953L455.756 238.232Z" fill="#3C0C70"/>
<path d="M467.289 173.864L468.312 173.212L466.25 150.219C465.591 150.278 464.939 150.356 464.286 150.44L467.289 173.864Z" fill="#3C0C70"/>
<path d="M463.047 176.822C463.347 176.609 463.619 176.394 463.912 176.181L457.327 151.823C456.693 151.996 456.055 152.17 455.43 152.368L463.047 176.822Z" fill="#3C0C70"/>
<path d="M461.17 178.306C461.434 178.091 461.697 177.875 461.97 177.66L453.005 153.194C452.386 153.424 451.775 153.67 451.164 153.918L461.17 178.306Z" fill="#3C0C70"/>
<path d="M459.428 179.806C459.671 179.587 459.922 179.369 460.171 179.15L448.824 154.954C448.225 155.235 447.626 155.534 447.055 155.837L459.428 179.806Z" fill="#3C0C70"/>
<path d="M457.818 181.335C458.043 181.111 458.27 180.886 458.504 180.662L444.816 157.073C444.244 157.405 443.685 157.749 443.128 158.103L457.818 181.335Z" fill="#3C0C70"/>
<path d="M456.331 182.901C456.537 182.673 456.747 182.443 456.962 182.215L441.003 159.53C440.467 159.91 439.934 160.296 439.413 160.697L456.331 182.901Z" fill="#3C0C70"/>
<path d="M465.095 175.346C465.394 175.133 465.717 174.918 466.034 174.705L461.754 150.829C461.105 150.946 460.458 151.072 459.818 151.212L465.095 175.346Z" fill="#3C0C70"/>
<path d="M449.009 197.091C449.063 196.813 449.12 196.534 449.183 196.256L420.718 188.695C420.553 189.33 420.419 189.971 420.26 190.614L449.009 197.091Z" fill="#3C0C70"/>
<path d="M448.488 201.063C448.512 200.764 448.536 200.432 448.569 200.12L419.194 197.615C419.117 198.515 419.065 199.424 419.039 200.342L448.488 201.063Z" fill="#3C0C70"/>
<path d="M448.414 203.054C448.414 202.727 448.414 202.401 448.435 202.072L419 202.138C419 203.131 419.039 204.116 419.096 205.095L448.414 203.054Z" fill="#3C0C70"/>
<path d="M448.477 205.014C448.456 204.691 448.438 204.368 448.429 204.038L419.216 206.66C419.299 207.618 419.407 208.573 419.545 209.519L448.477 205.014Z" fill="#3C0C70"/>
<path d="M448.704 207.064C448.653 206.714 448.605 206.364 448.566 206.011L419.814 211.147C420.021 212.296 420.254 213.434 420.533 214.556L448.704 207.064Z" fill="#3C0C70"/>
<path d="M449.084 209.076C449 208.714 448.926 208.349 448.857 207.98L420.796 215.565C421.135 216.816 421.518 218.048 421.945 219.262L449.084 209.076Z" fill="#3C0C70"/>
<path d="M423.49 221.467C423.918 222.126 424.346 222.775 424.516 223.051L449.599 211.021C449.491 210.662 449.387 210.303 449.3 209.938L422.439 219.782L422.14 219.884C422.367 220.504 422.616 221.111 422.864 221.719L423.49 221.467Z" fill="#3C0C70"/>
<path d="M426.124 225.128C426.627 225.727 427.127 226.304 427.321 226.553L450.27 212.931C450.132 212.581 450 212.228 449.877 211.871L424.861 223.604L423.9 224.056C424.178 224.655 424.475 225.239 424.777 225.822L426.124 225.128Z" fill="#3C0C70"/>
<path d="M429.177 228.421C429.703 228.905 430.218 229.375 430.443 229.585L451.096 214.823C450.937 214.484 450.796 214.14 450.638 213.796L427.743 227.065L426.013 228.07C426.345 228.639 426.683 229.202 427.037 229.755L429.177 228.421Z" fill="#3C0C70"/>
<path d="M432.547 231.243C433.161 231.68 433.768 232.111 434.02 232.294L452.041 216.678C451.859 216.346 451.676 216.011 451.503 215.667L430.988 230.1L428.455 231.881C428.835 232.419 429.219 232.952 429.617 233.476L432.547 231.243Z" fill="#3C0C70"/>
<path d="M436.193 233.605C436.845 233.958 437.486 234.305 437.752 234.455L453.122 218.498C452.915 218.175 452.715 217.846 452.523 217.51L434.534 232.674L431.215 235.469C431.64 235.972 432.065 236.475 432.508 236.966L436.193 233.605Z" fill="#3C0C70"/>
<path d="M440.03 235.478C440.706 235.745 441.368 236.005 441.646 236.119L454.349 220.282C454.122 219.968 453.894 219.648 453.676 219.321L438.303 234.763L434.265 238.81C434.729 239.274 435.211 239.723 435.693 240.172L440.03 235.478Z" fill="#3C0C70"/>
<path d="M443.981 236.852C444.666 237.035 445.337 237.211 445.621 237.292L455.705 222.027C455.454 221.728 455.205 221.411 454.963 221.096L442.218 236.361L437.62 241.86C438.123 242.282 438.638 242.692 439.159 243.096L443.981 236.852Z" fill="#3C0C70"/>
<path d="M447.971 237.744L449.602 237.987L457.196 223.757C456.923 223.458 456.654 223.159 456.388 222.859L446.211 237.469L441.218 244.613C441.757 244.991 442.303 245.357 442.856 245.712L447.971 237.744Z" fill="#3C0C70"/>
<path d="M451.925 238.169L453.526 238.229L458.833 225.457C458.534 225.158 458.234 224.859 457.953 224.559L450.189 238.076L445.041 247.044C445.609 247.373 446.184 247.692 446.765 248.002L451.925 238.169Z" fill="#3C0C70"/>
<path d="M459.491 237.78C460.105 237.675 460.706 237.568 460.964 237.529L462.589 228.816C462.242 228.534 461.89 228.241 461.533 227.936L457.881 238.035L453.239 250.869C453.855 251.094 454.481 251.3 455.106 251.501L459.491 237.78Z" fill="#3C0C70"/>
<path d="M462.999 237.047C463.577 236.885 464.143 236.726 464.385 236.664L464.753 230.489C464.367 230.207 463.972 229.908 463.556 229.591L457.546 252.228C458.18 252.396 458.821 252.548 459.465 252.695L462.999 237.047Z" fill="#3C0C70"/>
<path d="M466.292 236.011C466.831 235.805 467.357 235.601 467.579 235.52L467.211 232.183C466.774 231.899 466.313 231.584 465.801 231.237L464.879 236.535L461.979 253.201C462.625 253.315 463.276 253.414 463.93 253.5L466.292 236.011Z" fill="#3C0C70"/>
<path d="M469.36 234.724L470.536 234.143C470.497 234.122 469.638 233.683 468.276 232.847L468.064 235.35L466.492 253.787C467.145 253.844 467.8 253.898 468.459 253.931L469.36 234.724Z" fill="#3C0C70"/>
<path d="M474.694 231.644C474.313 231.899 473.954 232.135 473.613 232.351L475.544 253.784C476.202 253.728 476.855 253.656 477.507 253.575L474.694 231.644Z" fill="#3C0C70"/>
<path d="M477.001 229.998C476.669 230.249 476.34 230.489 476.022 230.716L480.039 253.195C480.689 253.081 481.338 252.961 481.979 252.824L477.001 229.998Z" fill="#3C0C70"/>
<path d="M482.754 224.984C482.509 225.233 482.263 225.481 482.015 225.721L492.991 249.118C493.589 248.84 494.188 248.543 494.763 248.244L482.754 224.984Z" fill="#3C0C70"/>
<path d="M484.34 223.284C484.119 223.536 483.894 223.784 483.667 224.027L497.007 247.014C497.578 246.685 498.142 246.345 498.699 245.993L484.34 223.284Z" fill="#3C0C70"/>
<path d="M485.789 221.566C485.586 221.821 485.382 222.072 485.19 222.317L500.833 244.583C501.371 244.206 501.907 243.82 502.431 243.422L485.789 221.566Z" fill="#3C0C70"/>
<path d="M487.1 219.827C486.918 220.085 486.735 220.339 486.546 220.588L504.433 241.809C504.939 241.384 505.439 240.956 505.93 240.513L487.1 219.827Z" fill="#3C0C70"/>
<path d="M509.148 237.313L488.283 218.064C488.121 218.322 487.953 218.579 487.786 218.833L507.786 238.744C508.25 238.28 508.702 237.798 509.148 237.313Z" fill="#3C0C70"/>
<path d="M489.339 216.271C489.192 216.535 489.04 216.795 488.896 217.053L510.848 235.392C511.273 234.886 511.683 234.371 512.087 233.85L489.339 216.271Z" fill="#3C0C70"/>
<path d="M490.261 214.452C490.135 214.718 490.006 214.984 489.875 215.248L513.604 231.785C513.985 231.246 514.35 230.698 514.709 230.145L490.261 214.452Z" fill="#3C0C70"/>
<path d="M493.03 203.066C493.03 203.182 493.03 203.299 493.03 203.416C493.03 203.616 493.006 203.811 492.994 204.014L522.722 207.433C522.823 206.457 522.895 205.472 522.943 204.478L493.03 203.066Z" fill="#3C0C70"/>
<path d="M493.042 202.081L522.973 202.979C522.973 202.644 523 202.311 523 201.973C523 201.282 522.973 200.593 522.946 199.908L493.015 201.105C493.033 201.452 493.042 201.782 493.042 202.081Z" fill="#3C0C70"/>
<path d="M492.862 199.207C492.9 199.531 492.933 199.854 492.961 200.177L522.862 198.618C522.794 197.534 522.689 196.463 522.563 195.4L492.862 199.207Z" fill="#3C0C70"/>
<path d="M492.56 197.292C492.622 197.615 492.682 197.938 492.733 198.259L522.41 194.176C522.246 193.074 522.036 191.991 521.812 190.913L492.56 197.292Z" fill="#3C0C70"/>
<path d="M520.656 186.516L492.108 195.409C492.2 195.744 492.29 196.08 492.368 196.415L521.665 190.279C521.548 189.776 521.435 189.273 521.306 188.782L521.153 188.444H521.204C521.024 187.786 520.851 187.148 520.656 186.516Z" fill="#3C0C70"/>
<path d="M519.106 182.248L517.995 182.703L491.506 193.568C491.626 193.898 491.74 194.224 491.844 194.55L519.98 186.061C519.809 185.78 519.414 185.086 519.013 184.391L519.839 184.092C519.603 183.469 519.354 182.856 519.106 182.248Z" fill="#3C0C70"/>
<path d="M515.218 179.144L490.761 191.769C490.904 192.069 491.042 192.401 491.171 192.718L517.588 182.191C517.385 181.937 516.906 181.293 516.424 180.671L518.07 179.899C517.789 179.3 517.493 178.701 517.19 178.127L515.218 179.144Z" fill="#3C0C70"/>
<path d="M512.051 176.002L489.902 190.018C490.066 190.318 490.225 190.617 490.375 190.931L514.769 178.692C514.541 178.468 513.99 177.905 513.434 177.345L515.969 175.876C515.636 175.305 515.293 174.741 514.939 174.185L512.051 176.002Z" fill="#3C0C70"/>
<path d="M508.576 173.317L488.89 188.312C489.073 188.612 489.249 188.911 489.42 189.189L511.545 175.615C511.294 175.424 510.689 174.942 510.076 174.46L513.5 172.066C513.117 171.527 512.731 170.991 512.329 170.467L508.576 173.317Z" fill="#3C0C70"/>
<path d="M481.838 167.737L478.716 177.519C479.016 177.744 479.279 177.965 479.554 178.19L484.915 167.336C484.649 167.375 484.017 167.414 483.386 167.48L488.597 153.056C487.98 152.835 487.356 152.623 486.723 152.422L481.838 167.737Z" fill="#3C0C70"/>
<path d="M478.444 168.534L476.768 176.04C477.067 176.259 477.366 176.474 477.666 176.693L481.374 167.857C481.12 167.917 480.524 168.022 479.92 168.156L484.251 151.709C483.616 151.541 482.973 151.41 482.329 151.248L478.444 168.534Z" fill="#3C0C70"/>
<path d="M475.271 169.599L474.607 174.544C474.93 174.759 475.244 174.978 475.556 175.193L477.989 168.692C477.752 168.776 477.199 168.923 476.63 169.096L479.821 150.754C479.174 150.644 478.522 150.548 477.866 150.455L475.271 169.599Z" fill="#3C0C70"/>
<path d="M472.365 170.889L472.278 173.017C472.625 173.233 472.967 173.451 473.302 173.67L474.876 169.779C474.505 169.943 473.661 170.273 473.616 170.294L475.319 150.189C474.673 150.135 474.008 150.084 473.347 150.054L472.365 170.889Z" fill="#3C0C70"/>
<path d="M448.695 199.022C448.731 198.74 448.77 198.459 448.815 198.178L419.781 193.122C419.67 193.769 419.57 194.419 419.482 195.074L448.695 199.022Z" fill="#3C0C70"/>
<path d="M472.988 253.943L472.17 233.21L470.973 233.88L471.015 254.006C471.68 253.994 472.332 253.97 472.988 253.943Z" fill="#3C0C70"/>
<path d="M492.994 205.008C492.967 205.322 492.928 205.634 492.889 205.945L522.057 211.818C522.237 210.887 522.386 209.944 522.515 208.998L492.994 205.008Z" fill="#3C0C70"/>
<path d="M492.736 206.942C492.688 207.223 492.644 207.504 492.587 207.783L521.246 215.394C521.414 214.757 521.566 214.113 521.71 213.47L492.736 206.942Z" fill="#3C0C70"/>
<path d="M492.332 208.86C492.263 209.139 492.195 209.417 492.117 209.695L519.89 219.74C520.115 219.121 520.324 218.495 520.525 217.864L492.332 208.86Z" fill="#3C0C70"/>
<path d="M491.796 210.761C491.707 211.036 491.611 211.309 491.497 211.578L518.136 223.925C518.414 223.326 518.69 222.728 518.947 222.129L491.796 210.761Z" fill="#3C0C70"/>
<path d="M491.117 212.635C491.009 212.907 490.893 213.173 490.779 213.44L516.047 227.957C516.376 227.385 516.696 226.81 517.005 226.224L491.117 212.635Z" fill="#3C0C70"/>
<path d="M478.219 229.109L484.469 252.222C485.107 252.051 485.741 251.878 486.37 251.683L479.114 228.391C478.812 228.639 478.516 228.879 478.219 229.109Z" fill="#3C0C70"/>
<path d="M481.356 179.632L488.659 167.175L487.04 167.214L492.799 154.789C492.2 154.514 491.602 154.241 490.988 153.987L485.448 167.264L480.563 178.938C480.829 179.171 481.087 179.399 481.356 179.632Z" fill="#3C0C70"/>
<path d="M483.015 181.129L492.593 167.417L490.866 167.276L496.822 156.884C496.25 156.555 495.676 156.235 495.089 155.929L489.204 167.151L482.248 180.401C482.515 180.638 482.754 180.877 483.015 181.129Z" fill="#3C0C70"/>
<path d="M500.671 159.303C500.129 158.926 499.579 158.56 499.025 158.204L493.095 167.441L483.817 181.889C484.065 182.14 484.305 182.389 484.541 182.64L496.538 168.091C496.238 168.04 495.511 167.89 494.781 167.749L500.671 159.303Z" fill="#3C0C70"/>
<path d="M504.287 162.053C503.781 161.631 503.26 161.224 502.739 160.82L497.052 168.186L485.28 183.421C485.511 183.679 485.741 183.939 485.96 184.197L500.432 169.231C500.132 169.147 499.444 168.932 498.74 168.695L504.287 162.053Z" fill="#3C0C70"/>
<path d="M507.645 165.112C507.178 164.645 506.699 164.193 506.215 163.745L500.995 169.402L486.606 184.999C486.822 185.268 487.034 185.541 487.238 185.81L504.299 170.871L502.647 170.126L507.645 165.112Z" fill="#3C0C70"/>
<path d="M510.722 168.456C510.297 167.953 509.866 167.45 509.423 166.959L504.865 171.111L487.843 186.615C488.043 186.915 488.232 187.187 488.417 187.471L508.052 173.002C507.786 172.847 507.133 172.446 506.478 172.051L510.722 168.456Z" fill="#3C0C70"/>
<path d="M480.219 227.451L488.797 250.869C489.42 250.642 490.031 250.396 490.638 250.148L481.03 226.726C480.761 226.972 480.488 227.223 480.219 227.451Z" fill="#3C0C70"/>
<path d="M449.626 194.332L422.065 184.37C421.843 184.99 421.631 185.613 421.433 186.241L449.392 195.161C449.464 194.897 449.545 194.598 449.626 194.332Z" fill="#3C0C70"/>
<path d="M450.261 192.455L423.789 180.183C423.514 180.781 423.241 181.38 422.99 181.979L449.964 193.263C450.06 192.997 450.156 192.727 450.261 192.455Z" fill="#3C0C70"/>
<path d="M451.027 190.611L425.884 176.16C425.558 176.732 425.238 177.307 424.932 177.89L450.673 191.407C450.79 191.144 450.907 190.877 451.027 190.611Z" fill="#3C0C70"/>
<path d="M451.943 188.812L428.297 172.332C427.92 172.871 427.557 173.421 427.201 173.975L451.529 189.59C451.661 189.33 451.799 189.07 451.943 188.812Z" fill="#3C0C70"/>
<path d="M453.002 187.073L431.039 168.725C430.617 169.231 430.209 169.749 429.808 170.27L452.523 187.822C452.676 187.573 452.838 187.322 453.002 187.073Z" fill="#3C0C70"/>
<path d="M453.969 185.69L454.196 185.391L434.086 165.373C433.622 165.84 433.17 166.319 432.724 166.801L453.661 186.118C453.765 185.975 453.861 185.831 453.969 185.69Z" fill="#3C0C70"/>
<path d="M455.517 183.772L437.42 162.302C436.917 162.727 436.417 163.158 435.923 163.601L454.918 184.472C455.118 184.239 455.313 184.005 455.517 183.772Z" fill="#3C0C70"/>
<path d="M470.618 129.499C489.04 129.499 503.975 114.558 503.975 96.1284C503.975 77.6984 489.04 62.7579 470.618 62.7579C452.196 62.7579 437.261 77.6984 437.261 96.1284C437.261 114.558 452.196 129.499 470.618 129.499Z" fill="url(#paint0_linear)"/>
<path d="M486.544 77.5317L489.01 73.5731L483.167 69.8735L480.701 73.8197C478.532 72.8413 476.231 72.1849 473.872 71.8712C474.6 71.755 475.256 71.3669 475.709 70.7853C476.162 70.2037 476.377 69.4719 476.311 68.7377C476.245 68.0035 475.904 67.3216 475.355 66.8297C474.806 66.3378 474.091 66.0725 473.354 66.0875H468.091C467.376 66.0963 466.689 66.367 466.16 66.8484C465.632 67.3297 465.298 67.9884 465.222 68.6995C465.146 69.4107 465.333 70.125 465.748 70.7072C466.163 71.2895 466.778 71.6992 467.474 71.8589C465.103 72.1626 462.789 72.815 460.608 73.795L458.143 69.8735L452.3 73.5731L454.765 77.4823C450.958 80.7342 448.239 85.0757 446.974 89.9215C445.709 94.7674 445.96 99.8846 447.692 104.584C449.424 109.282 452.555 113.337 456.662 116.201C460.769 119.065 465.655 120.6 470.661 120.6C475.667 120.6 480.553 119.065 484.66 116.201C488.767 113.337 491.898 109.282 493.63 104.584C495.362 99.8846 495.613 94.7674 494.348 89.9215C493.083 85.0757 490.364 80.7342 486.557 77.4823L486.544 77.5317ZM467.327 110.076V114.54C463.007 113.77 459.095 111.504 456.278 108.139C453.461 104.774 451.917 100.524 451.917 96.1345C451.917 91.7449 453.461 87.4952 456.278 84.1301C459.095 80.7649 463.007 78.4989 467.327 77.729L464.011 88.1249L461.545 85.0542C459.467 86.7416 457.903 88.9785 457.031 91.5107C456.159 94.0429 456.015 96.7689 456.615 99.3789C457.214 101.989 458.534 104.378 460.423 106.276C462.312 108.173 464.695 109.503 467.302 110.113L467.327 110.076ZM489.515 96.3257C489.393 101.24 487.354 105.913 483.835 109.344C480.315 112.775 475.594 114.693 470.679 114.688V77.4823C475.596 77.481 480.317 79.4039 483.835 82.8399C487.353 86.276 489.387 90.9524 489.503 95.8694C489.503 95.9434 489.503 96.0174 489.503 96.0914C489.503 96.1654 489.503 96.2517 489.503 96.3257H489.515Z" fill="#3C0C70"/>
<path d="M766.501 135.813C784.924 135.813 799.858 120.872 799.858 102.442C799.858 84.0123 784.924 69.0718 766.501 69.0718C748.079 69.0718 733.145 84.0123 733.145 102.442C733.145 120.872 748.079 135.813 766.501 135.813Z" fill="#3C0C70"/>
<path d="M742.476 103.035L736.683 97.0658H742.205L748.147 103.01L741.996 109.164H736.473L742.476 103.035Z" fill="url(#paint1_linear)"/>
<path d="M790.773 103.035L796.567 97.0658H791.044L785.103 103.01L791.254 109.164H796.776L790.773 103.035Z" fill="url(#paint2_linear)"/>
<path d="M753.312 79.3198V125.158H780.086V89.6911L753.312 79.3198ZM761.115 122.087H756.11V117.155H761.115V122.087ZM761.115 113.936H756.11V108.954H761.115V113.936ZM761.115 105.698H756.11V100.704H761.115V105.698ZM761.115 97.7316H756.11V92.7494H761.115V97.7316ZM761.115 90.135H756.11V85.2022H761.115V90.135ZM768.979 122.087H763.987V117.155H768.979V122.087ZM768.979 113.936H763.987V108.954H768.979V113.936ZM768.979 105.698H763.987V100.704H768.979V105.698ZM768.979 97.7316H763.987V92.7494H768.979V97.7316ZM776.757 122.087H771.753V117.155H776.757V122.087ZM776.757 113.936H771.753V108.954H776.757V113.936ZM776.757 105.698H771.753V100.704H776.757V105.698ZM776.757 97.7316H771.753V92.7494H776.757V97.7316Z" fill="url(#paint3_linear)"/>
<path opacity="0.5" d="M334.282 345.889L396.706 277.286" stroke="#3C0C70" stroke-width="0.71" stroke-miterlimit="10"/>
<path d="M58.9722 234.926C77.3946 234.926 92.3289 219.985 92.3289 201.555C92.3289 183.125 77.3946 168.185 58.9722 168.185C40.5498 168.185 25.6155 183.125 25.6155 201.555C25.6155 219.985 40.5498 234.926 58.9722 234.926Z" fill="#3C0C70"/>
<path d="M38.5834 201.543L44.377 195.562H38.8545L32.9006 201.518L39.0641 207.659H44.5866L38.5834 201.543Z" fill="white"/>
<path d="M79.2994 201.543L73.5057 195.562H79.0282L84.9698 201.518L78.8186 207.659H73.2961L79.2994 201.543Z" fill="white"/>
<path d="M64.9753 198.941C63.1859 200.15 61.0759 200.796 58.9166 200.796C56.7572 200.796 54.6472 200.15 52.8579 198.941C51.5316 199.609 50.4168 200.633 49.6377 201.898C48.8585 203.163 48.4456 204.62 48.4448 206.106V222.853C51.7209 224.455 55.3216 225.282 58.9683 225.269C62.615 225.256 66.2099 224.404 69.4746 222.778V206.143C69.4742 204.641 69.0522 203.17 68.2567 201.897C67.4612 200.623 66.3242 199.599 64.9753 198.941Z" fill="white"/>
<path d="M58.8981 182.44C60.395 182.44 61.8584 182.884 63.103 183.716C64.3477 184.548 65.3178 185.731 65.8907 187.114C66.4635 188.498 66.6134 190.02 66.3214 191.489C66.0294 192.958 65.3085 194.307 64.25 195.366C63.1915 196.425 61.8429 197.146 60.3747 197.438C58.9065 197.731 57.3847 197.581 56.0017 197.008C54.6186 196.434 53.4366 195.464 52.6049 194.219C51.7732 192.974 51.3293 191.51 51.3293 190.012C51.3326 188.005 52.1311 186.081 53.5498 184.662C54.9685 183.242 56.8917 182.443 58.8981 182.44Z" fill="white"/>
<path d="M470.618 339.18C489.04 339.18 503.975 324.24 503.975 305.81C503.975 287.38 489.04 272.439 470.618 272.439C452.196 272.439 437.261 287.38 437.261 305.81C437.261 324.24 452.196 339.18 470.618 339.18Z" fill="url(#paint4_linear)"/>
<path d="M452.62 306.796L450.907 303.726H446.235C446.374 302.087 446.679 300.468 447.147 298.892C444.608 301.198 442.217 303.59 439.887 305.896C442.278 308.276 444.707 310.681 447.184 312.95C446.714 311.382 446.4 309.771 446.247 308.141H453.409L452.62 306.796Z" fill="#3C0C70"/>
<path d="M501.398 305.835C499.007 303.442 496.578 301.037 494.101 298.768C494.586 300.376 494.904 302.029 495.05 303.701H491.142L489.453 308.116H495.025C494.881 309.703 494.583 311.272 494.138 312.802C496.677 310.508 499.093 308.116 501.398 305.835Z" fill="#3C0C70"/>
<path d="M484.769 317.501L483.857 319.659L485.916 321.139L490.674 313.653L488.627 314.097L484.769 317.501Z" fill="#3C0C70"/>
<path d="M489.774 299.003H485.275L480.899 288.594H470.408L468.535 285.943H460.473L451.782 292.467V299.212L455.209 305.341H464.134L466.168 307.943L469.965 326.034H476.153L483.894 314.368L489.774 299.003Z" fill="#3C0C70"/>
<path opacity="0.5" d="M544.259 125.91L593.604 75.0776" stroke="#3C0C70" stroke-width="0.71" stroke-miterlimit="10"/>
<path opacity="0.5" d="M543.52 277.434L592.556 328.489" stroke="#3C0C70" stroke-width="0.71" stroke-miterlimit="10"/>
<path d="M331.274 88.7414C349.697 88.7414 364.631 73.8009 364.631 55.3709C364.631 36.9409 349.697 22.0004 331.274 22.0004C312.852 22.0004 297.917 36.9409 297.917 55.3709C297.917 73.8009 312.852 88.7414 331.274 88.7414Z" fill="#3C0C70"/>
<path d="M337.364 52.744C335.57 53.9724 333.448 54.6301 331.274 54.6308C329.124 54.6362 327.023 53.9914 325.246 52.781C323.918 53.4481 322.8 54.4712 322.019 55.7363C321.237 57.0014 320.823 58.4588 320.821 59.9459V76.7052C324.097 78.3078 327.698 79.1346 331.344 79.1218C334.991 79.109 338.586 78.2568 341.851 76.6312V59.9459C341.848 58.4463 341.427 56.9772 340.634 55.7045C339.841 54.4319 338.708 53.4064 337.364 52.744Z" fill="white"/>
<path d="M331.274 36.244C332.771 36.244 334.234 36.6881 335.479 37.5201C336.724 38.3521 337.694 39.5347 338.267 40.9183C338.84 42.3018 338.989 43.8243 338.697 45.2931C338.405 46.7619 337.684 48.1111 336.626 49.17C335.567 50.229 334.219 50.9501 332.751 51.2423C331.282 51.5344 329.761 51.3845 328.378 50.8114C326.995 50.2383 325.813 49.2678 324.981 48.0226C324.149 46.7774 323.705 45.3135 323.705 43.8159C323.709 41.8087 324.507 39.8847 325.926 38.4654C327.344 37.0461 329.268 36.2473 331.274 36.244Z" fill="white"/>
<path d="M609.407 88.7414C627.829 88.7414 642.763 73.8009 642.763 55.3709C642.763 36.9409 627.829 22.0004 609.407 22.0004C590.984 22.0004 576.05 36.9409 576.05 55.3709C576.05 73.8009 590.984 88.7414 609.407 88.7414Z" fill="#3C0C70"/>
<path d="M598.867 33.9253L599.767 31.4219L614.264 36.6014L629.463 39.2528L598.177 28.08L596.254 33.4691L598.867 33.9253Z" fill="url(#paint5_linear)"/>
<path d="M590.534 42.0401L591.212 38.1185L609.111 41.2139C608.183 41.3689 607.279 41.6467 606.424 42.0401H629.389L589.08 35.0972L587.847 42.0401H590.534Z" fill="url(#paint6_linear)"/>
<path d="M626.825 65.3596V51.634H621.98C623.109 53.7411 623.694 56.097 623.681 58.4877C623.668 60.8784 623.058 63.2279 621.906 65.3226L626.825 65.3596Z" fill="url(#paint7_linear)"/>
<path d="M596.624 51.634H591.434V65.3596H596.624C595.48 63.2624 594.874 60.9138 594.861 58.5246C594.848 56.1354 595.428 53.7804 596.55 51.671L596.624 51.634Z" fill="url(#paint8_linear)"/>
<path d="M584.876 45.5299V71.2792H633.321V45.5299H584.876ZM614.633 62.6345L611.367 67.5673H608.754L607.139 59.9091L606.288 58.8115H602.516L601.062 56.2218V53.3854L604.76 50.623H608.174L608.951 51.7946H613.388L615.238 56.1971H617.136L614.633 62.6345ZM616.618 62.0918L616.483 65.0269L614.399 65.5325L616.618 62.0918ZM587.502 48.1566H605.672C603.545 48.8978 601.702 50.2826 600.398 52.1189C599.094 53.9552 598.393 56.1519 598.393 58.4046C598.393 60.6572 599.094 62.854 600.398 64.6902C601.702 66.5265 603.545 67.9113 605.672 68.6525H587.502V48.1566ZM630.646 68.6525H612.895C615.016 67.9056 616.853 66.5186 618.152 64.683C619.451 62.8474 620.149 60.6537 620.149 58.4046C620.149 56.1554 619.451 53.9617 618.152 52.1261C616.853 50.2905 615.016 48.9036 612.895 48.1566H630.72L630.646 68.6525Z" fill="url(#paint9_linear)"/>
<path d="M609.407 379.975C627.829 379.975 642.763 365.034 642.763 346.604C642.763 328.174 627.829 313.234 609.407 313.234C590.984 313.234 576.05 328.174 576.05 346.604C576.05 365.034 590.984 379.975 609.407 379.975Z" fill="#3C0C70"/>
<path d="M625.888 336.665C625.888 334.938 625.202 333.282 623.982 332.061C622.761 330.84 621.106 330.153 619.379 330.153H617.21V327.416H614.855V330.166H611.342V322.89H607.435V330.166H604.094V327.416H601.752V330.166H599.397C597.68 330.176 596.036 330.864 594.823 332.082C593.611 333.299 592.929 334.946 592.926 336.665V356.655C592.924 357.511 593.091 358.358 593.418 359.149C593.744 359.939 594.224 360.658 594.829 361.263C595.433 361.868 596.151 362.347 596.942 362.674C597.732 363.001 598.579 363.168 599.434 363.166H601.703V366.064H604.02V363.179H607.435V370.492H611.342V363.179H614.769V366.077H617.124V363.179H619.379C620.235 363.18 621.082 363.013 621.872 362.686C622.662 362.36 623.381 361.88 623.985 361.275C624.59 360.67 625.069 359.952 625.396 359.161C625.722 358.37 625.89 357.523 625.888 356.667V336.665ZM622.954 356.075C622.954 357.178 622.517 358.235 621.737 359.014C620.958 359.794 619.902 360.231 618.8 360.231H599.989C599.443 360.233 598.901 360.127 598.396 359.919C597.89 359.71 597.431 359.405 597.044 359.018C596.657 358.632 596.35 358.174 596.14 357.669C595.93 357.164 595.823 356.622 595.823 356.075V337.269C595.823 336.722 595.93 336.181 596.14 335.676C596.35 335.171 596.657 334.712 597.044 334.326C597.431 333.94 597.89 333.634 598.396 333.426C598.901 333.218 599.443 333.112 599.989 333.113H618.812C619.914 333.113 620.971 333.551 621.75 334.33C622.529 335.11 622.967 336.167 622.967 337.269L622.954 356.075Z" fill="url(#paint10_linear)"/>
<path d="M612.612 343.115H606.165C605.933 343.115 605.746 343.302 605.746 343.534V349.984C605.746 350.215 605.933 350.403 606.165 350.403H612.612C612.843 350.403 613.031 350.215 613.031 349.984V343.534C613.031 343.302 612.843 343.115 612.612 343.115Z" fill="url(#paint11_linear)"/>
<path d="M618.061 335.654H610.184V341.462H612.649C613.198 341.462 613.725 341.68 614.113 342.069C614.502 342.457 614.72 342.984 614.72 343.534V345.889H620.452V338.009C620.452 337.697 620.39 337.387 620.269 337.099C620.149 336.811 619.972 336.549 619.749 336.33C619.527 336.111 619.263 335.938 618.973 335.822C618.683 335.706 618.373 335.649 618.061 335.654Z" fill="url(#paint12_linear)"/>
<path d="M614.683 349.983C614.683 350.533 614.465 351.06 614.076 351.448C613.688 351.837 613.161 352.055 612.612 352.055H610.146V357.703H618.036C618.659 357.7 619.256 357.451 619.697 357.01C620.138 356.569 620.387 355.972 620.39 355.348V347.542H614.658L614.683 349.983Z" fill="url(#paint13_linear)"/>
<path d="M604.094 349.984V347.517H598.362V355.323C598.365 355.947 598.614 356.544 599.055 356.985C599.496 357.426 600.093 357.676 600.717 357.679H608.519V352.031H606.165C605.62 352.031 605.097 351.816 604.709 351.433C604.322 351.049 604.101 350.529 604.094 349.984Z" fill="url(#paint14_linear)"/>
<path d="M604.094 343.534C604.097 342.985 604.317 342.46 604.704 342.072C605.092 341.685 605.617 341.465 606.165 341.462H608.519V335.654H600.717C600.092 335.654 599.493 335.902 599.052 336.343C598.61 336.785 598.362 337.384 598.362 338.009V345.889H604.094V343.534Z" fill="url(#paint15_linear)"/>
<path opacity="0.5" d="M176.275 300.236L277.8 266.249C289.56 293.934 302.454 320.091 324.47 339.884" stroke="#3C0C70" stroke-width="0.71" stroke-miterlimit="10"/>
<path d="M175.585 332.978C194.007 332.978 208.942 318.037 208.942 299.607C208.942 281.177 194.007 266.237 175.585 266.237C157.163 266.237 142.228 281.177 142.228 299.607C142.228 318.037 157.163 332.978 175.585 332.978Z" fill="#3C0C70"/>
<path d="M191.549 293.503H159.782V321.459H191.561L191.549 293.503ZM187.542 297.498V317.464H182.759V297.498H187.542ZM178.248 297.498V317.464H173.317V297.498H178.248ZM163.801 297.498H168.657V317.464H163.801V297.498Z" fill="white"/>
<path d="M175.609 272.908L157.859 289.483H193.533L175.609 272.908ZM175.609 287.066C174.776 287.066 173.961 286.818 173.267 286.355C172.574 285.891 172.034 285.233 171.715 284.462C171.395 283.691 171.312 282.843 171.475 282.025C171.637 281.207 172.039 280.456 172.628 279.866C173.218 279.276 173.969 278.874 174.787 278.711C175.605 278.549 176.452 278.632 177.223 278.951C177.993 279.271 178.652 279.811 179.115 280.505C179.578 281.198 179.825 282.014 179.825 282.848C179.825 283.404 179.715 283.954 179.502 284.468C179.289 284.981 178.976 285.447 178.582 285.839C178.188 286.231 177.72 286.541 177.206 286.752C176.691 286.962 176.14 287.069 175.585 287.066H175.609Z" fill="white"/>
<path d="M331.274 379.975C349.697 379.975 364.631 365.034 364.631 346.604C364.631 328.174 349.697 313.234 331.274 313.234C312.852 313.234 297.917 328.174 297.917 346.604C297.917 365.034 312.852 379.975 331.274 379.975Z" fill="#3C0C70"/>
<path d="M320.735 325.171L321.635 322.668L336.131 327.847L351.33 330.499L320.045 319.326L318.122 324.715L320.735 325.171Z" fill="white"/>
<path d="M312.402 333.286L313.08 329.364L330.991 332.447C330.062 332.606 329.158 332.888 328.303 333.286H351.318L310.996 326.33L309.764 333.286H312.402Z" fill="white"/>
<path d="M348.692 356.569V342.831H343.848C344.977 344.938 345.561 347.294 345.548 349.684C345.536 352.075 344.925 354.425 343.774 356.519L348.692 356.569Z" fill="white"/>
<path d="M318.429 342.831H313.24V356.519H318.516C317.366 354.424 316.757 352.076 316.742 349.686C316.726 347.296 317.307 344.94 318.429 342.831Z" fill="white"/>
<path d="M306.744 336.776V362.562H355.201V336.776H306.744ZM336.526 353.93L333.259 358.862H330.646L329.043 351.204L328.18 350.107H324.408L322.954 347.517V344.668L326.652 341.906H330.066L330.855 343.016H335.293L337.142 347.431H338.991L336.526 353.93ZM338.51 353.387L338.375 356.322L336.304 356.815L338.51 353.387ZM309.406 339.402H327.576C325.45 340.144 323.607 341.528 322.303 343.365C320.998 345.201 320.298 347.398 320.298 349.65C320.298 351.903 320.998 354.1 322.303 355.936C323.607 357.772 325.45 359.157 327.576 359.898H309.406V339.402ZM352.551 359.898H334.763C336.883 359.151 338.72 357.764 340.019 355.929C341.318 354.093 342.016 351.9 342.016 349.65C342.016 347.401 341.318 345.208 340.019 343.372C338.72 341.536 336.883 340.149 334.763 339.402H352.551V359.898Z" fill="white"/>
<path opacity="0.5" d="M629.512 328.822C637.317 319.336 644.252 309.166 650.234 298.436L742.082 346.395" stroke="#3C0C70" stroke-width="0.71" stroke-miterlimit="10"/>
<path opacity="0.5" d="M574.953 216.477L779.063 243.484C780.957 229.484 781.904 215.373 781.898 201.246H876.815" stroke="#3C0C70" stroke-width="0.71" stroke-miterlimit="10"/>
<path d="M672.817 262.759C691.239 262.759 706.173 247.818 706.173 229.388C706.173 210.958 691.239 196.018 672.817 196.018C654.394 196.018 639.46 210.958 639.46 229.388C639.46 247.818 654.394 262.759 672.817 262.759Z" fill="#3C0C70"/>
<path d="M688.78 223.284H657.026V251.241H688.805L688.78 223.284ZM684.774 227.28V247.245H679.991V227.28H684.774ZM675.479 227.28V247.245H670.548V227.28H675.479ZM661.032 227.28H665.889V247.245H661.032V227.28Z" fill="url(#paint16_linear)"/>
<path d="M672.841 202.689L655.09 219.264H690.715L672.841 202.689ZM672.841 216.847C672.007 216.847 671.192 216.599 670.499 216.136C669.806 215.672 669.265 215.014 668.946 214.243C668.627 213.472 668.544 212.624 668.706 211.806C668.869 210.988 669.271 210.237 669.86 209.647C670.45 209.057 671.201 208.655 672.019 208.492C672.836 208.33 673.684 208.413 674.455 208.732C675.225 209.052 675.883 209.592 676.347 210.286C676.81 210.979 677.057 211.795 677.057 212.629C677.057 213.185 676.947 213.735 676.734 214.249C676.52 214.762 676.208 215.228 675.814 215.62C675.419 216.012 674.952 216.322 674.437 216.533C673.923 216.743 673.372 216.85 672.817 216.847H672.841Z" fill="url(#paint17_linear)"/>
<path d="M883.472 233.285C901.894 233.285 916.828 218.345 916.828 199.915C916.828 181.485 901.894 166.544 883.472 166.544C865.049 166.544 850.115 181.485 850.115 199.915C850.115 218.345 865.049 233.285 883.472 233.285Z" fill="#3C0C70"/>
<path d="M864.636 199.902L858.842 193.921H864.353L870.307 199.878L864.143 206.019H858.621L864.636 199.902Z" fill="url(#paint18_linear)"/>
<path d="M902.258 199.902L908.052 193.921H902.541L896.588 199.878L902.751 206.019H908.273L902.258 199.902Z" fill="url(#paint19_linear)"/>
<path d="M889.561 197.313C887.775 198.53 885.664 199.181 883.503 199.181C881.341 199.181 879.23 198.53 877.444 197.313C876.118 197.981 875.003 199.005 874.224 200.27C873.445 201.535 873.032 202.992 873.031 204.478V221.225C876.307 222.827 879.908 223.654 883.554 223.641C887.201 223.628 890.796 222.776 894.061 221.151V204.502C894.058 203.003 893.635 201.534 892.839 200.263C892.044 198.992 890.908 197.97 889.561 197.313Z" fill="url(#paint20_linear)"/>
<path d="M883.472 180.8C884.969 180.797 886.434 181.239 887.68 182.07C888.927 182.901 889.899 184.082 890.473 185.466C891.048 186.849 891.2 188.372 890.909 189.841C890.618 191.311 889.899 192.661 888.841 193.722C887.783 194.782 886.434 195.504 884.965 195.797C883.497 196.09 881.974 195.941 880.591 195.368C879.207 194.796 878.024 193.825 877.192 192.58C876.36 191.334 875.916 189.87 875.916 188.372C875.916 186.366 876.711 184.442 878.128 183.022C879.545 181.602 881.467 180.803 883.472 180.8Z" fill="url(#paint21_linear)"/>
<path d="M742.883 379.975C761.305 379.975 776.24 365.034 776.24 346.604C776.24 328.174 761.305 313.234 742.883 313.234C724.461 313.234 709.526 328.174 709.526 346.604C709.526 365.034 724.461 379.975 742.883 379.975Z" fill="#3C0C70"/>
<path d="M756.209 340.315H753.127V350.304H731.616V340.315H728.535L728.522 365.67H756.221L756.209 340.315Z" fill="url(#paint22_linear)"/>
<path d="M734.797 335.431C734.797 336.331 735.154 337.193 735.789 337.829C736.425 338.465 737.287 338.823 738.187 338.823C739.086 338.823 739.948 338.465 740.584 337.829C741.219 337.193 741.576 336.331 741.576 335.431V334.95H734.797V335.431Z" fill="url(#paint23_linear)"/>
<path d="M735.24 329.364L736.116 327.046H732.491C732.139 327.046 731.792 327.141 731.489 327.322C731.185 327.502 730.936 327.76 730.766 328.069L727.29 333.557H733.724L735.24 329.364Z" fill="url(#paint24_linear)"/>
<path d="M730.075 338.761C730.962 338.758 731.812 338.408 732.443 337.785C733.074 337.163 733.437 336.318 733.453 335.431V334.95H726.673V335.431C726.689 336.322 727.055 337.171 727.692 337.794C728.329 338.417 729.185 338.764 730.075 338.761Z" fill="url(#paint25_linear)"/>
<path d="M741.65 333.557L741.663 327.046H737.533L736.473 329.882L735.092 333.557H741.65Z" fill="url(#paint26_linear)"/>
<path d="M751.278 334.889V335.432C751.278 336.331 751.635 337.194 752.271 337.83C752.906 338.466 753.769 338.823 754.668 338.823C755.567 338.823 756.429 338.466 757.065 337.83C757.7 337.194 758.058 336.331 758.058 335.432V334.951L751.278 334.889Z" fill="url(#paint27_linear)"/>
<path d="M751.068 333.557H757.503L753.989 328.119C753.823 327.797 753.572 327.527 753.264 327.338C752.955 327.149 752.601 327.048 752.239 327.046H748.627L749.49 329.364L751.068 333.557Z" fill="url(#paint28_linear)"/>
<path d="M743.154 335.431C743.206 336.297 743.587 337.11 744.218 337.705C744.849 338.299 745.683 338.63 746.55 338.63C747.417 338.63 748.251 338.299 748.883 337.705C749.514 337.11 749.894 336.297 749.946 335.431V334.95H743.154V335.431Z" fill="url(#paint29_linear)"/>
<path d="M748.27 329.882L747.197 327.046H743.092L743.08 333.557H749.65L748.27 329.882Z" fill="url(#paint30_linear)"/>
<path d="M717.995 346.099L712.201 340.13H717.724L723.665 346.074L717.514 352.216H711.979L717.995 346.099Z" fill="url(#paint31_linear)"/>
<path d="M766.28 346.099L772.086 340.13H766.563L760.609 346.074L766.773 352.216H772.295L766.28 346.099Z" fill="url(#paint32_linear)"/>
<path opacity="0.5" d="M274.065 201.395H365.26" stroke="#3C0C70" stroke-width="0.71" stroke-miterlimit="10"/>
<path d="M188.023 111.926C206.445 111.926 221.379 96.9854 221.379 78.5553C221.379 60.1253 206.445 45.1848 188.023 45.1848C169.6 45.1848 154.666 60.1253 154.666 78.5553C154.666 96.9854 169.6 111.926 188.023 111.926Z" fill="#3C0C70"/>
<path d="M163.492 78.4195L169.298 72.4508H163.776L157.822 78.3949L163.985 84.5485H169.508L163.492 78.4195Z" fill="white"/>
<path d="M212.467 78.4195L206.673 72.4508H212.196L218.137 78.3949L211.986 84.5485H206.451L212.467 78.4195Z" fill="white"/>
<path d="M203.21 70.786H173.625V98.9401H203.21V70.786ZM199.512 74.4856V95.2158H195.037V74.5103L199.512 74.4856ZM190.883 74.4856V95.2158H186.309V74.5103L190.883 74.4856ZM177.409 74.4856H181.933V95.2158H177.409V74.4856Z" fill="white"/>
<path d="M188.343 56.1849L173.625 67.0371H203.21L188.343 56.1849Z" fill="white"/>
<path d="M267.951 235.049C286.387 235.049 301.332 220.097 301.332 201.653C301.332 183.21 286.387 168.258 267.951 168.258C249.515 168.258 234.569 183.21 234.569 201.653C234.569 220.097 249.515 235.049 267.951 235.049Z" fill="#3C0C70"/>
<path d="M281.276 195.352H278.194V205.341H256.659V195.352H253.578L253.565 220.719H281.288L281.276 195.352Z" fill="white"/>
<path d="M259.852 190.394C259.852 191.294 260.209 192.156 260.845 192.792C261.48 193.428 262.343 193.786 263.242 193.786C264.141 193.786 265.003 193.428 265.639 192.792C266.274 192.156 266.632 191.294 266.632 190.394V189.913H259.852V190.394Z" fill="white"/>
<path d="M260.296 184.389L261.171 182.07H257.547C257.194 182.07 256.847 182.164 256.543 182.345C256.239 182.525 255.99 182.784 255.821 183.094L252.283 188.582H258.718L260.296 184.389Z" fill="white"/>
<path d="M255.168 193.798C256.069 193.795 256.933 193.435 257.57 192.798C258.207 192.16 258.567 191.296 258.57 190.394V189.913H251.778V190.382C251.776 190.829 251.863 191.272 252.032 191.686C252.202 192.099 252.451 192.475 252.766 192.792C253.08 193.11 253.455 193.362 253.867 193.534C254.279 193.707 254.721 193.796 255.168 193.798Z" fill="white"/>
<path d="M266.718 188.594V182.07H262.589L261.516 184.907L260.135 188.594H266.718Z" fill="white"/>
<path d="M276.333 189.913V190.382C276.305 190.845 276.372 191.31 276.53 191.746C276.688 192.183 276.934 192.582 277.252 192.92C277.57 193.258 277.954 193.527 278.38 193.711C278.806 193.896 279.265 193.991 279.729 193.991C280.193 193.991 280.652 193.896 281.078 193.711C281.504 193.527 281.888 193.258 282.206 192.92C282.524 192.582 282.77 192.183 282.928 191.746C283.086 191.31 283.153 190.845 283.125 190.382V189.913H276.333Z" fill="white"/>
<path d="M276.124 188.582H282.558L279.045 183.143C278.879 182.822 278.628 182.552 278.319 182.363C278.011 182.174 277.656 182.073 277.295 182.07H273.658L274.533 184.389L276.124 188.582Z" fill="white"/>
<path d="M268.222 190.394C268.222 191.294 268.579 192.156 269.215 192.792C269.851 193.428 270.713 193.786 271.612 193.786C272.511 193.786 273.373 193.428 274.009 192.792C274.645 192.156 275.002 191.294 275.002 190.394V189.913H268.222V190.394Z" fill="white"/>
<path d="M273.325 184.907L272.265 182.07H268.148L268.135 188.594H274.706L273.325 184.907Z" fill="white"/>
<path d="M243.568 201.136L249.374 195.155H243.852L237.898 201.111L244.061 207.265H249.584L243.568 201.136Z" fill="white"/>
<path d="M292.568 201.136L286.774 195.155H292.296L298.25 201.111L292.087 207.265H286.552L292.568 201.136Z" fill="white"/>
</g>
<defs>
<linearGradient id="paint0_linear" x1="437.261" y1="96.1284" x2="503.987" y2="96.1284" gradientUnits="userSpaceOnUse">
<stop stop-color="#FFCD03"/>
<stop offset="1" stop-color="#F59C00"/>
</linearGradient>
<linearGradient id="paint1_linear" x1="7719.38" y1="1108.56" x2="8259.98" y2="1108.56" gradientUnits="userSpaceOnUse">
<stop stop-color="#FFCD03"/>
<stop offset="1" stop-color="#F59C00"/>
</linearGradient>
<linearGradient id="paint2_linear" x1="7768.01" y1="1108.56" x2="8308.61" y2="1108.56" gradientUnits="userSpaceOnUse">
<stop stop-color="#FFCD03"/>
<stop offset="1" stop-color="#F59C00"/>
</linearGradient>
<linearGradient id="paint3_linear" x1="16769.1" y1="3879.31" x2="18009" y2="3879.31" gradientUnits="userSpaceOnUse">
<stop stop-color="#FFCD03"/>
<stop offset="1" stop-color="#F59C00"/>
</linearGradient>
<linearGradient id="paint4_linear" x1="24101.8" y1="16822.9" x2="27713" y2="16822.9" gradientUnits="userSpaceOnUse">
<stop stop-color="#FFCD03"/>
<stop offset="1" stop-color="#F59C00"/>
</linearGradient>
<linearGradient id="paint5_linear" x1="16316.3" y1="333.098" x2="17649.3" y2="333.098" gradientUnits="userSpaceOnUse">
<stop stop-color="#FFCD03"/>
<stop offset="1" stop-color="#F59C00"/>
</linearGradient>
<linearGradient id="paint6_linear" x1="20252.5" y1="252.203" x2="21920" y2="252.203" gradientUnits="userSpaceOnUse">
<stop stop-color="#FFCD03"/>
<stop offset="1" stop-color="#F59C00"/>
</linearGradient>
<linearGradient id="paint7_linear" x1="2950.13" y1="702.5" x2="3147.55" y2="702.5" gradientUnits="userSpaceOnUse">
<stop stop-color="#FFCD03"/>
<stop offset="1" stop-color="#F59C00"/>
</linearGradient>
<linearGradient id="paint8_linear" x1="3048.05" y1="702.5" x2="3256.36" y2="702.5" gradientUnits="userSpaceOnUse">
<stop stop-color="#FFCD03"/>
<stop offset="1" stop-color="#F59C00"/>
</linearGradient>
<linearGradient id="paint9_linear" x1="23517.3" y1="1265.02" x2="25461.8" y2="1265.02" gradientUnits="userSpaceOnUse">
<stop stop-color="#FFCD03"/>
<stop offset="1" stop-color="#F59C00"/>
</linearGradient>
<linearGradient id="paint10_linear" x1="16417.8" y1="13705.2" x2="17262.6" y2="13705.2" gradientUnits="userSpaceOnUse">
<stop stop-color="#FFCD03"/>
<stop offset="1" stop-color="#F59C00"/>
</linearGradient>
<linearGradient id="paint11_linear" x1="4085.21" y1="2392.49" x2="4303.47" y2="2392.49" gradientUnits="userSpaceOnUse">
<stop stop-color="#FFCD03"/>
<stop offset="1" stop-color="#F59C00"/>
</linearGradient>
<linearGradient id="paint12_linear" x1="5514.46" y1="3164.15" x2="5822.1" y2="3164.15" gradientUnits="userSpaceOnUse">
<stop stop-color="#FFCD03"/>
<stop offset="1" stop-color="#F59C00"/>
</linearGradient>
<linearGradient id="paint13_linear" x1="5502.62" y1="3253.15" x2="5809.52" y2="3253.15" gradientUnits="userSpaceOnUse">
<stop stop-color="#FFCD03"/>
<stop offset="1" stop-color="#F59C00"/>
</linearGradient>
<linearGradient id="paint14_linear" x1="5449.64" y1="3253.13" x2="5753.96" y2="3253.13" gradientUnits="userSpaceOnUse">
<stop stop-color="#FFCD03"/>
<stop offset="1" stop-color="#F59C00"/>
</linearGradient>
<linearGradient id="paint15_linear" x1="5449.64" y1="3164.06" x2="5753.96" y2="3164.06" gradientUnits="userSpaceOnUse">
<stop stop-color="#FFCD03"/>
<stop offset="1" stop-color="#F59C00"/>
</linearGradient>
<linearGradient id="paint16_linear" x1="17594.8" y1="5602.16" x2="18414.1" y2="5602.16" gradientUnits="userSpaceOnUse">
<stop stop-color="#FFCD03"/>
<stop offset="1" stop-color="#F59C00"/>
</linearGradient>
<linearGradient id="paint17_linear" x1="19587.3" y1="3038.22" x2="20616.8" y2="3038.22" gradientUnits="userSpaceOnUse">
<stop stop-color="#FFCD03"/>
<stop offset="1" stop-color="#F59C00"/>
</linearGradient>
<linearGradient id="paint18_linear" x1="8985.09" y1="2155.69" x2="9449.84" y2="2155.69" gradientUnits="userSpaceOnUse">
<stop stop-color="#FFCD03"/>
<stop offset="1" stop-color="#F59C00"/>
</linearGradient>
<linearGradient id="paint19_linear" x1="9022.93" y1="2155.69" x2="9487.68" y2="2155.69" gradientUnits="userSpaceOnUse">
<stop stop-color="#FFCD03"/>
<stop offset="1" stop-color="#F59C00"/>
</linearGradient>
<linearGradient id="paint20_linear" x1="15497.1" y1="4691.08" x2="16333.5" y2="4691.08" gradientUnits="userSpaceOnUse">
<stop stop-color="#FFCD03"/>
<stop offset="1" stop-color="#F59C00"/>
</linearGradient>
<linearGradient id="paint21_linear" x1="11402.5" y1="2494.01" x2="12004.6" y2="2494.01" gradientUnits="userSpaceOnUse">
<stop stop-color="#FFCD03"/>
<stop offset="1" stop-color="#F59C00"/>
</linearGradient>
<linearGradient id="paint22_linear" x1="16768.2" y1="7597.84" x2="18028.2" y2="7597.84" gradientUnits="userSpaceOnUse">
<stop stop-color="#FFCD03"/>
<stop offset="1" stop-color="#F59C00"/>
</linearGradient>
<linearGradient id="paint23_linear" x1="4660.83" y1="1392.59" x2="4969.25" y2="1392.59" gradientUnits="userSpaceOnUse">
<stop stop-color="#FFCD03"/>
<stop offset="1" stop-color="#F59C00"/>
</linearGradient>
<linearGradient id="paint24_linear" x1="5838.28" y1="2071.04" x2="6239.78" y2="2071.04" gradientUnits="userSpaceOnUse">
<stop stop-color="#FFCD03"/>
<stop offset="1" stop-color="#F59C00"/>
</linearGradient>
<linearGradient id="paint25_linear" x1="4652.75" y1="1375.76" x2="4961.16" y2="1375.76" gradientUnits="userSpaceOnUse">
<stop stop-color="#FFCD03"/>
<stop offset="1" stop-color="#F59C00"/>
</linearGradient>
<linearGradient id="paint26_linear" x1="4539.79" y1="2071.04" x2="4838.67" y2="2071.04" gradientUnits="userSpaceOnUse">
<stop stop-color="#FFCD03"/>
<stop offset="1" stop-color="#F59C00"/>
</linearGradient>
<linearGradient id="paint27_linear" x1="4677.32" y1="1409.36" x2="4985.73" y2="1409.36" gradientUnits="userSpaceOnUse">
<stop stop-color="#FFCD03"/>
<stop offset="1" stop-color="#F59C00"/>
</linearGradient>
<linearGradient id="paint28_linear" x1="5888.21" y1="2071.04" x2="6291.95" y2="2071.04" gradientUnits="userSpaceOnUse">
<stop stop-color="#FFCD03"/>
<stop offset="1" stop-color="#F59C00"/>
</linearGradient>
<linearGradient id="paint29_linear" x1="4676.33" y1="1340.02" x2="4985.3" y2="1340.02" gradientUnits="userSpaceOnUse">
<stop stop-color="#FFCD03"/>
<stop offset="1" stop-color="#F59C00"/>
</linearGradient>
<linearGradient id="paint30_linear" x1="4547.82" y1="2071.04" x2="4846.7" y2="2071.04" gradientUnits="userSpaceOnUse">
<stop stop-color="#FFCD03"/>
<stop offset="1" stop-color="#F59C00"/>
</linearGradient>
<linearGradient id="paint31_linear" x1="7479.06" y1="3732.62" x2="8010.65" y2="3732.62" gradientUnits="userSpaceOnUse">
<stop stop-color="#FFCD03"/>
<stop offset="1" stop-color="#F59C00"/>
</linearGradient>
<linearGradient id="paint32_linear" x1="7527.69" y1="3732.62" x2="8059.28" y2="3732.62" gradientUnits="userSpaceOnUse">
<stop stop-color="#FFCD03"/>
<stop offset="1" stop-color="#F59C00"/>
</linearGradient>
<clipPath id="clip0">
<rect width="942" height="402" fill="white"/>
</clipPath>
</defs>
</svg>
